M48
; DRILL file {KiCad 5.1.4+dfsg1-1} date Sat 31 Aug 2019 16:21:14 AEST
; FORMAT={-:-/ absolute / inch / decimal}
; #@! TF.CreationDate,2019-08-31T16:21:14+10:00
; #@! TF.GenerationSoftware,Kicad,Pcbnew,5.1.4+dfsg1-1
; #@! TF.FileFunction,Plated,1,2,PTH
FMAT,2
INCH
T1C0.0157
T2C0.0236
T3C0.0354
T4C0.0394
T5C0.0591
%
G90
G05
T1
X1.5244Y-3.6701
X1.7953Y-1.6398
X1.9945Y-3.6528
X2.0181Y-1.6394
X2.6161Y-1.8933
X3.1559Y-1.6161
X3.3953Y-1.6197
X3.9343Y-1.6945
X4.1449Y-1.6217
X4.7012Y-1.6232
X4.8929Y-1.626
X5.4441Y-1.622
X5.6701Y-1.622
X6.1496Y-1.8091
X6.5866Y-1.6276
X6.7961Y-1.639
X6.8667Y-1.7913
X7.1091Y-5.3583
X7.3299Y-1.6213
X7.4488Y-1.552
X8.0504Y-5.3598
X8.061Y-1.6213
X8.1622Y-1.552
X8.8358Y-1.6276
X9.1906Y-1.5933
X9.7568Y-5.6052
X9.9673Y-1.6492
X10.0791Y-1.5717
X10.7071Y-1.6453
X10.8283Y-1.5535
X11.4492Y-1.6366
X11.6213Y-1.6205
X12.0469Y-1.6402
X12.0791Y-2.6476
X12.1079Y-3.2213
X12.161Y-3.6445
X12.1642Y-3.3543
X12.1803Y-4.2642
X12.2245Y-4.459
X12.4135Y-4.46
X12.4157Y-4.0732
X12.4469Y-3.8193
X12.4827Y-1.6602
X12.5492Y-4.172
X12.551Y-4.3175
X12.5567Y-3.9575
X12.6501Y-4.2828
X12.7461Y-2.6472
X12.7773Y-3.329
X12.8492Y-3.7039
X12.8669Y-4.1928
X12.9079Y-3.7035
X12.9087Y-4.1928
X12.9518Y-4.1934
X12.9626Y-4.5382
X12.9791Y-3.5594
X12.9892Y-4.1928
X13.0063Y-3.9913
X13.0331Y-3.6437
X13.0346Y-3.3524
X13.0701Y-4.1917
X13.0742Y-4.2505
X13.0986Y-3.2638
X13.1262Y-4.2976
X13.1688Y-4.1511
X13.1913Y-4.8724
X13.1965Y-3.3865
X13.1988Y-3.987
X13.218Y-3.7442
X13.2215Y-4.5413
X13.2265Y-4.8035
X13.2697Y-3.9272
X13.2921Y-3.3087
X13.303Y-3.425
X13.3314Y-3.7056
X13.365Y-5.2638
X13.422Y-4.2715
X13.4339Y-4.7126
X13.4346Y-3.1248
X13.5035Y-3.5441
X13.5135Y-3.739
X13.539Y-3.2953
X13.5409Y-3.4654
X13.548Y-3.8715
X13.5531Y-2.6016
X13.554Y-3.8265
X13.6063Y-3.9213
X13.6134Y-3.3472
X13.821Y-3.5989
X13.8429Y-2.1736
X13.8882Y-4.2008
X13.8917Y-3.9843
X13.9361Y-4.7329
X13.9361Y-4.8085
X13.9476Y-2.6016
X13.9961Y-3.3496
X14.0045Y-3.4485
X14.0115Y-2.6505
X14.0135Y-1.599
X14.0202Y-3.8605
X14.0349Y-4.168
X14.0906Y-3.4441
X14.145Y-4.239
X14.1535Y-3.4429
X14.1757Y-4.7256
X14.2087Y-3.4626
X14.2552Y-4.7256
X14.2555Y-3.1476
X14.3327Y-4.8062
X14.3563Y-2.5945
X14.5228Y-4.8543
X14.501Y-4.694
X14.501Y-4.7471
X14.5345Y-4.694
X14.5345Y-4.7471
X14.568Y-4.694
X14.568Y-4.7471
X14.6014Y-4.694
X14.6014Y-4.7471
X14.6349Y-4.694
X14.6349Y-4.7471
X14.6684Y-4.694
X14.6684Y-4.7471
X14.7018Y-4.694
X14.7018Y-4.7471
X14.7353Y-4.694
X14.7353Y-4.7471
T3
X14.4133Y-2.0813
X14.5133Y-2.0813
X12.9153Y-2.8226
X13.0153Y-2.8226
X6.3486Y-2.8232
X6.4486Y-2.8232
X12.913Y-5.0653
X13.013Y-5.0653
X4.2817Y-3.5714
X4.3817Y-3.5714
X13.6587Y-2.0826
X13.7587Y-2.0826
X14.4126Y-2.8279
X14.5126Y-2.8279
X7.4608Y-2.0729
X7.5608Y-2.0729
X2.2296Y-2.0728
X2.3296Y-2.0728
X2.6025Y-2.826
X2.7025Y-2.826
X7.0902Y-2.824
X7.1902Y-2.824
X8.7673Y-3.5718
X8.8673Y-3.5718
X1.475Y-2.0715
X1.575Y-2.0715
X4.6653Y-4.3192
X4.7653Y-4.3192
X5.7747Y-3.567
X5.8747Y-3.567
X2.9309Y-1.1241
X3.0309Y-1.1241
X6.1606Y-4.3187
X6.2606Y-4.3187
X4.8455Y-2.826
X4.9455Y-2.826
X6.5289Y-3.5733
X6.6289Y-3.5733
X9.7085Y-2.0721
X9.8085Y-2.0721
X11.3139Y-4.3197
X11.4139Y-4.3197
X8.5879Y-2.8234
X8.6879Y-2.8234
X1.46Y-1.1185
X1.56Y-1.1185
X11.9471Y-1.1443
X12.0471Y-1.1443
X10.0914Y-2.8213
X10.1914Y-2.8213
X4.0909Y-2.8268
X4.1909Y-2.8268
X3.9121Y-4.3212
X4.0121Y-4.3212
X3.7233Y-2.0683
X3.8233Y-2.0683
X7.272Y-3.573
X7.372Y-3.573
X10.2695Y-3.573
X10.3695Y-3.573
X11.4963Y-3.5791
X11.5963Y-3.5791
X8.2154Y-2.0727
X8.3154Y-2.0727
X3.162Y-4.3205
X3.262Y-4.3205
X10.4554Y-1.1467
X10.5554Y-1.1467
X4.4685Y-2.0693
X4.5685Y-2.0693
X3.3485Y-2.8274
X3.4485Y-2.8274
X3.5326Y-3.5738
X3.6326Y-3.5738
X9.912Y-4.3187
X10.012Y-4.3187
X7.8079Y-1.1351
X7.9079Y-1.1351
X9.1563Y-4.3194
X9.2563Y-4.3194
X5.2172Y-2.0713
X5.3172Y-2.0713
X3.679Y-1.1254
X3.779Y-1.1254
X6.7164Y-2.0723
X6.8164Y-2.0723
X7.0619Y-1.1353
X7.1619Y-1.1353
X2.9691Y-2.071
X3.0691Y-2.071
X6.9094Y-4.3189
X7.0094Y-4.3189
X10.9359Y-5.0686
X11.0359Y-5.0686
X8.4065Y-4.3164
X8.5065Y-4.3164
X10.8336Y-2.8212
X10.9336Y-2.8212
X11.8795Y-5.0705
X11.9795Y-5.0705
X8.0194Y-3.572
X8.1194Y-3.572
X3.4325Y-5.0608
X3.5325Y-5.0608
X13.66Y-5.0665
X13.76Y-5.0665
X6.3113Y-1.1342
X6.4113Y-1.1342
X4.428Y-1.123
X4.528Y-1.123
X9.0597Y-5.0641
X9.1597Y-5.0641
X12.9206Y-1.1292
X13.0206Y-1.1292
X13.6597Y-4.3166
X13.7597Y-4.3166
X1.5637Y-5.062
X1.6637Y-5.062
X2.7823Y-3.572
X2.8823Y-3.572
X12.9173Y-2.0827
X13.0173Y-2.0827
X14.415Y-1.131
X14.515Y-1.131
X7.6638Y-4.3161
X7.7638Y-4.3161
X8.5605Y-1.1395
X8.6605Y-1.1395
X1.9482Y-4.3136
X2.0482Y-4.3136
X11.5833Y-2.0567
X11.6833Y-2.0567
X14.4162Y-5.066
X14.5162Y-5.066
X13.6604Y-2.8215
X13.7604Y-2.8215
X10.4596Y-2.0707
X10.5596Y-2.0707
X11.1991Y-1.144
X11.2991Y-1.144
X8.9677Y-2.0713
X9.0677Y-2.0713
X2.4978Y-5.0608
X2.5978Y-5.0608
X11.7757Y-2.8223
X11.8757Y-2.8223
X1.7565Y-3.5695
X1.8565Y-3.5695
X9.3409Y-2.8249
X9.4409Y-2.8249
X5.5915Y-2.8285
X5.6915Y-2.8285
X6.2506Y-5.0602
X6.3506Y-5.0602
X5.4166Y-4.3193
X5.5166Y-4.3193
X1.6676Y-2.8231
X1.7676Y-2.8231
X13.6665Y-1.1315
X13.7665Y-1.1315
X9.9925Y-5.0688
X10.0925Y-5.0688
X7.8441Y-2.8237
X7.9441Y-2.8237
X5.9655Y-2.0719
X6.0655Y-2.0719
X5.019Y-3.575
X5.119Y-3.575
X5.1756Y-1.125
X5.2756Y-1.125
X9.7034Y-1.1476
X9.8034Y-1.1476
X9.5213Y-3.5701
X9.6213Y-3.5701
T4
X13.6854Y-3.7823
X13.6854Y-3.8823
X13.6854Y-3.9823
X13.7854Y-3.7823
X13.7854Y-3.8823
X13.7854Y-3.9823
T5
X10.4087Y-2.4717
X10.6587Y-2.3717
X5.9146Y-2.4713
X6.1646Y-2.3713
X2.8791Y-1.522
X3.1291Y-1.422
X4.972Y-3.9709
X5.222Y-3.8709
X10.0417Y-3.224
X10.2917Y-3.124
X8.5378Y-3.2236
X8.7878Y-3.1236
X5.1638Y-2.4713
X5.4138Y-2.3713
X8.1638Y-2.472
X8.4138Y-2.372
X9.8602Y-4.7169
X10.1102Y-4.6169
X4.6134Y-4.715
X4.8634Y-4.615
X6.198Y-5.4587
X6.448Y-5.3587
X2.5484Y-3.2244
X2.7984Y-3.1244
X13.6181Y-1.5311
X13.8681Y-1.4311
X6.1083Y-4.7157
X6.3583Y-4.6157
X1.6165Y-3.2232
X1.8665Y-3.1232
X9.9433Y-5.4657
X10.1933Y-5.3657
X12.8693Y-1.5315
X13.1193Y-1.4315
X10.2209Y-3.9697
X10.4709Y-3.8697
X4.7913Y-3.224
X5.0413Y-3.124
X8.7169Y-3.9697
X8.9669Y-3.8697
X1.422Y-2.4685
X1.672Y-2.3685
X3.6299Y-1.5232
X3.8799Y-1.4232
X14.363Y-5.4622
X14.613Y-5.3622
X5.3646Y-4.7157
X5.6146Y-4.6157
X11.8988Y-1.5441
X12.1488Y-1.4441
X11.1484Y-1.5445
X11.3984Y-1.4445
X1.8933Y-4.7098
X2.1433Y-4.6098
X14.3622Y-2.4811
X14.6122Y-2.3811
X5.5417Y-3.224
X5.7917Y-3.124
X3.672Y-2.4717
X3.922Y-2.3717
X4.0374Y-3.2236
X4.2874Y-3.1236
X9.2906Y-3.2232
X9.5406Y-3.1232
X2.1752Y-2.472
X2.4252Y-2.372
X3.1102Y-4.7157
X3.3602Y-4.6157
X5.1232Y-1.5228
X5.3732Y-1.4228
X6.2937Y-3.2232
X6.5437Y-3.1232
X4.3783Y-1.5205
X4.6283Y-1.4205
X13.6094Y-4.7165
X13.8594Y-4.6165
X4.4173Y-2.472
X4.6673Y-2.372
X13.6087Y-5.463
X13.8587Y-5.363
X10.4043Y-1.5449
X10.6543Y-1.4449
X14.3642Y-3.2287
X14.6142Y-3.1287
X7.9717Y-3.9689
X8.2217Y-3.8689
X7.0398Y-3.2236
X7.2898Y-3.1236
X11.8303Y-5.4665
X12.0803Y-5.3665
X12.8614Y-5.4626
X13.1114Y-5.3626
X8.9161Y-2.4709
X9.1661Y-2.3709
X7.7913Y-3.2236
X8.0413Y-3.1236
X12.8689Y-2.4807
X13.1189Y-2.3807
X7.6138Y-4.7138
X7.8638Y-4.6138
X11.4449Y-3.9748
X11.6949Y-3.8748
X8.3571Y-4.7138
X8.6071Y-4.6138
X8.511Y-1.5362
X8.761Y-1.4362
X3.3831Y-5.4575
X3.6331Y-5.3575
X9.6614Y-2.4713
X9.9114Y-2.3713
X11.2665Y-4.7165
X11.5165Y-4.6165
X7.0126Y-1.5323
X7.2626Y-1.4323
X6.8594Y-4.7154
X7.1094Y-4.6154
X7.7602Y-1.5323
X8.0102Y-1.4323
X1.5079Y-5.4594
X1.7579Y-5.3594
X2.9201Y-2.4717
X3.1701Y-2.3717
X11.5378Y-2.4685
X11.7878Y-2.3685
X12.8638Y-3.2228
X13.1138Y-3.1228
X9.0087Y-5.4618
X9.2587Y-5.3618
X1.4122Y-1.5185
X1.6622Y-1.4185
X13.6098Y-2.4799
X13.8598Y-2.3799
X4.2248Y-3.9685
X4.4748Y-3.8685
X7.2189Y-3.9693
X7.4689Y-3.8693
X11.7303Y-3.2252
X11.9803Y-3.1252
X2.4429Y-5.4594
X2.6929Y-5.3594
X13.6114Y-3.2236
X13.8614Y-3.1236
X5.7236Y-3.9697
X5.9736Y-3.8697
X1.7004Y-3.9673
X1.9504Y-3.8673
X10.7866Y-3.2236
X11.0366Y-3.1236
X7.4122Y-2.4724
X7.6622Y-2.3724
X6.6685Y-2.4717
X6.9185Y-2.3717
X2.7272Y-3.9697
X2.9772Y-3.8697
X9.652Y-1.5445
X9.902Y-1.4445
X3.2945Y-3.2236
X3.5445Y-3.1236
X9.1035Y-4.7169
X9.3535Y-4.6169
X6.4752Y-3.9697
X6.7252Y-3.8697
X3.4787Y-3.9693
X3.7287Y-3.8693
X9.4713Y-3.9685
X9.7213Y-3.8685
X14.363Y-1.5295
X14.613Y-1.4295
X6.2602Y-1.5311
X6.5102Y-1.4311
X10.8882Y-5.4665
X11.1382Y-5.3665
X3.8614Y-4.7165
X4.1114Y-4.6165
T2
G00X14.4479Y-4.5597
M15
G01X14.4479Y-4.5912
M16
G05
G00X14.4479Y-4.679
M15
G01X14.4479Y-4.7381
M16
G05
G00X14.7884Y-4.5597
M15
G01X14.7884Y-4.5912
M16
G05
G00X14.7884Y-4.679
M15
G01X14.7884Y-4.7381
M16
G05
T0
M30
