%FSLAX45Y45*%
G04 Gerber Fmt 4.5, Leading zero omitted, Abs format (unit mm)*
G04 Created by KiCad (PCBNEW 4.0.7) date Thu Sep  6 10:03:21 2018*
%MOMM*%
%LPD*%
G01*
G04 APERTURE LIST*
%ADD10C,0.127000*%
%ADD11C,0.150000*%
%ADD12C,0.200000*%
%ADD13C,0.300000*%
G04 APERTURE END LIST*
D10*
D11*
X36425000Y-11550000D02*
X37680000Y-11550000D01*
X36425000Y-10344000D02*
X36435000Y-9451000D01*
X36425000Y-11550000D02*
X36425000Y-10345000D01*
X36435000Y-9450000D02*
X36435000Y-8680000D01*
X2895000Y-2800000D02*
X2887000Y-2855000D01*
X2915000Y-2750000D02*
X2895000Y-2800000D01*
X2947000Y-2697000D02*
X2915000Y-2750000D01*
X2992000Y-2643000D02*
X2947000Y-2698000D01*
X3044000Y-2597000D02*
X2992000Y-2643000D01*
X3100000Y-2560000D02*
X3044000Y-2597000D01*
X3150000Y-2530000D02*
X3100000Y-2560000D01*
X3200000Y-2510000D02*
X3150000Y-2530000D01*
X3250000Y-2495000D02*
X3200000Y-2510000D01*
X3340000Y-2475000D02*
X3250000Y-2495000D01*
X3445000Y-2465000D02*
X3340000Y-2475000D01*
X3550000Y-2460000D02*
X3445000Y-2465000D01*
X37105000Y-2485000D02*
X3550000Y-2460000D01*
X37260000Y-2490000D02*
X37105000Y-2485000D01*
X37360000Y-2505000D02*
X37260000Y-2490000D01*
X37420000Y-2530000D02*
X37360000Y-2505000D01*
X37485000Y-2580000D02*
X37420000Y-2530000D01*
X37530000Y-2635000D02*
X37485000Y-2580000D01*
X37555000Y-2675000D02*
X37530000Y-2635000D01*
X37595000Y-2770000D02*
X37555000Y-2675000D01*
X37620000Y-2835000D02*
X37595000Y-2770000D01*
X37650000Y-2905000D02*
X37620000Y-2835000D01*
X37670000Y-2975000D02*
X37650000Y-2905000D01*
X37680000Y-3050000D02*
X37670000Y-2975000D01*
X37700000Y-8345000D02*
X37680000Y-3050000D01*
X37505000Y-8680000D02*
X37700000Y-8345000D01*
X36435000Y-8680000D02*
X37505000Y-8680000D01*
X37675000Y-13550000D02*
X37680000Y-11550000D01*
X37665000Y-13730000D02*
X37675000Y-13550000D01*
X37645000Y-13865000D02*
X37665000Y-13730000D01*
X37625000Y-13955000D02*
X37645000Y-13865000D01*
X37600000Y-14015000D02*
X37625000Y-13955000D01*
X37570000Y-14065000D02*
X37600000Y-14015000D01*
X37530000Y-14115000D02*
X37570000Y-14065000D01*
X37485000Y-14155000D02*
X37530000Y-14115000D01*
X37435000Y-14190000D02*
X37485000Y-14155000D01*
X37400000Y-14210000D02*
X37435000Y-14190000D01*
X37345000Y-14225000D02*
X37400000Y-14210000D01*
X3290000Y-14225000D02*
X37345000Y-14225000D01*
X3215000Y-14205000D02*
X3290000Y-14225000D01*
X3170000Y-14182000D02*
X3215000Y-14205000D01*
X3120000Y-14155000D02*
X3169000Y-14182000D01*
X3080000Y-14115000D02*
X3120000Y-14155000D01*
X3040000Y-14060000D02*
X3080000Y-14115000D01*
X3010000Y-14015000D02*
X3040000Y-14060000D01*
X2995000Y-13949000D02*
X3010000Y-14015000D01*
X3000000Y-12260000D02*
X2995000Y-13950000D01*
X3580000Y-12260000D02*
X3000000Y-12260000D01*
X3580000Y-8660000D02*
X3580000Y-12260000D01*
X2890000Y-8655000D02*
X3580000Y-8660000D01*
X2887000Y-2855000D02*
X2890000Y-8655000D01*
D12*
X3852000Y-9302000D02*
X3892000Y-9342000D01*
X3892000Y-9302000D02*
X3852000Y-9342000D01*
X5046000Y-9258000D02*
X5086000Y-9298000D01*
X5086000Y-9258000D02*
X5046000Y-9298000D01*
X6625000Y-4977000D02*
X6665000Y-5017000D01*
X6665000Y-4977000D02*
X6625000Y-5017000D01*
X14449000Y-10625000D02*
X14489000Y-10665000D01*
X14489000Y-10625000D02*
X14449000Y-10665000D01*
X14895000Y-9300000D02*
X14935000Y-9340000D01*
X14935000Y-9300000D02*
X14895000Y-9340000D01*
X15600000Y-4619000D02*
X15640000Y-4659000D01*
X15640000Y-4619000D02*
X15600000Y-4659000D01*
X24410000Y-12935000D02*
X24450000Y-12975000D01*
X24450000Y-12935000D02*
X24410000Y-12975000D01*
X30665000Y-6614000D02*
X30705000Y-6654000D01*
X30705000Y-6614000D02*
X30665000Y-6654000D01*
X30846000Y-9684000D02*
X30886000Y-9724000D01*
X30886000Y-9684000D02*
X30846000Y-9724000D01*
X30869000Y-9237000D02*
X30909000Y-9277000D01*
X30909000Y-9237000D02*
X30869000Y-9277000D01*
X30877000Y-8500000D02*
X30917000Y-8540000D01*
X30917000Y-8500000D02*
X30877000Y-8540000D01*
X30918000Y-10811000D02*
X30958000Y-10851000D01*
X30958000Y-10811000D02*
X30918000Y-10851000D01*
X31516000Y-10326000D02*
X31556000Y-10366000D01*
X31556000Y-10326000D02*
X31516000Y-10366000D01*
X31595000Y-9681000D02*
X31635000Y-9721000D01*
X31635000Y-9681000D02*
X31595000Y-9721000D01*
X31627000Y-11026000D02*
X31667000Y-11066000D01*
X31667000Y-11026000D02*
X31627000Y-11066000D01*
X31855000Y-10577000D02*
X31895000Y-10617000D01*
X31895000Y-10577000D02*
X31855000Y-10617000D01*
X31874000Y-10032000D02*
X31914000Y-10072000D01*
X31914000Y-10032000D02*
X31874000Y-10072000D01*
X32172000Y-10919000D02*
X32212000Y-10959000D01*
X32212000Y-10919000D02*
X32172000Y-10959000D01*
X32355000Y-6704000D02*
X32395000Y-6744000D01*
X32395000Y-6704000D02*
X32355000Y-6744000D01*
X32372000Y-8489000D02*
X32412000Y-8529000D01*
X32412000Y-8489000D02*
X32372000Y-8529000D01*
X32617000Y-9388000D02*
X32657000Y-9428000D01*
X32657000Y-9388000D02*
X32617000Y-9428000D01*
X32699135Y-10600768D02*
X32739135Y-10640768D01*
X32739135Y-10600768D02*
X32699135Y-10640768D01*
X32766000Y-9387000D02*
X32806000Y-9427000D01*
X32806000Y-9387000D02*
X32766000Y-9427000D01*
X32867000Y-10213000D02*
X32907000Y-10253000D01*
X32907000Y-10213000D02*
X32867000Y-10253000D01*
X32912000Y-11693000D02*
X32952000Y-11733000D01*
X32952000Y-11693000D02*
X32912000Y-11733000D01*
X32947000Y-9021000D02*
X32987000Y-9061000D01*
X32987000Y-9021000D02*
X32947000Y-9061000D01*
X32979129Y-10608954D02*
X33019129Y-10648954D01*
X33019129Y-10608954D02*
X32979129Y-10648954D01*
X33016000Y-10118000D02*
X33056000Y-10158000D01*
X33056000Y-10118000D02*
X33016000Y-10158000D01*
X33084000Y-9235000D02*
X33124000Y-9275000D01*
X33124000Y-9235000D02*
X33084000Y-9275000D01*
X33087522Y-10590216D02*
X33127522Y-10630216D01*
X33127522Y-10590216D02*
X33087522Y-10630216D01*
X33088000Y-8495000D02*
X33128000Y-8535000D01*
X33128000Y-8495000D02*
X33088000Y-8535000D01*
X33181000Y-10660000D02*
X33221000Y-10700000D01*
X33221000Y-10660000D02*
X33181000Y-10700000D01*
X33184339Y-10538000D02*
X33224339Y-10578000D01*
X33224339Y-10538000D02*
X33184339Y-10578000D01*
X33250500Y-8270000D02*
X33290500Y-8310000D01*
X33290500Y-8270000D02*
X33250500Y-8310000D01*
X33337000Y-10093000D02*
X33377000Y-10133000D01*
X33377000Y-10093000D02*
X33337000Y-10133000D01*
X33344000Y-9828000D02*
X33384000Y-9868000D01*
X33384000Y-9828000D02*
X33344000Y-9868000D01*
X33414340Y-10662000D02*
X33454340Y-10702000D01*
X33454340Y-10662000D02*
X33414340Y-10702000D01*
X33433000Y-10197000D02*
X33473000Y-10237000D01*
X33473000Y-10197000D02*
X33433000Y-10237000D01*
X33486000Y-12356000D02*
X33526000Y-12396000D01*
X33526000Y-12356000D02*
X33486000Y-12396000D01*
X33489000Y-9827000D02*
X33529000Y-9867000D01*
X33529000Y-9827000D02*
X33489000Y-9867000D01*
X33561000Y-8677000D02*
X33601000Y-8717000D01*
X33601000Y-8677000D02*
X33561000Y-8717000D01*
X33592000Y-9040000D02*
X33632000Y-9080000D01*
X33632000Y-9040000D02*
X33592000Y-9080000D01*
X33658000Y-9658000D02*
X33698000Y-9698000D01*
X33698000Y-9658000D02*
X33658000Y-9698000D01*
X33685000Y-9955000D02*
X33725000Y-9995000D01*
X33725000Y-9955000D02*
X33685000Y-9995000D01*
X33740000Y-11712000D02*
X33780000Y-11752000D01*
X33780000Y-11712000D02*
X33740000Y-11752000D01*
X33742000Y-8384000D02*
X33782000Y-8424000D01*
X33782000Y-8384000D02*
X33742000Y-8424000D01*
X33748000Y-8677000D02*
X33788000Y-8717000D01*
X33788000Y-8677000D02*
X33748000Y-8717000D01*
X33750000Y-9494000D02*
X33790000Y-9534000D01*
X33790000Y-9494000D02*
X33750000Y-9534000D01*
X33775000Y-11365000D02*
X33815000Y-11405000D01*
X33815000Y-11365000D02*
X33775000Y-11405000D01*
X33848074Y-10139000D02*
X33888074Y-10179000D01*
X33888074Y-10139000D02*
X33848074Y-10179000D01*
X33926000Y-8859000D02*
X33966000Y-8899000D01*
X33966000Y-8859000D02*
X33926000Y-8899000D01*
X33927000Y-13350000D02*
X33967000Y-13390000D01*
X33967000Y-13350000D02*
X33927000Y-13390000D01*
X33963000Y-3112000D02*
X34003000Y-3152000D01*
X34003000Y-3112000D02*
X33963000Y-3152000D01*
X34102000Y-11950000D02*
X34142000Y-11990000D01*
X34142000Y-11950000D02*
X34102000Y-11990000D01*
X34104000Y-7917000D02*
X34144000Y-7957000D01*
X34144000Y-7917000D02*
X34104000Y-7957000D01*
X34158000Y-10141000D02*
X34198000Y-10181000D01*
X34198000Y-10141000D02*
X34158000Y-10181000D01*
X34305000Y-9645000D02*
X34345000Y-9685000D01*
X34345000Y-9645000D02*
X34305000Y-9685000D01*
X34369000Y-8350000D02*
X34409000Y-8390000D01*
X34409000Y-8350000D02*
X34369000Y-8390000D01*
X34405000Y-6588000D02*
X34445000Y-6628000D01*
X34445000Y-6588000D02*
X34405000Y-6628000D01*
X34540000Y-9940000D02*
X34580000Y-9980000D01*
X34580000Y-9940000D02*
X34540000Y-9980000D01*
X34558000Y-8482000D02*
X34598000Y-8522000D01*
X34598000Y-8482000D02*
X34558000Y-8522000D01*
X34608000Y-8834000D02*
X34648000Y-8874000D01*
X34648000Y-8834000D02*
X34608000Y-8874000D01*
X35141000Y-5501000D02*
X35181000Y-5541000D01*
X35181000Y-5501000D02*
X35141000Y-5541000D01*
X35151000Y-9259000D02*
X35191000Y-9299000D01*
X35191000Y-9259000D02*
X35151000Y-9299000D01*
X35265000Y-10100000D02*
X35305000Y-10140000D01*
X35305000Y-10100000D02*
X35265000Y-10140000D01*
X35407000Y-6588000D02*
X35447000Y-6628000D01*
X35447000Y-6588000D02*
X35407000Y-6628000D01*
X35530000Y-8488000D02*
X35570000Y-8528000D01*
X35570000Y-8488000D02*
X35530000Y-8528000D01*
X35591231Y-9785769D02*
X35631231Y-9825769D01*
X35631231Y-9785769D02*
X35591231Y-9825769D01*
X35770000Y-8728000D02*
X35810000Y-8768000D01*
X35810000Y-8728000D02*
X35770000Y-8768000D01*
X35930000Y-8725000D02*
X35970000Y-8765000D01*
X35970000Y-8725000D02*
X35930000Y-8765000D01*
X36070000Y-8775000D02*
X36110000Y-8815000D01*
X36110000Y-8775000D02*
X36070000Y-8815000D01*
X36445000Y-6570000D02*
X36485000Y-6610000D01*
X36485000Y-6570000D02*
X36445000Y-6610000D01*
X36705000Y-11695000D02*
G75*
G03X36705000Y-11695000I-30000J0D01*
G01*
X36695000Y-11730000D02*
X36695000Y-11660000D01*
X36655000Y-11730000D02*
X36655000Y-11660000D01*
X36695000Y-11660000D02*
G75*
G03X36655000Y-11660000I-20000J0D01*
G01*
X36655000Y-11730000D02*
G75*
G03X36695000Y-11730000I20000J0D01*
G01*
X37405000Y-11695000D02*
G75*
G03X37405000Y-11695000I-30000J0D01*
G01*
X37355000Y-11660000D02*
X37355000Y-11730000D01*
X37395000Y-11660000D02*
X37395000Y-11730000D01*
X37355000Y-11730000D02*
G75*
G03X37395000Y-11730000I20000J0D01*
G01*
X37395000Y-11660000D02*
G75*
G03X37355000Y-11660000I-20000J0D01*
G01*
X36775000Y-11922500D02*
X36775000Y-12007500D01*
X36732500Y-11965000D02*
X36817500Y-11965000D01*
X37275000Y-11922500D02*
X37275000Y-12007500D01*
X37232500Y-11965000D02*
X37317500Y-11965000D01*
X3748356Y-2877356D02*
X3748356Y-2806644D01*
X3677644Y-2806644D01*
X3677644Y-2877356D01*
X3748356Y-2877356D01*
X3778356Y-5297356D02*
X3778356Y-5226644D01*
X3707644Y-5226644D01*
X3707644Y-5297356D01*
X3778356Y-5297356D01*
X4002356Y-2877356D02*
X4002356Y-2806644D01*
X3931644Y-2806644D01*
X3931644Y-2877356D01*
X4002356Y-2877356D01*
X4008356Y-12872356D02*
X4008356Y-12801644D01*
X3937644Y-12801644D01*
X3937644Y-12872356D01*
X4008356Y-12872356D01*
X4032356Y-5297356D02*
X4032356Y-5226644D01*
X3961644Y-5226644D01*
X3961644Y-5297356D01*
X4032356Y-5297356D01*
X4262356Y-12872356D02*
X4262356Y-12801644D01*
X4191644Y-12801644D01*
X4191644Y-12872356D01*
X4262356Y-12872356D01*
X4268356Y-7207356D02*
X4268356Y-7136644D01*
X4197644Y-7136644D01*
X4197644Y-7207356D01*
X4268356Y-7207356D01*
X4493356Y-9082356D02*
X4493356Y-9011644D01*
X4422644Y-9011644D01*
X4422644Y-9082356D01*
X4493356Y-9082356D01*
X4522356Y-7207356D02*
X4522356Y-7136644D01*
X4451644Y-7136644D01*
X4451644Y-7207356D01*
X4522356Y-7207356D01*
X4747356Y-9082356D02*
X4747356Y-9011644D01*
X4676644Y-9011644D01*
X4676644Y-9082356D01*
X4747356Y-9082356D01*
X4973356Y-10937356D02*
X4973356Y-10866644D01*
X4902644Y-10866644D01*
X4902644Y-10937356D01*
X4973356Y-10937356D01*
X5227356Y-10937356D02*
X5227356Y-10866644D01*
X5156644Y-10866644D01*
X5156644Y-10937356D01*
X5227356Y-10937356D01*
X5688356Y-5297356D02*
X5688356Y-5226644D01*
X5617644Y-5226644D01*
X5617644Y-5297356D01*
X5688356Y-5297356D01*
X5942356Y-5297356D02*
X5942356Y-5226644D01*
X5871644Y-5226644D01*
X5871644Y-5297356D01*
X5942356Y-5297356D01*
X6378356Y-12872356D02*
X6378356Y-12801644D01*
X6307644Y-12801644D01*
X6307644Y-12872356D01*
X6378356Y-12872356D01*
X6632356Y-12872356D02*
X6632356Y-12801644D01*
X6561644Y-12801644D01*
X6561644Y-12872356D01*
X6632356Y-12872356D01*
X6633356Y-7207356D02*
X6633356Y-7136644D01*
X6562644Y-7136644D01*
X6562644Y-7207356D01*
X6633356Y-7207356D01*
X6887356Y-7207356D02*
X6887356Y-7136644D01*
X6816644Y-7136644D01*
X6816644Y-7207356D01*
X6887356Y-7207356D01*
X7088356Y-9102356D02*
X7088356Y-9031644D01*
X7017644Y-9031644D01*
X7017644Y-9102356D01*
X7088356Y-9102356D01*
X7342356Y-9102356D02*
X7342356Y-9031644D01*
X7271644Y-9031644D01*
X7271644Y-9102356D01*
X7342356Y-9102356D01*
X7473356Y-2887356D02*
X7473356Y-2816644D01*
X7402644Y-2816644D01*
X7402644Y-2887356D01*
X7473356Y-2887356D01*
X7578356Y-5297356D02*
X7578356Y-5226644D01*
X7507644Y-5226644D01*
X7507644Y-5297356D01*
X7578356Y-5297356D01*
X7727356Y-2887356D02*
X7727356Y-2816644D01*
X7656644Y-2816644D01*
X7656644Y-2887356D01*
X7727356Y-2887356D01*
X7832356Y-5297356D02*
X7832356Y-5226644D01*
X7761644Y-5226644D01*
X7761644Y-5297356D01*
X7832356Y-5297356D01*
X8063356Y-10997356D02*
X8063356Y-10926644D01*
X7992644Y-10926644D01*
X7992644Y-10997356D01*
X8063356Y-10997356D01*
X8317356Y-10997356D02*
X8317356Y-10926644D01*
X8246644Y-10926644D01*
X8246644Y-10997356D01*
X8317356Y-10997356D01*
X8528356Y-7207356D02*
X8528356Y-7136644D01*
X8457644Y-7136644D01*
X8457644Y-7207356D01*
X8528356Y-7207356D01*
X8753356Y-12882356D02*
X8753356Y-12811644D01*
X8682644Y-12811644D01*
X8682644Y-12882356D01*
X8753356Y-12882356D01*
X8782356Y-7207356D02*
X8782356Y-7136644D01*
X8711644Y-7136644D01*
X8711644Y-7207356D01*
X8782356Y-7207356D01*
X8998356Y-9102356D02*
X8998356Y-9031644D01*
X8927644Y-9031644D01*
X8927644Y-9102356D01*
X8998356Y-9102356D01*
X9007356Y-12882356D02*
X9007356Y-12811644D01*
X8936644Y-12811644D01*
X8936644Y-12882356D01*
X9007356Y-12882356D01*
X9252356Y-9102356D02*
X9252356Y-9031644D01*
X9181644Y-9031644D01*
X9181644Y-9102356D01*
X9252356Y-9102356D01*
X9378356Y-2887356D02*
X9378356Y-2816644D01*
X9307644Y-2816644D01*
X9307644Y-2887356D01*
X9378356Y-2887356D01*
X9488356Y-5297356D02*
X9488356Y-5226644D01*
X9417644Y-5226644D01*
X9417644Y-5297356D01*
X9488356Y-5297356D01*
X9632356Y-2887356D02*
X9632356Y-2816644D01*
X9561644Y-2816644D01*
X9561644Y-2887356D01*
X9632356Y-2887356D01*
X9742356Y-5297356D02*
X9742356Y-5226644D01*
X9671644Y-5226644D01*
X9671644Y-5297356D01*
X9742356Y-5297356D01*
X9968356Y-10997356D02*
X9968356Y-10926644D01*
X9897644Y-10926644D01*
X9897644Y-10997356D01*
X9968356Y-10997356D01*
X10222356Y-10997356D02*
X10222356Y-10926644D01*
X10151644Y-10926644D01*
X10151644Y-10997356D01*
X10222356Y-10997356D01*
X10418356Y-7207356D02*
X10418356Y-7136644D01*
X10347644Y-7136644D01*
X10347644Y-7207356D01*
X10418356Y-7207356D01*
X10672356Y-7207356D02*
X10672356Y-7136644D01*
X10601644Y-7136644D01*
X10601644Y-7207356D01*
X10672356Y-7207356D01*
X10893356Y-9102356D02*
X10893356Y-9031644D01*
X10822644Y-9031644D01*
X10822644Y-9102356D01*
X10893356Y-9102356D01*
X11147356Y-9102356D02*
X11147356Y-9031644D01*
X11076644Y-9031644D01*
X11076644Y-9102356D01*
X11147356Y-9102356D01*
X11283356Y-2882356D02*
X11283356Y-2811644D01*
X11212644Y-2811644D01*
X11212644Y-2882356D01*
X11283356Y-2882356D01*
X11383356Y-5297356D02*
X11383356Y-5226644D01*
X11312644Y-5226644D01*
X11312644Y-5297356D01*
X11383356Y-5297356D01*
X11537356Y-2882356D02*
X11537356Y-2811644D01*
X11466644Y-2811644D01*
X11466644Y-2882356D01*
X11537356Y-2882356D01*
X11637356Y-5297356D02*
X11637356Y-5226644D01*
X11566644Y-5226644D01*
X11566644Y-5297356D01*
X11637356Y-5297356D01*
X11878356Y-10997356D02*
X11878356Y-10926644D01*
X11807644Y-10926644D01*
X11807644Y-10997356D01*
X11878356Y-10997356D01*
X12132356Y-10997356D02*
X12132356Y-10926644D01*
X12061644Y-10926644D01*
X12061644Y-10997356D01*
X12132356Y-10997356D01*
X12328356Y-7207356D02*
X12328356Y-7136644D01*
X12257644Y-7136644D01*
X12257644Y-7207356D01*
X12328356Y-7207356D01*
X12582356Y-7207356D02*
X12582356Y-7136644D01*
X12511644Y-7136644D01*
X12511644Y-7207356D01*
X12582356Y-7207356D01*
X12788356Y-9102356D02*
X12788356Y-9031644D01*
X12717644Y-9031644D01*
X12717644Y-9102356D01*
X12788356Y-9102356D01*
X13042356Y-9102356D02*
X13042356Y-9031644D01*
X12971644Y-9031644D01*
X12971644Y-9102356D01*
X13042356Y-9102356D01*
X13173356Y-2887356D02*
X13173356Y-2816644D01*
X13102644Y-2816644D01*
X13102644Y-2887356D01*
X13173356Y-2887356D01*
X13278356Y-5297356D02*
X13278356Y-5226644D01*
X13207644Y-5226644D01*
X13207644Y-5297356D01*
X13278356Y-5297356D01*
X13427356Y-2887356D02*
X13427356Y-2816644D01*
X13356644Y-2816644D01*
X13356644Y-2887356D01*
X13427356Y-2887356D01*
X13532356Y-5297356D02*
X13532356Y-5226644D01*
X13461644Y-5226644D01*
X13461644Y-5297356D01*
X13532356Y-5297356D01*
X13783356Y-10997356D02*
X13783356Y-10926644D01*
X13712644Y-10926644D01*
X13712644Y-10997356D01*
X13783356Y-10997356D01*
X14037356Y-10997356D02*
X14037356Y-10926644D01*
X13966644Y-10926644D01*
X13966644Y-10997356D01*
X14037356Y-10997356D01*
X14238356Y-7207356D02*
X14238356Y-7136644D01*
X14167644Y-7136644D01*
X14167644Y-7207356D01*
X14238356Y-7207356D01*
X14492356Y-7207356D02*
X14492356Y-7136644D01*
X14421644Y-7136644D01*
X14421644Y-7207356D01*
X14492356Y-7207356D01*
X14698356Y-9102356D02*
X14698356Y-9031644D01*
X14627644Y-9031644D01*
X14627644Y-9102356D01*
X14698356Y-9102356D01*
X14952356Y-9102356D02*
X14952356Y-9031644D01*
X14881644Y-9031644D01*
X14881644Y-9102356D01*
X14952356Y-9102356D01*
X15188356Y-5297356D02*
X15188356Y-5226644D01*
X15117644Y-5226644D01*
X15117644Y-5297356D01*
X15188356Y-5297356D01*
X15442356Y-5297356D02*
X15442356Y-5226644D01*
X15371644Y-5226644D01*
X15371644Y-5297356D01*
X15442356Y-5297356D01*
X15678356Y-10997356D02*
X15678356Y-10926644D01*
X15607644Y-10926644D01*
X15607644Y-10997356D01*
X15678356Y-10997356D01*
X15903356Y-12852356D02*
X15903356Y-12781644D01*
X15832644Y-12781644D01*
X15832644Y-12852356D01*
X15903356Y-12852356D01*
X15932356Y-10997356D02*
X15932356Y-10926644D01*
X15861644Y-10926644D01*
X15861644Y-10997356D01*
X15932356Y-10997356D01*
X16063356Y-2907356D02*
X16063356Y-2836644D01*
X15992644Y-2836644D01*
X15992644Y-2907356D01*
X16063356Y-2907356D01*
X16148356Y-7207356D02*
X16148356Y-7136644D01*
X16077644Y-7136644D01*
X16077644Y-7207356D01*
X16148356Y-7207356D01*
X16157356Y-12852356D02*
X16157356Y-12781644D01*
X16086644Y-12781644D01*
X16086644Y-12852356D01*
X16157356Y-12852356D01*
X16317356Y-2907356D02*
X16317356Y-2836644D01*
X16246644Y-2836644D01*
X16246644Y-2907356D01*
X16317356Y-2907356D01*
X16402356Y-7207356D02*
X16402356Y-7136644D01*
X16331644Y-7136644D01*
X16331644Y-7207356D01*
X16402356Y-7207356D01*
X16608356Y-9102356D02*
X16608356Y-9031644D01*
X16537644Y-9031644D01*
X16537644Y-9102356D01*
X16608356Y-9102356D01*
X16862356Y-9102356D02*
X16862356Y-9031644D01*
X16791644Y-9031644D01*
X16791644Y-9102356D01*
X16862356Y-9102356D01*
X17098356Y-5297356D02*
X17098356Y-5226644D01*
X17027644Y-5226644D01*
X17027644Y-5297356D01*
X17098356Y-5297356D01*
X17352356Y-5297356D02*
X17352356Y-5226644D01*
X17281644Y-5226644D01*
X17281644Y-5297356D01*
X17352356Y-5297356D01*
X17583356Y-10997356D02*
X17583356Y-10926644D01*
X17512644Y-10926644D01*
X17512644Y-10997356D01*
X17583356Y-10997356D01*
X17837356Y-10997356D02*
X17837356Y-10926644D01*
X17766644Y-10926644D01*
X17766644Y-10997356D01*
X17837356Y-10997356D01*
X17973356Y-2912356D02*
X17973356Y-2841644D01*
X17902644Y-2841644D01*
X17902644Y-2912356D01*
X17973356Y-2912356D01*
X18043356Y-7207356D02*
X18043356Y-7136644D01*
X17972644Y-7136644D01*
X17972644Y-7207356D01*
X18043356Y-7207356D01*
X18227356Y-2912356D02*
X18227356Y-2841644D01*
X18156644Y-2841644D01*
X18156644Y-2912356D01*
X18227356Y-2912356D01*
X18297356Y-7207356D02*
X18297356Y-7136644D01*
X18226644Y-7136644D01*
X18226644Y-7207356D01*
X18297356Y-7207356D01*
X18498356Y-9102356D02*
X18498356Y-9031644D01*
X18427644Y-9031644D01*
X18427644Y-9102356D01*
X18498356Y-9102356D01*
X18752356Y-9102356D02*
X18752356Y-9031644D01*
X18681644Y-9031644D01*
X18681644Y-9102356D01*
X18752356Y-9102356D01*
X18988356Y-5297356D02*
X18988356Y-5226644D01*
X18917644Y-5226644D01*
X18917644Y-5297356D01*
X18988356Y-5297356D01*
X19242356Y-5297356D02*
X19242356Y-5226644D01*
X19171644Y-5226644D01*
X19171644Y-5297356D01*
X19242356Y-5297356D01*
X19498356Y-10992356D02*
X19498356Y-10921644D01*
X19427644Y-10921644D01*
X19427644Y-10992356D01*
X19498356Y-10992356D01*
X19752356Y-10992356D02*
X19752356Y-10921644D01*
X19681644Y-10921644D01*
X19681644Y-10992356D01*
X19752356Y-10992356D01*
X19873356Y-2912356D02*
X19873356Y-2841644D01*
X19802644Y-2841644D01*
X19802644Y-2912356D01*
X19873356Y-2912356D01*
X19953356Y-7207356D02*
X19953356Y-7136644D01*
X19882644Y-7136644D01*
X19882644Y-7207356D01*
X19953356Y-7207356D01*
X20127356Y-2912356D02*
X20127356Y-2841644D01*
X20056644Y-2841644D01*
X20056644Y-2912356D01*
X20127356Y-2912356D01*
X20207356Y-7207356D02*
X20207356Y-7136644D01*
X20136644Y-7136644D01*
X20136644Y-7207356D01*
X20207356Y-7207356D01*
X20408356Y-9102356D02*
X20408356Y-9031644D01*
X20337644Y-9031644D01*
X20337644Y-9102356D01*
X20408356Y-9102356D01*
X20662356Y-9102356D02*
X20662356Y-9031644D01*
X20591644Y-9031644D01*
X20591644Y-9102356D01*
X20662356Y-9102356D01*
X20898356Y-5297356D02*
X20898356Y-5226644D01*
X20827644Y-5226644D01*
X20827644Y-5297356D01*
X20898356Y-5297356D01*
X21152356Y-5297356D02*
X21152356Y-5226644D01*
X21081644Y-5226644D01*
X21081644Y-5297356D01*
X21152356Y-5297356D01*
X21388356Y-10992356D02*
X21388356Y-10921644D01*
X21317644Y-10921644D01*
X21317644Y-10992356D01*
X21388356Y-10992356D01*
X21642356Y-10992356D02*
X21642356Y-10921644D01*
X21571644Y-10921644D01*
X21571644Y-10992356D01*
X21642356Y-10992356D01*
X21778356Y-2922356D02*
X21778356Y-2851644D01*
X21707644Y-2851644D01*
X21707644Y-2922356D01*
X21778356Y-2922356D01*
X21848356Y-7207356D02*
X21848356Y-7136644D01*
X21777644Y-7136644D01*
X21777644Y-7207356D01*
X21848356Y-7207356D01*
X22032356Y-2922356D02*
X22032356Y-2851644D01*
X21961644Y-2851644D01*
X21961644Y-2922356D01*
X22032356Y-2922356D01*
X22102356Y-7207356D02*
X22102356Y-7136644D01*
X22031644Y-7136644D01*
X22031644Y-7207356D01*
X22102356Y-7207356D01*
X22303356Y-9102356D02*
X22303356Y-9031644D01*
X22232644Y-9031644D01*
X22232644Y-9102356D01*
X22303356Y-9102356D01*
X22557356Y-9102356D02*
X22557356Y-9031644D01*
X22486644Y-9031644D01*
X22486644Y-9102356D01*
X22557356Y-9102356D01*
X22808356Y-5297356D02*
X22808356Y-5226644D01*
X22737644Y-5226644D01*
X22737644Y-5297356D01*
X22808356Y-5297356D01*
X23043356Y-12892356D02*
X23043356Y-12821644D01*
X22972644Y-12821644D01*
X22972644Y-12892356D01*
X23043356Y-12892356D01*
X23062356Y-5297356D02*
X23062356Y-5226644D01*
X22991644Y-5226644D01*
X22991644Y-5297356D01*
X23062356Y-5297356D01*
X23297356Y-12892356D02*
X23297356Y-12821644D01*
X23226644Y-12821644D01*
X23226644Y-12892356D01*
X23297356Y-12892356D01*
X23298356Y-10992356D02*
X23298356Y-10921644D01*
X23227644Y-10921644D01*
X23227644Y-10992356D01*
X23298356Y-10992356D01*
X23552356Y-10992356D02*
X23552356Y-10921644D01*
X23481644Y-10921644D01*
X23481644Y-10992356D01*
X23552356Y-10992356D01*
X23758356Y-7207356D02*
X23758356Y-7136644D01*
X23687644Y-7136644D01*
X23687644Y-7207356D01*
X23758356Y-7207356D01*
X24012356Y-7207356D02*
X24012356Y-7136644D01*
X23941644Y-7136644D01*
X23941644Y-7207356D01*
X24012356Y-7207356D01*
X24213356Y-9102356D02*
X24213356Y-9031644D01*
X24142644Y-9031644D01*
X24142644Y-9102356D01*
X24213356Y-9102356D01*
X24467356Y-9102356D02*
X24467356Y-9031644D01*
X24396644Y-9031644D01*
X24396644Y-9102356D01*
X24467356Y-9102356D01*
X24678356Y-2942356D02*
X24678356Y-2871644D01*
X24607644Y-2871644D01*
X24607644Y-2942356D01*
X24678356Y-2942356D01*
X24703356Y-5297356D02*
X24703356Y-5226644D01*
X24632644Y-5226644D01*
X24632644Y-5297356D01*
X24703356Y-5297356D01*
X24932356Y-2942356D02*
X24932356Y-2871644D01*
X24861644Y-2871644D01*
X24861644Y-2942356D01*
X24932356Y-2942356D01*
X24957356Y-5297356D02*
X24957356Y-5226644D01*
X24886644Y-5226644D01*
X24886644Y-5297356D01*
X24957356Y-5297356D01*
X25208356Y-10992356D02*
X25208356Y-10921644D01*
X25137644Y-10921644D01*
X25137644Y-10992356D01*
X25208356Y-10992356D01*
X25418356Y-12902356D02*
X25418356Y-12831644D01*
X25347644Y-12831644D01*
X25347644Y-12902356D01*
X25418356Y-12902356D01*
X25462356Y-10992356D02*
X25462356Y-10921644D01*
X25391644Y-10921644D01*
X25391644Y-10992356D01*
X25462356Y-10992356D01*
X25668356Y-7207356D02*
X25668356Y-7136644D01*
X25597644Y-7136644D01*
X25597644Y-7207356D01*
X25668356Y-7207356D01*
X25672356Y-12902356D02*
X25672356Y-12831644D01*
X25601644Y-12831644D01*
X25601644Y-12902356D01*
X25672356Y-12902356D01*
X25922356Y-7207356D02*
X25922356Y-7136644D01*
X25851644Y-7136644D01*
X25851644Y-7207356D01*
X25922356Y-7207356D01*
X26123356Y-9102356D02*
X26123356Y-9031644D01*
X26052644Y-9031644D01*
X26052644Y-9102356D01*
X26123356Y-9102356D01*
X26377356Y-9102356D02*
X26377356Y-9031644D01*
X26306644Y-9031644D01*
X26306644Y-9102356D01*
X26377356Y-9102356D01*
X26588356Y-2942356D02*
X26588356Y-2871644D01*
X26517644Y-2871644D01*
X26517644Y-2942356D01*
X26588356Y-2942356D01*
X26598356Y-5297356D02*
X26598356Y-5226644D01*
X26527644Y-5226644D01*
X26527644Y-5297356D01*
X26598356Y-5297356D01*
X26842356Y-2942356D02*
X26842356Y-2871644D01*
X26771644Y-2871644D01*
X26771644Y-2942356D01*
X26842356Y-2942356D01*
X26852356Y-5297356D02*
X26852356Y-5226644D01*
X26781644Y-5226644D01*
X26781644Y-5297356D01*
X26852356Y-5297356D01*
X27558356Y-7207356D02*
X27558356Y-7136644D01*
X27487644Y-7136644D01*
X27487644Y-7207356D01*
X27558356Y-7207356D01*
X27778356Y-12892356D02*
X27778356Y-12821644D01*
X27707644Y-12821644D01*
X27707644Y-12892356D01*
X27778356Y-12892356D01*
X27812356Y-7207356D02*
X27812356Y-7136644D01*
X27741644Y-7136644D01*
X27741644Y-7207356D01*
X27812356Y-7207356D01*
X28032356Y-12892356D02*
X28032356Y-12821644D01*
X27961644Y-12821644D01*
X27961644Y-12892356D01*
X28032356Y-12892356D01*
X28478356Y-2942356D02*
X28478356Y-2871644D01*
X28407644Y-2871644D01*
X28407644Y-2942356D01*
X28478356Y-2942356D01*
X28732356Y-2942356D02*
X28732356Y-2871644D01*
X28661644Y-2871644D01*
X28661644Y-2942356D01*
X28732356Y-2942356D01*
X28753356Y-10947356D02*
X28753356Y-10876644D01*
X28682644Y-10876644D01*
X28682644Y-10947356D01*
X28753356Y-10947356D01*
X29007356Y-10947356D02*
X29007356Y-10876644D01*
X28936644Y-10876644D01*
X28936644Y-10947356D01*
X29007356Y-10947356D01*
X29208356Y-9052356D02*
X29208356Y-8981644D01*
X29137644Y-8981644D01*
X29137644Y-9052356D01*
X29208356Y-9052356D01*
X29462356Y-9052356D02*
X29462356Y-8981644D01*
X29391644Y-8981644D01*
X29391644Y-9052356D01*
X29462356Y-9052356D01*
X29468356Y-5262356D02*
X29468356Y-5191644D01*
X29397644Y-5191644D01*
X29397644Y-5262356D01*
X29468356Y-5262356D01*
X29722356Y-5262356D02*
X29722356Y-5191644D01*
X29651644Y-5191644D01*
X29651644Y-5262356D01*
X29722356Y-5262356D01*
X29928356Y-7207356D02*
X29928356Y-7136644D01*
X29857644Y-7136644D01*
X29857644Y-7207356D01*
X29928356Y-7207356D01*
X30173356Y-12892356D02*
X30173356Y-12821644D01*
X30102644Y-12821644D01*
X30102644Y-12892356D01*
X30173356Y-12892356D01*
X30182356Y-7207356D02*
X30182356Y-7136644D01*
X30111644Y-7136644D01*
X30111644Y-7207356D01*
X30182356Y-7207356D01*
X30383356Y-2942356D02*
X30383356Y-2871644D01*
X30312644Y-2871644D01*
X30312644Y-2942356D01*
X30383356Y-2942356D01*
X30427356Y-12892356D02*
X30427356Y-12821644D01*
X30356644Y-12821644D01*
X30356644Y-12892356D01*
X30427356Y-12892356D01*
X30637356Y-2942356D02*
X30637356Y-2871644D01*
X30566644Y-2871644D01*
X30566644Y-2942356D01*
X30637356Y-2942356D01*
X32828356Y-12892356D02*
X32828356Y-12821644D01*
X32757644Y-12821644D01*
X32757644Y-12892356D01*
X32828356Y-12892356D01*
X32838356Y-7207356D02*
X32838356Y-7136644D01*
X32767644Y-7136644D01*
X32767644Y-7207356D01*
X32838356Y-7207356D01*
X32848356Y-2907356D02*
X32848356Y-2836644D01*
X32777644Y-2836644D01*
X32777644Y-2907356D01*
X32848356Y-2907356D01*
X32848356Y-5322356D02*
X32848356Y-5251644D01*
X32777644Y-5251644D01*
X32777644Y-5322356D01*
X32848356Y-5322356D01*
X33082356Y-12892356D02*
X33082356Y-12821644D01*
X33011644Y-12821644D01*
X33011644Y-12892356D01*
X33082356Y-12892356D01*
X33092356Y-7207356D02*
X33092356Y-7136644D01*
X33021644Y-7136644D01*
X33021644Y-7207356D01*
X33092356Y-7207356D01*
X33102356Y-2907356D02*
X33102356Y-2836644D01*
X33031644Y-2836644D01*
X33031644Y-2907356D01*
X33102356Y-2907356D01*
X33102356Y-5322356D02*
X33102356Y-5251644D01*
X33031644Y-5251644D01*
X33031644Y-5322356D01*
X33102356Y-5322356D01*
X34728356Y-11002356D02*
X34728356Y-10931644D01*
X34657644Y-10931644D01*
X34657644Y-11002356D01*
X34728356Y-11002356D01*
X34728356Y-12892356D02*
X34728356Y-12821644D01*
X34657644Y-12821644D01*
X34657644Y-12892356D01*
X34728356Y-12892356D01*
X34733356Y-5322356D02*
X34733356Y-5251644D01*
X34662644Y-5251644D01*
X34662644Y-5322356D01*
X34733356Y-5322356D01*
X34733356Y-7207356D02*
X34733356Y-7136644D01*
X34662644Y-7136644D01*
X34662644Y-7207356D01*
X34733356Y-7207356D01*
X34748356Y-2907356D02*
X34748356Y-2836644D01*
X34677644Y-2836644D01*
X34677644Y-2907356D01*
X34748356Y-2907356D01*
X34796356Y-9642356D02*
X34796356Y-9571644D01*
X34725644Y-9571644D01*
X34725644Y-9642356D01*
X34796356Y-9642356D01*
X34796356Y-9896356D02*
X34796356Y-9825644D01*
X34725644Y-9825644D01*
X34725644Y-9896356D01*
X34796356Y-9896356D01*
X34796356Y-10150356D02*
X34796356Y-10079644D01*
X34725644Y-10079644D01*
X34725644Y-10150356D01*
X34796356Y-10150356D01*
X34982356Y-11002356D02*
X34982356Y-10931644D01*
X34911644Y-10931644D01*
X34911644Y-11002356D01*
X34982356Y-11002356D01*
X34982356Y-12892356D02*
X34982356Y-12821644D01*
X34911644Y-12821644D01*
X34911644Y-12892356D01*
X34982356Y-12892356D01*
X34987356Y-5322356D02*
X34987356Y-5251644D01*
X34916644Y-5251644D01*
X34916644Y-5322356D01*
X34987356Y-5322356D01*
X34987356Y-7207356D02*
X34987356Y-7136644D01*
X34916644Y-7136644D01*
X34916644Y-7207356D01*
X34987356Y-7207356D01*
X35002356Y-2907356D02*
X35002356Y-2836644D01*
X34931644Y-2836644D01*
X34931644Y-2907356D01*
X35002356Y-2907356D01*
X35050356Y-9642356D02*
X35050356Y-9571644D01*
X34979644Y-9571644D01*
X34979644Y-9642356D01*
X35050356Y-9642356D01*
X35050356Y-9896356D02*
X35050356Y-9825644D01*
X34979644Y-9825644D01*
X34979644Y-9896356D01*
X35050356Y-9896356D01*
X35050356Y-10150356D02*
X35050356Y-10079644D01*
X34979644Y-10079644D01*
X34979644Y-10150356D01*
X35050356Y-10150356D01*
X36643356Y-2907356D02*
X36643356Y-2836644D01*
X36572644Y-2836644D01*
X36572644Y-2907356D01*
X36643356Y-2907356D01*
X36643356Y-5322356D02*
X36643356Y-5251644D01*
X36572644Y-5251644D01*
X36572644Y-5322356D01*
X36643356Y-5322356D01*
X36643356Y-7217356D02*
X36643356Y-7146644D01*
X36572644Y-7146644D01*
X36572644Y-7217356D01*
X36643356Y-7217356D01*
X36643356Y-12892356D02*
X36643356Y-12821644D01*
X36572644Y-12821644D01*
X36572644Y-12892356D01*
X36643356Y-12892356D01*
X36897356Y-2907356D02*
X36897356Y-2836644D01*
X36826644Y-2836644D01*
X36826644Y-2907356D01*
X36897356Y-2907356D01*
X36897356Y-5322356D02*
X36897356Y-5251644D01*
X36826644Y-5251644D01*
X36826644Y-5322356D01*
X36897356Y-5322356D01*
X36897356Y-7217356D02*
X36897356Y-7146644D01*
X36826644Y-7146644D01*
X36826644Y-7217356D01*
X36897356Y-7217356D01*
X36897356Y-12892356D02*
X36897356Y-12821644D01*
X36826644Y-12821644D01*
X36826644Y-12892356D01*
X36897356Y-12892356D01*
X3588000Y-3904000D02*
X3663000Y-3829000D01*
X3588000Y-3754000D01*
X3513000Y-3829000D01*
X3588000Y-3904000D01*
X3525123Y-3795646D02*
X3521178Y-3853512D01*
X3654822Y-3804488D02*
X3650877Y-3862354D01*
X3521178Y-3853512D02*
G75*
G03X3650877Y-3862354I64850J-4421D01*
G01*
X3654822Y-3804488D02*
G75*
G03X3525123Y-3795646I-64850J4421D01*
G01*
X3618000Y-6324000D02*
X3693000Y-6249000D01*
X3618000Y-6174000D01*
X3543000Y-6249000D01*
X3618000Y-6324000D01*
X3555123Y-6215646D02*
X3551178Y-6273512D01*
X3684822Y-6224488D02*
X3680877Y-6282354D01*
X3551178Y-6273512D02*
G75*
G03X3680877Y-6282354I64850J-4421D01*
G01*
X3684822Y-6224488D02*
G75*
G03X3555123Y-6215646I-64850J4421D01*
G01*
X3848000Y-13899000D02*
X3923000Y-13824000D01*
X3848000Y-13749000D01*
X3773000Y-13824000D01*
X3848000Y-13899000D01*
X3785123Y-13790646D02*
X3781178Y-13848512D01*
X3914822Y-13799488D02*
X3910877Y-13857354D01*
X3781178Y-13848512D02*
G75*
G03X3910877Y-13857354I64850J-4421D01*
G01*
X3914822Y-13799488D02*
G75*
G03X3785123Y-13790646I-64849J4421D01*
G01*
X4108000Y-8234000D02*
X4183000Y-8159000D01*
X4108000Y-8084000D01*
X4033000Y-8159000D01*
X4108000Y-8234000D01*
X4045123Y-8125646D02*
X4041178Y-8183512D01*
X4174822Y-8134488D02*
X4170877Y-8192354D01*
X4041178Y-8183512D02*
G75*
G03X4170877Y-8192354I64850J-4421D01*
G01*
X4174822Y-8134488D02*
G75*
G03X4045123Y-8125646I-64850J4421D01*
G01*
X4180500Y-3752000D02*
X4255500Y-3677000D01*
X4180500Y-3602000D01*
X4105500Y-3677000D01*
X4180500Y-3752000D01*
X4164223Y-3572442D02*
X4083132Y-3718433D01*
X4277868Y-3635567D02*
X4196777Y-3781558D01*
X4083132Y-3718433D02*
G75*
G03X4196778Y-3781558I56823J-31562D01*
G01*
X4277868Y-3635567D02*
G75*
G03X4164222Y-3572442I-56823J31562D01*
G01*
X4210500Y-6172000D02*
X4285500Y-6097000D01*
X4210500Y-6022000D01*
X4135500Y-6097000D01*
X4210500Y-6172000D01*
X4194223Y-5992442D02*
X4113132Y-6138433D01*
X4307868Y-6055567D02*
X4226777Y-6201558D01*
X4113132Y-6138433D02*
G75*
G03X4226778Y-6201558I56823J-31562D01*
G01*
X4307868Y-6055567D02*
G75*
G03X4194222Y-5992442I-56823J31562D01*
G01*
X4333000Y-10109000D02*
X4408000Y-10034000D01*
X4333000Y-9959000D01*
X4258000Y-10034000D01*
X4333000Y-10109000D01*
X4270123Y-10000646D02*
X4266178Y-10058512D01*
X4399822Y-10009488D02*
X4395877Y-10067354D01*
X4266178Y-10058512D02*
G75*
G03X4395877Y-10067354I64850J-4421D01*
G01*
X4399822Y-10009488D02*
G75*
G03X4270123Y-10000646I-64850J4421D01*
G01*
X4440500Y-13747000D02*
X4515500Y-13672000D01*
X4440500Y-13597000D01*
X4365500Y-13672000D01*
X4440500Y-13747000D01*
X4424223Y-13567442D02*
X4343132Y-13713433D01*
X4537868Y-13630567D02*
X4456777Y-13776558D01*
X4343132Y-13713433D02*
G75*
G03X4456778Y-13776558I56823J-31562D01*
G01*
X4537868Y-13630567D02*
G75*
G03X4424223Y-13567442I-56823J31562D01*
G01*
X4700500Y-8082000D02*
X4775500Y-8007000D01*
X4700500Y-7932000D01*
X4625500Y-8007000D01*
X4700500Y-8082000D01*
X4684223Y-7902442D02*
X4603132Y-8048433D01*
X4797868Y-7965567D02*
X4716777Y-8111558D01*
X4603132Y-8048433D02*
G75*
G03X4716778Y-8111558I56823J-31562D01*
G01*
X4797868Y-7965567D02*
G75*
G03X4684223Y-7902442I-56823J31562D01*
G01*
X4813000Y-11964000D02*
X4888000Y-11889000D01*
X4813000Y-11814000D01*
X4738000Y-11889000D01*
X4813000Y-11964000D01*
X4750123Y-11855646D02*
X4746178Y-11913512D01*
X4879822Y-11864488D02*
X4875877Y-11922354D01*
X4746178Y-11913512D02*
G75*
G03X4875877Y-11922354I64850J-4421D01*
G01*
X4879822Y-11864488D02*
G75*
G03X4750123Y-11855646I-64850J4421D01*
G01*
X4925500Y-9957000D02*
X5000500Y-9882000D01*
X4925500Y-9807000D01*
X4850500Y-9882000D01*
X4925500Y-9957000D01*
X4909223Y-9777442D02*
X4828132Y-9923433D01*
X5022868Y-9840567D02*
X4941777Y-9986558D01*
X4828132Y-9923433D02*
G75*
G03X4941778Y-9986558I56823J-31562D01*
G01*
X5022868Y-9840567D02*
G75*
G03X4909223Y-9777442I-56823J31562D01*
G01*
X5405500Y-11812000D02*
X5480500Y-11737000D01*
X5405500Y-11662000D01*
X5330500Y-11737000D01*
X5405500Y-11812000D01*
X5389223Y-11632442D02*
X5308132Y-11778433D01*
X5502868Y-11695567D02*
X5421777Y-11841558D01*
X5308132Y-11778433D02*
G75*
G03X5421778Y-11841558I56823J-31562D01*
G01*
X5502868Y-11695567D02*
G75*
G03X5389223Y-11632442I-56823J31562D01*
G01*
X5528000Y-6324000D02*
X5603000Y-6249000D01*
X5528000Y-6174000D01*
X5453000Y-6249000D01*
X5528000Y-6324000D01*
X5465123Y-6215646D02*
X5461178Y-6273512D01*
X5594822Y-6224488D02*
X5590877Y-6282354D01*
X5461178Y-6273512D02*
G75*
G03X5590877Y-6282354I64850J-4421D01*
G01*
X5594822Y-6224488D02*
G75*
G03X5465123Y-6215646I-64850J4421D01*
G01*
X6120500Y-6172000D02*
X6195500Y-6097000D01*
X6120500Y-6022000D01*
X6045500Y-6097000D01*
X6120500Y-6172000D01*
X6104223Y-5992442D02*
X6023132Y-6138433D01*
X6217868Y-6055567D02*
X6136777Y-6201558D01*
X6023132Y-6138433D02*
G75*
G03X6136777Y-6201558I56823J-31562D01*
G01*
X6217868Y-6055567D02*
G75*
G03X6104222Y-5992442I-56823J31562D01*
G01*
X6218000Y-13899000D02*
X6293000Y-13824000D01*
X6218000Y-13749000D01*
X6143000Y-13824000D01*
X6218000Y-13899000D01*
X6155123Y-13790646D02*
X6151178Y-13848512D01*
X6284822Y-13799488D02*
X6280877Y-13857354D01*
X6151178Y-13848512D02*
G75*
G03X6280877Y-13857354I64850J-4421D01*
G01*
X6284822Y-13799488D02*
G75*
G03X6155123Y-13790646I-64850J4421D01*
G01*
X6473000Y-8234000D02*
X6548000Y-8159000D01*
X6473000Y-8084000D01*
X6398000Y-8159000D01*
X6473000Y-8234000D01*
X6410123Y-8125646D02*
X6406178Y-8183512D01*
X6539822Y-8134488D02*
X6535877Y-8192354D01*
X6406178Y-8183512D02*
G75*
G03X6535877Y-8192354I64850J-4421D01*
G01*
X6539822Y-8134488D02*
G75*
G03X6410123Y-8125646I-64850J4421D01*
G01*
X6810500Y-13747000D02*
X6885500Y-13672000D01*
X6810500Y-13597000D01*
X6735500Y-13672000D01*
X6810500Y-13747000D01*
X6794223Y-13567442D02*
X6713132Y-13713433D01*
X6907868Y-13630567D02*
X6826777Y-13776558D01*
X6713132Y-13713433D02*
G75*
G03X6826777Y-13776558I56823J-31562D01*
G01*
X6907868Y-13630567D02*
G75*
G03X6794222Y-13567442I-56823J31562D01*
G01*
X6928000Y-10129000D02*
X7003000Y-10054000D01*
X6928000Y-9979000D01*
X6853000Y-10054000D01*
X6928000Y-10129000D01*
X6865123Y-10020646D02*
X6861178Y-10078512D01*
X6994822Y-10029488D02*
X6990877Y-10087354D01*
X6861178Y-10078512D02*
G75*
G03X6990877Y-10087354I64850J-4421D01*
G01*
X6994822Y-10029488D02*
G75*
G03X6865123Y-10020646I-64850J4421D01*
G01*
X7065500Y-8082000D02*
X7140500Y-8007000D01*
X7065500Y-7932000D01*
X6990500Y-8007000D01*
X7065500Y-8082000D01*
X7049223Y-7902442D02*
X6968132Y-8048433D01*
X7162868Y-7965567D02*
X7081777Y-8111558D01*
X6968132Y-8048433D02*
G75*
G03X7081777Y-8111558I56823J-31562D01*
G01*
X7162868Y-7965567D02*
G75*
G03X7049222Y-7902442I-56823J31562D01*
G01*
X7313000Y-3914000D02*
X7388000Y-3839000D01*
X7313000Y-3764000D01*
X7238000Y-3839000D01*
X7313000Y-3914000D01*
X7250123Y-3805646D02*
X7246178Y-3863512D01*
X7379822Y-3814488D02*
X7375877Y-3872354D01*
X7246178Y-3863512D02*
G75*
G03X7375877Y-3872354I64850J-4421D01*
G01*
X7379822Y-3814488D02*
G75*
G03X7250123Y-3805646I-64850J4421D01*
G01*
X7418000Y-6324000D02*
X7493000Y-6249000D01*
X7418000Y-6174000D01*
X7343000Y-6249000D01*
X7418000Y-6324000D01*
X7355123Y-6215646D02*
X7351178Y-6273512D01*
X7484822Y-6224488D02*
X7480877Y-6282354D01*
X7351178Y-6273512D02*
G75*
G03X7480877Y-6282354I64850J-4421D01*
G01*
X7484822Y-6224488D02*
G75*
G03X7355123Y-6215646I-64850J4421D01*
G01*
X7520500Y-9977000D02*
X7595500Y-9902000D01*
X7520500Y-9827000D01*
X7445500Y-9902000D01*
X7520500Y-9977000D01*
X7504223Y-9797442D02*
X7423132Y-9943433D01*
X7617868Y-9860567D02*
X7536777Y-10006558D01*
X7423132Y-9943433D02*
G75*
G03X7536777Y-10006558I56823J-31562D01*
G01*
X7617868Y-9860567D02*
G75*
G03X7504222Y-9797442I-56823J31562D01*
G01*
X7903000Y-12024000D02*
X7978000Y-11949000D01*
X7903000Y-11874000D01*
X7828000Y-11949000D01*
X7903000Y-12024000D01*
X7840123Y-11915646D02*
X7836178Y-11973512D01*
X7969822Y-11924488D02*
X7965877Y-11982354D01*
X7836178Y-11973512D02*
G75*
G03X7965877Y-11982354I64850J-4421D01*
G01*
X7969822Y-11924488D02*
G75*
G03X7840123Y-11915646I-64850J4421D01*
G01*
X7905500Y-3762000D02*
X7980500Y-3687000D01*
X7905500Y-3612000D01*
X7830500Y-3687000D01*
X7905500Y-3762000D01*
X7889223Y-3582442D02*
X7808132Y-3728433D01*
X8002868Y-3645567D02*
X7921777Y-3791558D01*
X7808132Y-3728433D02*
G75*
G03X7921777Y-3791558I56823J-31562D01*
G01*
X8002868Y-3645567D02*
G75*
G03X7889222Y-3582442I-56823J31562D01*
G01*
X8010500Y-6172000D02*
X8085500Y-6097000D01*
X8010500Y-6022000D01*
X7935500Y-6097000D01*
X8010500Y-6172000D01*
X7994223Y-5992442D02*
X7913132Y-6138433D01*
X8107868Y-6055567D02*
X8026777Y-6201558D01*
X7913132Y-6138433D02*
G75*
G03X8026777Y-6201558I56823J-31562D01*
G01*
X8107868Y-6055567D02*
G75*
G03X7994222Y-5992442I-56823J31562D01*
G01*
X8368000Y-8234000D02*
X8443000Y-8159000D01*
X8368000Y-8084000D01*
X8293000Y-8159000D01*
X8368000Y-8234000D01*
X8305123Y-8125646D02*
X8301178Y-8183512D01*
X8434822Y-8134488D02*
X8430877Y-8192354D01*
X8301178Y-8183512D02*
G75*
G03X8430877Y-8192354I64850J-4421D01*
G01*
X8434822Y-8134488D02*
G75*
G03X8305123Y-8125646I-64849J4421D01*
G01*
X8495500Y-11872000D02*
X8570500Y-11797000D01*
X8495500Y-11722000D01*
X8420500Y-11797000D01*
X8495500Y-11872000D01*
X8479223Y-11692442D02*
X8398132Y-11838433D01*
X8592868Y-11755567D02*
X8511777Y-11901558D01*
X8398132Y-11838433D02*
G75*
G03X8511778Y-11901558I56823J-31562D01*
G01*
X8592868Y-11755567D02*
G75*
G03X8479223Y-11692442I-56823J31562D01*
G01*
X8593000Y-13909000D02*
X8668000Y-13834000D01*
X8593000Y-13759000D01*
X8518000Y-13834000D01*
X8593000Y-13909000D01*
X8530123Y-13800646D02*
X8526178Y-13858512D01*
X8659822Y-13809488D02*
X8655877Y-13867354D01*
X8526178Y-13858512D02*
G75*
G03X8655877Y-13867354I64850J-4421D01*
G01*
X8659822Y-13809488D02*
G75*
G03X8530123Y-13800646I-64850J4421D01*
G01*
X8838000Y-10129000D02*
X8913000Y-10054000D01*
X8838000Y-9979000D01*
X8763000Y-10054000D01*
X8838000Y-10129000D01*
X8775123Y-10020646D02*
X8771178Y-10078512D01*
X8904822Y-10029488D02*
X8900877Y-10087354D01*
X8771178Y-10078512D02*
G75*
G03X8900877Y-10087354I64850J-4421D01*
G01*
X8904822Y-10029488D02*
G75*
G03X8775123Y-10020646I-64850J4421D01*
G01*
X8960500Y-8082000D02*
X9035500Y-8007000D01*
X8960500Y-7932000D01*
X8885500Y-8007000D01*
X8960500Y-8082000D01*
X8944223Y-7902442D02*
X8863132Y-8048433D01*
X9057868Y-7965567D02*
X8976777Y-8111558D01*
X8863132Y-8048433D02*
G75*
G03X8976778Y-8111558I56823J-31562D01*
G01*
X9057868Y-7965567D02*
G75*
G03X8944223Y-7902442I-56823J31562D01*
G01*
X9185500Y-13757000D02*
X9260500Y-13682000D01*
X9185500Y-13607000D01*
X9110500Y-13682000D01*
X9185500Y-13757000D01*
X9169223Y-13577442D02*
X9088132Y-13723433D01*
X9282868Y-13640567D02*
X9201777Y-13786558D01*
X9088132Y-13723433D02*
G75*
G03X9201778Y-13786558I56823J-31562D01*
G01*
X9282868Y-13640567D02*
G75*
G03X9169223Y-13577442I-56823J31562D01*
G01*
X9218000Y-3914000D02*
X9293000Y-3839000D01*
X9218000Y-3764000D01*
X9143000Y-3839000D01*
X9218000Y-3914000D01*
X9155123Y-3805646D02*
X9151178Y-3863512D01*
X9284822Y-3814488D02*
X9280877Y-3872354D01*
X9151178Y-3863512D02*
G75*
G03X9280877Y-3872354I64850J-4421D01*
G01*
X9284822Y-3814488D02*
G75*
G03X9155123Y-3805646I-64850J4421D01*
G01*
X9328000Y-6324000D02*
X9403000Y-6249000D01*
X9328000Y-6174000D01*
X9253000Y-6249000D01*
X9328000Y-6324000D01*
X9265123Y-6215646D02*
X9261178Y-6273512D01*
X9394822Y-6224488D02*
X9390877Y-6282354D01*
X9261178Y-6273512D02*
G75*
G03X9390877Y-6282354I64850J-4421D01*
G01*
X9394822Y-6224488D02*
G75*
G03X9265123Y-6215646I-64850J4421D01*
G01*
X9430500Y-9977000D02*
X9505500Y-9902000D01*
X9430500Y-9827000D01*
X9355500Y-9902000D01*
X9430500Y-9977000D01*
X9414223Y-9797442D02*
X9333132Y-9943433D01*
X9527868Y-9860567D02*
X9446777Y-10006558D01*
X9333132Y-9943433D02*
G75*
G03X9446778Y-10006558I56823J-31562D01*
G01*
X9527868Y-9860567D02*
G75*
G03X9414223Y-9797442I-56823J31562D01*
G01*
X9808000Y-12024000D02*
X9883000Y-11949000D01*
X9808000Y-11874000D01*
X9733000Y-11949000D01*
X9808000Y-12024000D01*
X9745123Y-11915646D02*
X9741178Y-11973512D01*
X9874822Y-11924488D02*
X9870877Y-11982354D01*
X9741178Y-11973512D02*
G75*
G03X9870877Y-11982354I64850J-4421D01*
G01*
X9874822Y-11924488D02*
G75*
G03X9745123Y-11915646I-64850J4421D01*
G01*
X9810500Y-3762000D02*
X9885500Y-3687000D01*
X9810500Y-3612000D01*
X9735500Y-3687000D01*
X9810500Y-3762000D01*
X9794223Y-3582442D02*
X9713132Y-3728433D01*
X9907868Y-3645567D02*
X9826777Y-3791558D01*
X9713132Y-3728433D02*
G75*
G03X9826778Y-3791558I56823J-31562D01*
G01*
X9907868Y-3645567D02*
G75*
G03X9794223Y-3582442I-56823J31562D01*
G01*
X9920500Y-6172000D02*
X9995500Y-6097000D01*
X9920500Y-6022000D01*
X9845500Y-6097000D01*
X9920500Y-6172000D01*
X9904223Y-5992442D02*
X9823132Y-6138433D01*
X10017868Y-6055567D02*
X9936777Y-6201558D01*
X9823132Y-6138433D02*
G75*
G03X9936778Y-6201558I56823J-31562D01*
G01*
X10017868Y-6055567D02*
G75*
G03X9904223Y-5992442I-56823J31562D01*
G01*
X10258000Y-8234000D02*
X10333000Y-8159000D01*
X10258000Y-8084000D01*
X10183000Y-8159000D01*
X10258000Y-8234000D01*
X10195123Y-8125646D02*
X10191178Y-8183512D01*
X10324822Y-8134488D02*
X10320877Y-8192354D01*
X10191178Y-8183512D02*
G75*
G03X10320877Y-8192354I64850J-4421D01*
G01*
X10324822Y-8134488D02*
G75*
G03X10195123Y-8125646I-64850J4421D01*
G01*
X10400500Y-11872000D02*
X10475500Y-11797000D01*
X10400500Y-11722000D01*
X10325500Y-11797000D01*
X10400500Y-11872000D01*
X10384223Y-11692442D02*
X10303132Y-11838433D01*
X10497868Y-11755567D02*
X10416777Y-11901558D01*
X10303132Y-11838433D02*
G75*
G03X10416778Y-11901558I56823J-31562D01*
G01*
X10497868Y-11755567D02*
G75*
G03X10384223Y-11692442I-56823J31562D01*
G01*
X10733000Y-10129000D02*
X10808000Y-10054000D01*
X10733000Y-9979000D01*
X10658000Y-10054000D01*
X10733000Y-10129000D01*
X10670123Y-10020646D02*
X10666178Y-10078512D01*
X10799822Y-10029488D02*
X10795877Y-10087354D01*
X10666178Y-10078512D02*
G75*
G03X10795877Y-10087354I64850J-4421D01*
G01*
X10799822Y-10029488D02*
G75*
G03X10670123Y-10020646I-64850J4421D01*
G01*
X10850500Y-8082000D02*
X10925500Y-8007000D01*
X10850500Y-7932000D01*
X10775500Y-8007000D01*
X10850500Y-8082000D01*
X10834223Y-7902442D02*
X10753132Y-8048433D01*
X10947868Y-7965567D02*
X10866777Y-8111558D01*
X10753132Y-8048433D02*
G75*
G03X10866778Y-8111558I56823J-31562D01*
G01*
X10947868Y-7965567D02*
G75*
G03X10834223Y-7902442I-56823J31562D01*
G01*
X11123000Y-3909000D02*
X11198000Y-3834000D01*
X11123000Y-3759000D01*
X11048000Y-3834000D01*
X11123000Y-3909000D01*
X11060123Y-3800646D02*
X11056178Y-3858512D01*
X11189822Y-3809488D02*
X11185877Y-3867354D01*
X11056178Y-3858512D02*
G75*
G03X11185877Y-3867354I64850J-4421D01*
G01*
X11189822Y-3809488D02*
G75*
G03X11060123Y-3800646I-64850J4421D01*
G01*
X11223000Y-6324000D02*
X11298000Y-6249000D01*
X11223000Y-6174000D01*
X11148000Y-6249000D01*
X11223000Y-6324000D01*
X11160123Y-6215646D02*
X11156178Y-6273512D01*
X11289822Y-6224488D02*
X11285877Y-6282354D01*
X11156178Y-6273512D02*
G75*
G03X11285877Y-6282354I64850J-4421D01*
G01*
X11289822Y-6224488D02*
G75*
G03X11160123Y-6215646I-64850J4421D01*
G01*
X11325500Y-9977000D02*
X11400500Y-9902000D01*
X11325500Y-9827000D01*
X11250500Y-9902000D01*
X11325500Y-9977000D01*
X11309223Y-9797442D02*
X11228132Y-9943433D01*
X11422868Y-9860567D02*
X11341777Y-10006558D01*
X11228132Y-9943433D02*
G75*
G03X11341777Y-10006558I56823J-31562D01*
G01*
X11422868Y-9860567D02*
G75*
G03X11309222Y-9797442I-56823J31562D01*
G01*
X11715500Y-3757000D02*
X11790500Y-3682000D01*
X11715500Y-3607000D01*
X11640500Y-3682000D01*
X11715500Y-3757000D01*
X11699223Y-3577442D02*
X11618132Y-3723433D01*
X11812868Y-3640567D02*
X11731777Y-3786558D01*
X11618132Y-3723433D02*
G75*
G03X11731777Y-3786558I56823J-31562D01*
G01*
X11812868Y-3640567D02*
G75*
G03X11699222Y-3577442I-56823J31562D01*
G01*
X11718000Y-12024000D02*
X11793000Y-11949000D01*
X11718000Y-11874000D01*
X11643000Y-11949000D01*
X11718000Y-12024000D01*
X11655123Y-11915646D02*
X11651178Y-11973512D01*
X11784822Y-11924488D02*
X11780877Y-11982354D01*
X11651178Y-11973512D02*
G75*
G03X11780877Y-11982354I64850J-4421D01*
G01*
X11784822Y-11924488D02*
G75*
G03X11655123Y-11915646I-64850J4421D01*
G01*
X11815500Y-6172000D02*
X11890500Y-6097000D01*
X11815500Y-6022000D01*
X11740500Y-6097000D01*
X11815500Y-6172000D01*
X11799223Y-5992442D02*
X11718132Y-6138433D01*
X11912868Y-6055567D02*
X11831777Y-6201558D01*
X11718132Y-6138433D02*
G75*
G03X11831777Y-6201558I56823J-31562D01*
G01*
X11912868Y-6055567D02*
G75*
G03X11799222Y-5992442I-56823J31562D01*
G01*
X12168000Y-8234000D02*
X12243000Y-8159000D01*
X12168000Y-8084000D01*
X12093000Y-8159000D01*
X12168000Y-8234000D01*
X12105123Y-8125646D02*
X12101178Y-8183512D01*
X12234822Y-8134488D02*
X12230877Y-8192354D01*
X12101178Y-8183512D02*
G75*
G03X12230877Y-8192354I64850J-4421D01*
G01*
X12234822Y-8134488D02*
G75*
G03X12105123Y-8125646I-64850J4421D01*
G01*
X12310500Y-11872000D02*
X12385500Y-11797000D01*
X12310500Y-11722000D01*
X12235500Y-11797000D01*
X12310500Y-11872000D01*
X12294223Y-11692442D02*
X12213132Y-11838433D01*
X12407868Y-11755567D02*
X12326777Y-11901558D01*
X12213132Y-11838433D02*
G75*
G03X12326777Y-11901558I56823J-31562D01*
G01*
X12407868Y-11755567D02*
G75*
G03X12294222Y-11692442I-56823J31562D01*
G01*
X12628000Y-10129000D02*
X12703000Y-10054000D01*
X12628000Y-9979000D01*
X12553000Y-10054000D01*
X12628000Y-10129000D01*
X12565123Y-10020646D02*
X12561178Y-10078512D01*
X12694822Y-10029488D02*
X12690877Y-10087354D01*
X12561178Y-10078512D02*
G75*
G03X12690877Y-10087354I64850J-4421D01*
G01*
X12694822Y-10029488D02*
G75*
G03X12565123Y-10020646I-64850J4421D01*
G01*
X12760500Y-8082000D02*
X12835500Y-8007000D01*
X12760500Y-7932000D01*
X12685500Y-8007000D01*
X12760500Y-8082000D01*
X12744223Y-7902442D02*
X12663132Y-8048433D01*
X12857868Y-7965567D02*
X12776777Y-8111558D01*
X12663132Y-8048433D02*
G75*
G03X12776777Y-8111558I56823J-31562D01*
G01*
X12857868Y-7965567D02*
G75*
G03X12744222Y-7902442I-56823J31562D01*
G01*
X13013000Y-3914000D02*
X13088000Y-3839000D01*
X13013000Y-3764000D01*
X12938000Y-3839000D01*
X13013000Y-3914000D01*
X12950123Y-3805646D02*
X12946178Y-3863512D01*
X13079822Y-3814488D02*
X13075877Y-3872354D01*
X12946178Y-3863512D02*
G75*
G03X13075877Y-3872354I64850J-4421D01*
G01*
X13079822Y-3814488D02*
G75*
G03X12950123Y-3805646I-64850J4421D01*
G01*
X13118000Y-6324000D02*
X13193000Y-6249000D01*
X13118000Y-6174000D01*
X13043000Y-6249000D01*
X13118000Y-6324000D01*
X13055123Y-6215646D02*
X13051178Y-6273512D01*
X13184822Y-6224488D02*
X13180877Y-6282354D01*
X13051178Y-6273512D02*
G75*
G03X13180877Y-6282354I64850J-4421D01*
G01*
X13184822Y-6224488D02*
G75*
G03X13055123Y-6215646I-64850J4421D01*
G01*
X13220500Y-9977000D02*
X13295500Y-9902000D01*
X13220500Y-9827000D01*
X13145500Y-9902000D01*
X13220500Y-9977000D01*
X13204223Y-9797442D02*
X13123132Y-9943433D01*
X13317868Y-9860567D02*
X13236777Y-10006558D01*
X13123132Y-9943433D02*
G75*
G03X13236777Y-10006558I56823J-31562D01*
G01*
X13317868Y-9860567D02*
G75*
G03X13204222Y-9797442I-56823J31562D01*
G01*
X13605500Y-3762000D02*
X13680500Y-3687000D01*
X13605500Y-3612000D01*
X13530500Y-3687000D01*
X13605500Y-3762000D01*
X13589223Y-3582442D02*
X13508132Y-3728433D01*
X13702868Y-3645567D02*
X13621777Y-3791558D01*
X13508132Y-3728433D02*
G75*
G03X13621777Y-3791558I56823J-31562D01*
G01*
X13702868Y-3645567D02*
G75*
G03X13589222Y-3582442I-56823J31562D01*
G01*
X13623000Y-12024000D02*
X13698000Y-11949000D01*
X13623000Y-11874000D01*
X13548000Y-11949000D01*
X13623000Y-12024000D01*
X13560123Y-11915646D02*
X13556178Y-11973512D01*
X13689822Y-11924488D02*
X13685877Y-11982354D01*
X13556178Y-11973512D02*
G75*
G03X13685877Y-11982354I64850J-4421D01*
G01*
X13689822Y-11924488D02*
G75*
G03X13560123Y-11915646I-64850J4421D01*
G01*
X13710500Y-6172000D02*
X13785500Y-6097000D01*
X13710500Y-6022000D01*
X13635500Y-6097000D01*
X13710500Y-6172000D01*
X13694223Y-5992442D02*
X13613132Y-6138433D01*
X13807868Y-6055567D02*
X13726777Y-6201558D01*
X13613132Y-6138433D02*
G75*
G03X13726777Y-6201558I56823J-31562D01*
G01*
X13807868Y-6055567D02*
G75*
G03X13694222Y-5992442I-56823J31562D01*
G01*
X14078000Y-8234000D02*
X14153000Y-8159000D01*
X14078000Y-8084000D01*
X14003000Y-8159000D01*
X14078000Y-8234000D01*
X14015123Y-8125646D02*
X14011178Y-8183512D01*
X14144822Y-8134488D02*
X14140877Y-8192354D01*
X14011178Y-8183512D02*
G75*
G03X14140877Y-8192354I64850J-4421D01*
G01*
X14144822Y-8134488D02*
G75*
G03X14015123Y-8125646I-64850J4421D01*
G01*
X14215500Y-11872000D02*
X14290500Y-11797000D01*
X14215500Y-11722000D01*
X14140500Y-11797000D01*
X14215500Y-11872000D01*
X14199223Y-11692442D02*
X14118132Y-11838433D01*
X14312868Y-11755567D02*
X14231777Y-11901558D01*
X14118132Y-11838433D02*
G75*
G03X14231777Y-11901558I56823J-31562D01*
G01*
X14312868Y-11755567D02*
G75*
G03X14199222Y-11692442I-56823J31562D01*
G01*
X14538000Y-10129000D02*
X14613000Y-10054000D01*
X14538000Y-9979000D01*
X14463000Y-10054000D01*
X14538000Y-10129000D01*
X14475123Y-10020646D02*
X14471178Y-10078512D01*
X14604822Y-10029488D02*
X14600877Y-10087354D01*
X14471178Y-10078512D02*
G75*
G03X14600877Y-10087354I64850J-4421D01*
G01*
X14604822Y-10029488D02*
G75*
G03X14475123Y-10020646I-64850J4421D01*
G01*
X14670500Y-8082000D02*
X14745500Y-8007000D01*
X14670500Y-7932000D01*
X14595500Y-8007000D01*
X14670500Y-8082000D01*
X14654223Y-7902442D02*
X14573132Y-8048433D01*
X14767868Y-7965567D02*
X14686777Y-8111558D01*
X14573132Y-8048433D02*
G75*
G03X14686777Y-8111558I56823J-31562D01*
G01*
X14767868Y-7965567D02*
G75*
G03X14654222Y-7902442I-56823J31562D01*
G01*
X15028000Y-6324000D02*
X15103000Y-6249000D01*
X15028000Y-6174000D01*
X14953000Y-6249000D01*
X15028000Y-6324000D01*
X14965123Y-6215646D02*
X14961178Y-6273512D01*
X15094822Y-6224488D02*
X15090877Y-6282354D01*
X14961178Y-6273512D02*
G75*
G03X15090877Y-6282354I64850J-4421D01*
G01*
X15094822Y-6224488D02*
G75*
G03X14965123Y-6215646I-64850J4421D01*
G01*
X15130500Y-9977000D02*
X15205500Y-9902000D01*
X15130500Y-9827000D01*
X15055500Y-9902000D01*
X15130500Y-9977000D01*
X15114223Y-9797442D02*
X15033132Y-9943433D01*
X15227868Y-9860567D02*
X15146777Y-10006558D01*
X15033132Y-9943433D02*
G75*
G03X15146777Y-10006558I56823J-31562D01*
G01*
X15227868Y-9860567D02*
G75*
G03X15114222Y-9797442I-56823J31562D01*
G01*
X15518000Y-12024000D02*
X15593000Y-11949000D01*
X15518000Y-11874000D01*
X15443000Y-11949000D01*
X15518000Y-12024000D01*
X15455123Y-11915646D02*
X15451178Y-11973512D01*
X15584822Y-11924488D02*
X15580877Y-11982354D01*
X15451178Y-11973512D02*
G75*
G03X15580877Y-11982354I64850J-4421D01*
G01*
X15584822Y-11924488D02*
G75*
G03X15455123Y-11915646I-64850J4421D01*
G01*
X15620500Y-6172000D02*
X15695500Y-6097000D01*
X15620500Y-6022000D01*
X15545500Y-6097000D01*
X15620500Y-6172000D01*
X15604223Y-5992442D02*
X15523132Y-6138433D01*
X15717868Y-6055567D02*
X15636777Y-6201558D01*
X15523132Y-6138433D02*
G75*
G03X15636777Y-6201558I56823J-31562D01*
G01*
X15717868Y-6055567D02*
G75*
G03X15604222Y-5992442I-56823J31562D01*
G01*
X15743000Y-13879000D02*
X15818000Y-13804000D01*
X15743000Y-13729000D01*
X15668000Y-13804000D01*
X15743000Y-13879000D01*
X15680123Y-13770646D02*
X15676178Y-13828512D01*
X15809822Y-13779488D02*
X15805877Y-13837354D01*
X15676178Y-13828512D02*
G75*
G03X15805877Y-13837354I64850J-4421D01*
G01*
X15809822Y-13779488D02*
G75*
G03X15680123Y-13770646I-64850J4421D01*
G01*
X15903000Y-3934000D02*
X15978000Y-3859000D01*
X15903000Y-3784000D01*
X15828000Y-3859000D01*
X15903000Y-3934000D01*
X15840123Y-3825646D02*
X15836178Y-3883512D01*
X15969822Y-3834488D02*
X15965877Y-3892354D01*
X15836178Y-3883512D02*
G75*
G03X15965877Y-3892354I64850J-4421D01*
G01*
X15969822Y-3834488D02*
G75*
G03X15840123Y-3825646I-64850J4421D01*
G01*
X15988000Y-8234000D02*
X16063000Y-8159000D01*
X15988000Y-8084000D01*
X15913000Y-8159000D01*
X15988000Y-8234000D01*
X15925123Y-8125646D02*
X15921178Y-8183512D01*
X16054822Y-8134488D02*
X16050877Y-8192354D01*
X15921178Y-8183512D02*
G75*
G03X16050877Y-8192354I64850J-4421D01*
G01*
X16054822Y-8134488D02*
G75*
G03X15925123Y-8125646I-64850J4421D01*
G01*
X16110500Y-11872000D02*
X16185500Y-11797000D01*
X16110500Y-11722000D01*
X16035500Y-11797000D01*
X16110500Y-11872000D01*
X16094223Y-11692442D02*
X16013132Y-11838433D01*
X16207868Y-11755567D02*
X16126777Y-11901558D01*
X16013132Y-11838433D02*
G75*
G03X16126777Y-11901558I56823J-31562D01*
G01*
X16207868Y-11755567D02*
G75*
G03X16094222Y-11692442I-56823J31562D01*
G01*
X16335500Y-13727000D02*
X16410500Y-13652000D01*
X16335500Y-13577000D01*
X16260500Y-13652000D01*
X16335500Y-13727000D01*
X16319223Y-13547442D02*
X16238132Y-13693433D01*
X16432868Y-13610567D02*
X16351777Y-13756558D01*
X16238132Y-13693433D02*
G75*
G03X16351777Y-13756558I56823J-31562D01*
G01*
X16432868Y-13610567D02*
G75*
G03X16319222Y-13547442I-56823J31562D01*
G01*
X16448000Y-10129000D02*
X16523000Y-10054000D01*
X16448000Y-9979000D01*
X16373000Y-10054000D01*
X16448000Y-10129000D01*
X16385123Y-10020646D02*
X16381178Y-10078512D01*
X16514822Y-10029488D02*
X16510877Y-10087354D01*
X16381178Y-10078512D02*
G75*
G03X16510877Y-10087354I64850J-4421D01*
G01*
X16514822Y-10029488D02*
G75*
G03X16385123Y-10020646I-64850J4421D01*
G01*
X16495500Y-3782000D02*
X16570500Y-3707000D01*
X16495500Y-3632000D01*
X16420500Y-3707000D01*
X16495500Y-3782000D01*
X16479223Y-3602442D02*
X16398132Y-3748433D01*
X16592868Y-3665567D02*
X16511777Y-3811558D01*
X16398132Y-3748433D02*
G75*
G03X16511777Y-3811558I56823J-31562D01*
G01*
X16592868Y-3665567D02*
G75*
G03X16479222Y-3602442I-56823J31562D01*
G01*
X16580500Y-8082000D02*
X16655500Y-8007000D01*
X16580500Y-7932000D01*
X16505500Y-8007000D01*
X16580500Y-8082000D01*
X16564223Y-7902442D02*
X16483132Y-8048433D01*
X16677868Y-7965567D02*
X16596777Y-8111558D01*
X16483132Y-8048433D02*
G75*
G03X16596777Y-8111558I56823J-31562D01*
G01*
X16677868Y-7965567D02*
G75*
G03X16564222Y-7902442I-56823J31562D01*
G01*
X16938000Y-6324000D02*
X17013000Y-6249000D01*
X16938000Y-6174000D01*
X16863000Y-6249000D01*
X16938000Y-6324000D01*
X16875123Y-6215646D02*
X16871178Y-6273512D01*
X17004822Y-6224488D02*
X17000877Y-6282354D01*
X16871178Y-6273512D02*
G75*
G03X17000877Y-6282354I64850J-4421D01*
G01*
X17004822Y-6224488D02*
G75*
G03X16875123Y-6215646I-64850J4421D01*
G01*
X17040500Y-9977000D02*
X17115500Y-9902000D01*
X17040500Y-9827000D01*
X16965500Y-9902000D01*
X17040500Y-9977000D01*
X17024223Y-9797442D02*
X16943132Y-9943433D01*
X17137868Y-9860567D02*
X17056777Y-10006558D01*
X16943132Y-9943433D02*
G75*
G03X17056778Y-10006558I56823J-31562D01*
G01*
X17137868Y-9860567D02*
G75*
G03X17024223Y-9797442I-56823J31562D01*
G01*
X17423000Y-12024000D02*
X17498000Y-11949000D01*
X17423000Y-11874000D01*
X17348000Y-11949000D01*
X17423000Y-12024000D01*
X17360123Y-11915646D02*
X17356178Y-11973512D01*
X17489822Y-11924488D02*
X17485877Y-11982354D01*
X17356178Y-11973512D02*
G75*
G03X17485877Y-11982354I64850J-4421D01*
G01*
X17489822Y-11924488D02*
G75*
G03X17360123Y-11915646I-64850J4421D01*
G01*
X17530500Y-6172000D02*
X17605500Y-6097000D01*
X17530500Y-6022000D01*
X17455500Y-6097000D01*
X17530500Y-6172000D01*
X17514223Y-5992442D02*
X17433132Y-6138433D01*
X17627868Y-6055567D02*
X17546777Y-6201558D01*
X17433132Y-6138433D02*
G75*
G03X17546778Y-6201558I56823J-31562D01*
G01*
X17627868Y-6055567D02*
G75*
G03X17514223Y-5992442I-56823J31562D01*
G01*
X17813000Y-3939000D02*
X17888000Y-3864000D01*
X17813000Y-3789000D01*
X17738000Y-3864000D01*
X17813000Y-3939000D01*
X17750123Y-3830646D02*
X17746178Y-3888512D01*
X17879822Y-3839488D02*
X17875877Y-3897354D01*
X17746178Y-3888512D02*
G75*
G03X17875877Y-3897354I64850J-4421D01*
G01*
X17879822Y-3839488D02*
G75*
G03X17750123Y-3830646I-64850J4421D01*
G01*
X17883000Y-8234000D02*
X17958000Y-8159000D01*
X17883000Y-8084000D01*
X17808000Y-8159000D01*
X17883000Y-8234000D01*
X17820123Y-8125646D02*
X17816178Y-8183512D01*
X17949822Y-8134488D02*
X17945877Y-8192354D01*
X17816178Y-8183512D02*
G75*
G03X17945877Y-8192354I64850J-4421D01*
G01*
X17949822Y-8134488D02*
G75*
G03X17820123Y-8125646I-64850J4421D01*
G01*
X18015500Y-11872000D02*
X18090500Y-11797000D01*
X18015500Y-11722000D01*
X17940500Y-11797000D01*
X18015500Y-11872000D01*
X17999223Y-11692442D02*
X17918132Y-11838433D01*
X18112868Y-11755567D02*
X18031777Y-11901558D01*
X17918132Y-11838433D02*
G75*
G03X18031778Y-11901558I56823J-31562D01*
G01*
X18112868Y-11755567D02*
G75*
G03X17999223Y-11692442I-56823J31562D01*
G01*
X18338000Y-10129000D02*
X18413000Y-10054000D01*
X18338000Y-9979000D01*
X18263000Y-10054000D01*
X18338000Y-10129000D01*
X18275123Y-10020646D02*
X18271178Y-10078512D01*
X18404822Y-10029488D02*
X18400877Y-10087354D01*
X18271178Y-10078512D02*
G75*
G03X18400877Y-10087354I64850J-4421D01*
G01*
X18404822Y-10029488D02*
G75*
G03X18275123Y-10020646I-64850J4421D01*
G01*
X18405500Y-3787000D02*
X18480500Y-3712000D01*
X18405500Y-3637000D01*
X18330500Y-3712000D01*
X18405500Y-3787000D01*
X18389223Y-3607442D02*
X18308132Y-3753433D01*
X18502868Y-3670567D02*
X18421777Y-3816558D01*
X18308132Y-3753433D02*
G75*
G03X18421778Y-3816558I56823J-31562D01*
G01*
X18502868Y-3670567D02*
G75*
G03X18389223Y-3607442I-56823J31562D01*
G01*
X18475500Y-8082000D02*
X18550500Y-8007000D01*
X18475500Y-7932000D01*
X18400500Y-8007000D01*
X18475500Y-8082000D01*
X18459223Y-7902442D02*
X18378132Y-8048433D01*
X18572868Y-7965567D02*
X18491777Y-8111558D01*
X18378132Y-8048433D02*
G75*
G03X18491778Y-8111558I56823J-31562D01*
G01*
X18572868Y-7965567D02*
G75*
G03X18459223Y-7902442I-56823J31562D01*
G01*
X18828000Y-6324000D02*
X18903000Y-6249000D01*
X18828000Y-6174000D01*
X18753000Y-6249000D01*
X18828000Y-6324000D01*
X18765123Y-6215646D02*
X18761178Y-6273512D01*
X18894822Y-6224488D02*
X18890877Y-6282354D01*
X18761178Y-6273512D02*
G75*
G03X18890877Y-6282354I64850J-4421D01*
G01*
X18894822Y-6224488D02*
G75*
G03X18765123Y-6215646I-64850J4421D01*
G01*
X18930500Y-9977000D02*
X19005500Y-9902000D01*
X18930500Y-9827000D01*
X18855500Y-9902000D01*
X18930500Y-9977000D01*
X18914223Y-9797442D02*
X18833132Y-9943433D01*
X19027868Y-9860567D02*
X18946777Y-10006558D01*
X18833132Y-9943433D02*
G75*
G03X18946778Y-10006558I56823J-31562D01*
G01*
X19027868Y-9860567D02*
G75*
G03X18914223Y-9797442I-56823J31562D01*
G01*
X19338000Y-12019000D02*
X19413000Y-11944000D01*
X19338000Y-11869000D01*
X19263000Y-11944000D01*
X19338000Y-12019000D01*
X19275123Y-11910646D02*
X19271178Y-11968512D01*
X19404822Y-11919488D02*
X19400877Y-11977354D01*
X19271178Y-11968512D02*
G75*
G03X19400877Y-11977354I64850J-4421D01*
G01*
X19404822Y-11919488D02*
G75*
G03X19275123Y-11910646I-64850J4421D01*
G01*
X19420500Y-6172000D02*
X19495500Y-6097000D01*
X19420500Y-6022000D01*
X19345500Y-6097000D01*
X19420500Y-6172000D01*
X19404223Y-5992442D02*
X19323132Y-6138433D01*
X19517868Y-6055567D02*
X19436777Y-6201558D01*
X19323132Y-6138433D02*
G75*
G03X19436778Y-6201558I56823J-31562D01*
G01*
X19517868Y-6055567D02*
G75*
G03X19404223Y-5992442I-56823J31562D01*
G01*
X19713000Y-3939000D02*
X19788000Y-3864000D01*
X19713000Y-3789000D01*
X19638000Y-3864000D01*
X19713000Y-3939000D01*
X19650123Y-3830646D02*
X19646178Y-3888512D01*
X19779822Y-3839488D02*
X19775877Y-3897354D01*
X19646178Y-3888512D02*
G75*
G03X19775877Y-3897354I64850J-4421D01*
G01*
X19779822Y-3839488D02*
G75*
G03X19650123Y-3830646I-64850J4421D01*
G01*
X19793000Y-8234000D02*
X19868000Y-8159000D01*
X19793000Y-8084000D01*
X19718000Y-8159000D01*
X19793000Y-8234000D01*
X19730123Y-8125646D02*
X19726178Y-8183512D01*
X19859822Y-8134488D02*
X19855877Y-8192354D01*
X19726178Y-8183512D02*
G75*
G03X19855877Y-8192354I64850J-4421D01*
G01*
X19859822Y-8134488D02*
G75*
G03X19730123Y-8125646I-64850J4421D01*
G01*
X19930500Y-11867000D02*
X20005500Y-11792000D01*
X19930500Y-11717000D01*
X19855500Y-11792000D01*
X19930500Y-11867000D01*
X19914223Y-11687442D02*
X19833132Y-11833433D01*
X20027868Y-11750567D02*
X19946777Y-11896558D01*
X19833132Y-11833433D02*
G75*
G03X19946778Y-11896558I56823J-31562D01*
G01*
X20027868Y-11750567D02*
G75*
G03X19914223Y-11687442I-56823J31562D01*
G01*
X20248000Y-10129000D02*
X20323000Y-10054000D01*
X20248000Y-9979000D01*
X20173000Y-10054000D01*
X20248000Y-10129000D01*
X20185123Y-10020646D02*
X20181178Y-10078512D01*
X20314822Y-10029488D02*
X20310877Y-10087354D01*
X20181178Y-10078512D02*
G75*
G03X20310877Y-10087354I64850J-4421D01*
G01*
X20314822Y-10029488D02*
G75*
G03X20185123Y-10020646I-64850J4421D01*
G01*
X20305500Y-3787000D02*
X20380500Y-3712000D01*
X20305500Y-3637000D01*
X20230500Y-3712000D01*
X20305500Y-3787000D01*
X20289223Y-3607442D02*
X20208132Y-3753433D01*
X20402868Y-3670567D02*
X20321777Y-3816558D01*
X20208132Y-3753433D02*
G75*
G03X20321778Y-3816558I56823J-31562D01*
G01*
X20402868Y-3670567D02*
G75*
G03X20289223Y-3607442I-56823J31562D01*
G01*
X20385500Y-8082000D02*
X20460500Y-8007000D01*
X20385500Y-7932000D01*
X20310500Y-8007000D01*
X20385500Y-8082000D01*
X20369223Y-7902442D02*
X20288132Y-8048433D01*
X20482868Y-7965567D02*
X20401777Y-8111558D01*
X20288132Y-8048433D02*
G75*
G03X20401778Y-8111558I56823J-31562D01*
G01*
X20482868Y-7965567D02*
G75*
G03X20369223Y-7902442I-56823J31562D01*
G01*
X20738000Y-6324000D02*
X20813000Y-6249000D01*
X20738000Y-6174000D01*
X20663000Y-6249000D01*
X20738000Y-6324000D01*
X20675123Y-6215646D02*
X20671178Y-6273512D01*
X20804822Y-6224488D02*
X20800877Y-6282354D01*
X20671178Y-6273512D02*
G75*
G03X20800877Y-6282354I64850J-4421D01*
G01*
X20804822Y-6224488D02*
G75*
G03X20675123Y-6215646I-64850J4421D01*
G01*
X20840500Y-9977000D02*
X20915500Y-9902000D01*
X20840500Y-9827000D01*
X20765500Y-9902000D01*
X20840500Y-9977000D01*
X20824223Y-9797442D02*
X20743132Y-9943433D01*
X20937868Y-9860567D02*
X20856777Y-10006558D01*
X20743132Y-9943433D02*
G75*
G03X20856778Y-10006558I56823J-31562D01*
G01*
X20937868Y-9860567D02*
G75*
G03X20824223Y-9797442I-56823J31562D01*
G01*
X21228000Y-12019000D02*
X21303000Y-11944000D01*
X21228000Y-11869000D01*
X21153000Y-11944000D01*
X21228000Y-12019000D01*
X21165123Y-11910646D02*
X21161178Y-11968512D01*
X21294822Y-11919488D02*
X21290877Y-11977354D01*
X21161178Y-11968512D02*
G75*
G03X21290877Y-11977354I64850J-4421D01*
G01*
X21294822Y-11919488D02*
G75*
G03X21165123Y-11910646I-64850J4421D01*
G01*
X21330500Y-6172000D02*
X21405500Y-6097000D01*
X21330500Y-6022000D01*
X21255500Y-6097000D01*
X21330500Y-6172000D01*
X21314223Y-5992442D02*
X21233132Y-6138433D01*
X21427868Y-6055567D02*
X21346777Y-6201558D01*
X21233132Y-6138433D02*
G75*
G03X21346778Y-6201558I56823J-31562D01*
G01*
X21427868Y-6055567D02*
G75*
G03X21314223Y-5992442I-56823J31562D01*
G01*
X21618000Y-3949000D02*
X21693000Y-3874000D01*
X21618000Y-3799000D01*
X21543000Y-3874000D01*
X21618000Y-3949000D01*
X21555123Y-3840646D02*
X21551178Y-3898512D01*
X21684822Y-3849488D02*
X21680877Y-3907354D01*
X21551178Y-3898512D02*
G75*
G03X21680877Y-3907354I64850J-4421D01*
G01*
X21684822Y-3849488D02*
G75*
G03X21555123Y-3840646I-64850J4421D01*
G01*
X21688000Y-8234000D02*
X21763000Y-8159000D01*
X21688000Y-8084000D01*
X21613000Y-8159000D01*
X21688000Y-8234000D01*
X21625123Y-8125646D02*
X21621178Y-8183512D01*
X21754822Y-8134488D02*
X21750877Y-8192354D01*
X21621178Y-8183512D02*
G75*
G03X21750877Y-8192354I64850J-4421D01*
G01*
X21754822Y-8134488D02*
G75*
G03X21625123Y-8125646I-64850J4421D01*
G01*
X21820500Y-11867000D02*
X21895500Y-11792000D01*
X21820500Y-11717000D01*
X21745500Y-11792000D01*
X21820500Y-11867000D01*
X21804223Y-11687442D02*
X21723132Y-11833433D01*
X21917868Y-11750567D02*
X21836777Y-11896558D01*
X21723132Y-11833433D02*
G75*
G03X21836778Y-11896558I56823J-31562D01*
G01*
X21917868Y-11750567D02*
G75*
G03X21804223Y-11687442I-56823J31562D01*
G01*
X22143000Y-10129000D02*
X22218000Y-10054000D01*
X22143000Y-9979000D01*
X22068000Y-10054000D01*
X22143000Y-10129000D01*
X22080123Y-10020646D02*
X22076178Y-10078512D01*
X22209822Y-10029488D02*
X22205877Y-10087354D01*
X22076178Y-10078512D02*
G75*
G03X22205877Y-10087354I64850J-4421D01*
G01*
X22209822Y-10029488D02*
G75*
G03X22080123Y-10020646I-64850J4421D01*
G01*
X22210500Y-3797000D02*
X22285500Y-3722000D01*
X22210500Y-3647000D01*
X22135500Y-3722000D01*
X22210500Y-3797000D01*
X22194223Y-3617442D02*
X22113132Y-3763433D01*
X22307868Y-3680567D02*
X22226777Y-3826558D01*
X22113132Y-3763433D02*
G75*
G03X22226778Y-3826558I56823J-31562D01*
G01*
X22307868Y-3680567D02*
G75*
G03X22194223Y-3617442I-56823J31562D01*
G01*
X22280500Y-8082000D02*
X22355500Y-8007000D01*
X22280500Y-7932000D01*
X22205500Y-8007000D01*
X22280500Y-8082000D01*
X22264223Y-7902442D02*
X22183132Y-8048433D01*
X22377868Y-7965567D02*
X22296777Y-8111558D01*
X22183132Y-8048433D02*
G75*
G03X22296778Y-8111558I56823J-31562D01*
G01*
X22377868Y-7965567D02*
G75*
G03X22264223Y-7902442I-56823J31562D01*
G01*
X22648000Y-6324000D02*
X22723000Y-6249000D01*
X22648000Y-6174000D01*
X22573000Y-6249000D01*
X22648000Y-6324000D01*
X22585123Y-6215646D02*
X22581178Y-6273512D01*
X22714822Y-6224488D02*
X22710877Y-6282354D01*
X22581178Y-6273512D02*
G75*
G03X22710877Y-6282354I64850J-4421D01*
G01*
X22714822Y-6224488D02*
G75*
G03X22585123Y-6215646I-64850J4421D01*
G01*
X22735500Y-9977000D02*
X22810500Y-9902000D01*
X22735500Y-9827000D01*
X22660500Y-9902000D01*
X22735500Y-9977000D01*
X22719223Y-9797442D02*
X22638132Y-9943433D01*
X22832868Y-9860567D02*
X22751777Y-10006558D01*
X22638132Y-9943433D02*
G75*
G03X22751777Y-10006558I56823J-31562D01*
G01*
X22832868Y-9860567D02*
G75*
G03X22719222Y-9797442I-56823J31562D01*
G01*
X22883000Y-13919000D02*
X22958000Y-13844000D01*
X22883000Y-13769000D01*
X22808000Y-13844000D01*
X22883000Y-13919000D01*
X22820123Y-13810646D02*
X22816178Y-13868512D01*
X22949822Y-13819488D02*
X22945877Y-13877354D01*
X22816178Y-13868512D02*
G75*
G03X22945877Y-13877354I64850J-4421D01*
G01*
X22949822Y-13819488D02*
G75*
G03X22820123Y-13810646I-64850J4421D01*
G01*
X23138000Y-12019000D02*
X23213000Y-11944000D01*
X23138000Y-11869000D01*
X23063000Y-11944000D01*
X23138000Y-12019000D01*
X23075123Y-11910646D02*
X23071178Y-11968512D01*
X23204822Y-11919488D02*
X23200877Y-11977354D01*
X23071178Y-11968512D02*
G75*
G03X23200877Y-11977354I64850J-4421D01*
G01*
X23204822Y-11919488D02*
G75*
G03X23075123Y-11910646I-64850J4421D01*
G01*
X23240500Y-6172000D02*
X23315500Y-6097000D01*
X23240500Y-6022000D01*
X23165500Y-6097000D01*
X23240500Y-6172000D01*
X23224223Y-5992442D02*
X23143132Y-6138433D01*
X23337868Y-6055567D02*
X23256777Y-6201558D01*
X23143132Y-6138433D02*
G75*
G03X23256777Y-6201558I56823J-31562D01*
G01*
X23337868Y-6055567D02*
G75*
G03X23224222Y-5992442I-56823J31562D01*
G01*
X23475500Y-13767000D02*
X23550500Y-13692000D01*
X23475500Y-13617000D01*
X23400500Y-13692000D01*
X23475500Y-13767000D01*
X23459223Y-13587442D02*
X23378132Y-13733433D01*
X23572868Y-13650567D02*
X23491777Y-13796558D01*
X23378132Y-13733433D02*
G75*
G03X23491777Y-13796558I56823J-31562D01*
G01*
X23572868Y-13650567D02*
G75*
G03X23459222Y-13587442I-56823J31562D01*
G01*
X23598000Y-8234000D02*
X23673000Y-8159000D01*
X23598000Y-8084000D01*
X23523000Y-8159000D01*
X23598000Y-8234000D01*
X23535123Y-8125646D02*
X23531178Y-8183512D01*
X23664822Y-8134488D02*
X23660877Y-8192354D01*
X23531178Y-8183512D02*
G75*
G03X23660877Y-8192354I64850J-4421D01*
G01*
X23664822Y-8134488D02*
G75*
G03X23535123Y-8125646I-64850J4421D01*
G01*
X23730500Y-11867000D02*
X23805500Y-11792000D01*
X23730500Y-11717000D01*
X23655500Y-11792000D01*
X23730500Y-11867000D01*
X23714223Y-11687442D02*
X23633132Y-11833433D01*
X23827868Y-11750567D02*
X23746777Y-11896558D01*
X23633132Y-11833433D02*
G75*
G03X23746777Y-11896558I56823J-31562D01*
G01*
X23827868Y-11750567D02*
G75*
G03X23714222Y-11687442I-56823J31562D01*
G01*
X24053000Y-10129000D02*
X24128000Y-10054000D01*
X24053000Y-9979000D01*
X23978000Y-10054000D01*
X24053000Y-10129000D01*
X23990123Y-10020646D02*
X23986178Y-10078512D01*
X24119822Y-10029488D02*
X24115877Y-10087354D01*
X23986178Y-10078512D02*
G75*
G03X24115877Y-10087354I64850J-4421D01*
G01*
X24119822Y-10029488D02*
G75*
G03X23990123Y-10020646I-64850J4421D01*
G01*
X24190500Y-8082000D02*
X24265500Y-8007000D01*
X24190500Y-7932000D01*
X24115500Y-8007000D01*
X24190500Y-8082000D01*
X24174223Y-7902442D02*
X24093132Y-8048433D01*
X24287868Y-7965567D02*
X24206777Y-8111558D01*
X24093132Y-8048433D02*
G75*
G03X24206777Y-8111558I56823J-31562D01*
G01*
X24287868Y-7965567D02*
G75*
G03X24174222Y-7902442I-56823J31562D01*
G01*
X24518000Y-3969000D02*
X24593000Y-3894000D01*
X24518000Y-3819000D01*
X24443000Y-3894000D01*
X24518000Y-3969000D01*
X24455123Y-3860646D02*
X24451178Y-3918512D01*
X24584822Y-3869488D02*
X24580877Y-3927354D01*
X24451178Y-3918512D02*
G75*
G03X24580877Y-3927354I64850J-4421D01*
G01*
X24584822Y-3869488D02*
G75*
G03X24455123Y-3860646I-64850J4421D01*
G01*
X24543000Y-6324000D02*
X24618000Y-6249000D01*
X24543000Y-6174000D01*
X24468000Y-6249000D01*
X24543000Y-6324000D01*
X24480123Y-6215646D02*
X24476178Y-6273512D01*
X24609822Y-6224488D02*
X24605877Y-6282354D01*
X24476178Y-6273512D02*
G75*
G03X24605877Y-6282354I64850J-4421D01*
G01*
X24609822Y-6224488D02*
G75*
G03X24480123Y-6215646I-64850J4421D01*
G01*
X24645500Y-9977000D02*
X24720500Y-9902000D01*
X24645500Y-9827000D01*
X24570500Y-9902000D01*
X24645500Y-9977000D01*
X24629223Y-9797442D02*
X24548132Y-9943433D01*
X24742868Y-9860567D02*
X24661777Y-10006558D01*
X24548132Y-9943433D02*
G75*
G03X24661777Y-10006558I56823J-31562D01*
G01*
X24742868Y-9860567D02*
G75*
G03X24629222Y-9797442I-56823J31562D01*
G01*
X25048000Y-12019000D02*
X25123000Y-11944000D01*
X25048000Y-11869000D01*
X24973000Y-11944000D01*
X25048000Y-12019000D01*
X24985123Y-11910646D02*
X24981178Y-11968512D01*
X25114822Y-11919488D02*
X25110877Y-11977354D01*
X24981178Y-11968512D02*
G75*
G03X25110877Y-11977354I64850J-4421D01*
G01*
X25114822Y-11919488D02*
G75*
G03X24985123Y-11910646I-64850J4421D01*
G01*
X25110500Y-3817000D02*
X25185500Y-3742000D01*
X25110500Y-3667000D01*
X25035500Y-3742000D01*
X25110500Y-3817000D01*
X25094223Y-3637442D02*
X25013132Y-3783433D01*
X25207868Y-3700567D02*
X25126777Y-3846558D01*
X25013132Y-3783433D02*
G75*
G03X25126777Y-3846558I56823J-31562D01*
G01*
X25207868Y-3700567D02*
G75*
G03X25094222Y-3637442I-56823J31562D01*
G01*
X25135500Y-6172000D02*
X25210500Y-6097000D01*
X25135500Y-6022000D01*
X25060500Y-6097000D01*
X25135500Y-6172000D01*
X25119223Y-5992442D02*
X25038132Y-6138433D01*
X25232868Y-6055567D02*
X25151777Y-6201558D01*
X25038132Y-6138433D02*
G75*
G03X25151777Y-6201558I56823J-31562D01*
G01*
X25232868Y-6055567D02*
G75*
G03X25119222Y-5992442I-56823J31562D01*
G01*
X25258000Y-13929000D02*
X25333000Y-13854000D01*
X25258000Y-13779000D01*
X25183000Y-13854000D01*
X25258000Y-13929000D01*
X25195123Y-13820646D02*
X25191178Y-13878512D01*
X25324822Y-13829488D02*
X25320877Y-13887354D01*
X25191178Y-13878512D02*
G75*
G03X25320877Y-13887354I64850J-4421D01*
G01*
X25324822Y-13829488D02*
G75*
G03X25195123Y-13820646I-64850J4421D01*
G01*
X25508000Y-8234000D02*
X25583000Y-8159000D01*
X25508000Y-8084000D01*
X25433000Y-8159000D01*
X25508000Y-8234000D01*
X25445123Y-8125646D02*
X25441178Y-8183512D01*
X25574822Y-8134488D02*
X25570877Y-8192354D01*
X25441178Y-8183512D02*
G75*
G03X25570877Y-8192354I64850J-4421D01*
G01*
X25574822Y-8134488D02*
G75*
G03X25445123Y-8125646I-64850J4421D01*
G01*
X25640500Y-11867000D02*
X25715500Y-11792000D01*
X25640500Y-11717000D01*
X25565500Y-11792000D01*
X25640500Y-11867000D01*
X25624223Y-11687442D02*
X25543132Y-11833433D01*
X25737868Y-11750567D02*
X25656777Y-11896558D01*
X25543132Y-11833433D02*
G75*
G03X25656777Y-11896558I56823J-31562D01*
G01*
X25737868Y-11750567D02*
G75*
G03X25624222Y-11687442I-56823J31562D01*
G01*
X25850500Y-13777000D02*
X25925500Y-13702000D01*
X25850500Y-13627000D01*
X25775500Y-13702000D01*
X25850500Y-13777000D01*
X25834223Y-13597442D02*
X25753132Y-13743433D01*
X25947868Y-13660567D02*
X25866777Y-13806558D01*
X25753132Y-13743433D02*
G75*
G03X25866777Y-13806558I56823J-31562D01*
G01*
X25947868Y-13660567D02*
G75*
G03X25834222Y-13597442I-56823J31562D01*
G01*
X25963000Y-10129000D02*
X26038000Y-10054000D01*
X25963000Y-9979000D01*
X25888000Y-10054000D01*
X25963000Y-10129000D01*
X25900123Y-10020646D02*
X25896178Y-10078512D01*
X26029822Y-10029488D02*
X26025877Y-10087354D01*
X25896178Y-10078512D02*
G75*
G03X26025877Y-10087354I64850J-4421D01*
G01*
X26029822Y-10029488D02*
G75*
G03X25900123Y-10020646I-64850J4421D01*
G01*
X26100500Y-8082000D02*
X26175500Y-8007000D01*
X26100500Y-7932000D01*
X26025500Y-8007000D01*
X26100500Y-8082000D01*
X26084223Y-7902442D02*
X26003132Y-8048433D01*
X26197868Y-7965567D02*
X26116777Y-8111558D01*
X26003132Y-8048433D02*
G75*
G03X26116777Y-8111558I56823J-31562D01*
G01*
X26197868Y-7965567D02*
G75*
G03X26084222Y-7902442I-56823J31562D01*
G01*
X26428000Y-3969000D02*
X26503000Y-3894000D01*
X26428000Y-3819000D01*
X26353000Y-3894000D01*
X26428000Y-3969000D01*
X26365123Y-3860646D02*
X26361178Y-3918512D01*
X26494822Y-3869488D02*
X26490877Y-3927354D01*
X26361178Y-3918512D02*
G75*
G03X26490877Y-3927354I64850J-4421D01*
G01*
X26494822Y-3869488D02*
G75*
G03X26365123Y-3860646I-64850J4421D01*
G01*
X26438000Y-6324000D02*
X26513000Y-6249000D01*
X26438000Y-6174000D01*
X26363000Y-6249000D01*
X26438000Y-6324000D01*
X26375123Y-6215646D02*
X26371178Y-6273512D01*
X26504822Y-6224488D02*
X26500877Y-6282354D01*
X26371178Y-6273512D02*
G75*
G03X26500877Y-6282354I64850J-4421D01*
G01*
X26504822Y-6224488D02*
G75*
G03X26375123Y-6215646I-64850J4421D01*
G01*
X26555500Y-9977000D02*
X26630500Y-9902000D01*
X26555500Y-9827000D01*
X26480500Y-9902000D01*
X26555500Y-9977000D01*
X26539223Y-9797442D02*
X26458132Y-9943433D01*
X26652868Y-9860567D02*
X26571777Y-10006558D01*
X26458132Y-9943433D02*
G75*
G03X26571777Y-10006558I56823J-31562D01*
G01*
X26652868Y-9860567D02*
G75*
G03X26539222Y-9797442I-56823J31562D01*
G01*
X27020500Y-3817000D02*
X27095500Y-3742000D01*
X27020500Y-3667000D01*
X26945500Y-3742000D01*
X27020500Y-3817000D01*
X27004223Y-3637442D02*
X26923132Y-3783433D01*
X27117868Y-3700567D02*
X27036777Y-3846558D01*
X26923132Y-3783433D02*
G75*
G03X27036777Y-3846558I56823J-31562D01*
G01*
X27117868Y-3700567D02*
G75*
G03X27004222Y-3637442I-56823J31562D01*
G01*
X27030500Y-6172000D02*
X27105500Y-6097000D01*
X27030500Y-6022000D01*
X26955500Y-6097000D01*
X27030500Y-6172000D01*
X27014223Y-5992442D02*
X26933132Y-6138433D01*
X27127868Y-6055567D02*
X27046777Y-6201558D01*
X26933132Y-6138433D02*
G75*
G03X27046777Y-6201558I56823J-31562D01*
G01*
X27127868Y-6055567D02*
G75*
G03X27014222Y-5992442I-56823J31562D01*
G01*
X27398000Y-8234000D02*
X27473000Y-8159000D01*
X27398000Y-8084000D01*
X27323000Y-8159000D01*
X27398000Y-8234000D01*
X27335123Y-8125646D02*
X27331178Y-8183512D01*
X27464822Y-8134488D02*
X27460877Y-8192354D01*
X27331178Y-8183512D02*
G75*
G03X27460877Y-8192354I64850J-4421D01*
G01*
X27464822Y-8134488D02*
G75*
G03X27335123Y-8125646I-64850J4421D01*
G01*
X27618000Y-13919000D02*
X27693000Y-13844000D01*
X27618000Y-13769000D01*
X27543000Y-13844000D01*
X27618000Y-13919000D01*
X27555123Y-13810646D02*
X27551178Y-13868512D01*
X27684822Y-13819488D02*
X27680877Y-13877354D01*
X27551178Y-13868512D02*
G75*
G03X27680877Y-13877354I64850J-4421D01*
G01*
X27684822Y-13819488D02*
G75*
G03X27555123Y-13810646I-64850J4421D01*
G01*
X27990500Y-8082000D02*
X28065500Y-8007000D01*
X27990500Y-7932000D01*
X27915500Y-8007000D01*
X27990500Y-8082000D01*
X27974223Y-7902442D02*
X27893132Y-8048433D01*
X28087868Y-7965567D02*
X28006777Y-8111558D01*
X27893132Y-8048433D02*
G75*
G03X28006777Y-8111558I56823J-31562D01*
G01*
X28087868Y-7965567D02*
G75*
G03X27974222Y-7902442I-56823J31562D01*
G01*
X28210500Y-13767000D02*
X28285500Y-13692000D01*
X28210500Y-13617000D01*
X28135500Y-13692000D01*
X28210500Y-13767000D01*
X28194223Y-13587442D02*
X28113132Y-13733433D01*
X28307868Y-13650567D02*
X28226777Y-13796558D01*
X28113132Y-13733433D02*
G75*
G03X28226777Y-13796558I56823J-31562D01*
G01*
X28307868Y-13650567D02*
G75*
G03X28194222Y-13587442I-56823J31562D01*
G01*
X28318000Y-3969000D02*
X28393000Y-3894000D01*
X28318000Y-3819000D01*
X28243000Y-3894000D01*
X28318000Y-3969000D01*
X28255123Y-3860646D02*
X28251178Y-3918512D01*
X28384822Y-3869488D02*
X28380877Y-3927354D01*
X28251178Y-3918512D02*
G75*
G03X28380877Y-3927354I64850J-4421D01*
G01*
X28384822Y-3869488D02*
G75*
G03X28255123Y-3860646I-64850J4421D01*
G01*
X28593000Y-11974000D02*
X28668000Y-11899000D01*
X28593000Y-11824000D01*
X28518000Y-11899000D01*
X28593000Y-11974000D01*
X28530123Y-11865646D02*
X28526178Y-11923512D01*
X28659822Y-11874488D02*
X28655877Y-11932354D01*
X28526178Y-11923512D02*
G75*
G03X28655877Y-11932354I64850J-4421D01*
G01*
X28659822Y-11874488D02*
G75*
G03X28530123Y-11865646I-64850J4421D01*
G01*
X28910500Y-3817000D02*
X28985500Y-3742000D01*
X28910500Y-3667000D01*
X28835500Y-3742000D01*
X28910500Y-3817000D01*
X28894223Y-3637442D02*
X28813132Y-3783433D01*
X29007868Y-3700567D02*
X28926777Y-3846558D01*
X28813132Y-3783433D02*
G75*
G03X28926777Y-3846558I56823J-31562D01*
G01*
X29007868Y-3700567D02*
G75*
G03X28894222Y-3637442I-56823J31562D01*
G01*
X29048000Y-10079000D02*
X29123000Y-10004000D01*
X29048000Y-9929000D01*
X28973000Y-10004000D01*
X29048000Y-10079000D01*
X28985123Y-9970646D02*
X28981178Y-10028512D01*
X29114822Y-9979488D02*
X29110877Y-10037354D01*
X28981178Y-10028512D02*
G75*
G03X29110877Y-10037354I64850J-4421D01*
G01*
X29114822Y-9979488D02*
G75*
G03X28985123Y-9970646I-64850J4421D01*
G01*
X29185500Y-11822000D02*
X29260500Y-11747000D01*
X29185500Y-11672000D01*
X29110500Y-11747000D01*
X29185500Y-11822000D01*
X29169223Y-11642442D02*
X29088132Y-11788433D01*
X29282868Y-11705567D02*
X29201777Y-11851558D01*
X29088132Y-11788433D02*
G75*
G03X29201777Y-11851558I56823J-31562D01*
G01*
X29282868Y-11705567D02*
G75*
G03X29169222Y-11642442I-56823J31562D01*
G01*
X29308000Y-6289000D02*
X29383000Y-6214000D01*
X29308000Y-6139000D01*
X29233000Y-6214000D01*
X29308000Y-6289000D01*
X29245123Y-6180646D02*
X29241178Y-6238512D01*
X29374822Y-6189488D02*
X29370877Y-6247354D01*
X29241178Y-6238512D02*
G75*
G03X29370877Y-6247354I64850J-4421D01*
G01*
X29374822Y-6189488D02*
G75*
G03X29245123Y-6180646I-64850J4421D01*
G01*
X29640500Y-9927000D02*
X29715500Y-9852000D01*
X29640500Y-9777000D01*
X29565500Y-9852000D01*
X29640500Y-9927000D01*
X29624223Y-9747442D02*
X29543132Y-9893433D01*
X29737868Y-9810567D02*
X29656777Y-9956558D01*
X29543132Y-9893433D02*
G75*
G03X29656777Y-9956558I56823J-31562D01*
G01*
X29737868Y-9810567D02*
G75*
G03X29624222Y-9747442I-56823J31562D01*
G01*
X29768000Y-8234000D02*
X29843000Y-8159000D01*
X29768000Y-8084000D01*
X29693000Y-8159000D01*
X29768000Y-8234000D01*
X29705123Y-8125646D02*
X29701178Y-8183512D01*
X29834822Y-8134488D02*
X29830877Y-8192354D01*
X29701178Y-8183512D02*
G75*
G03X29830877Y-8192354I64850J-4421D01*
G01*
X29834822Y-8134488D02*
G75*
G03X29705123Y-8125646I-64850J4421D01*
G01*
X29900500Y-6137000D02*
X29975500Y-6062000D01*
X29900500Y-5987000D01*
X29825500Y-6062000D01*
X29900500Y-6137000D01*
X29884223Y-5957442D02*
X29803132Y-6103433D01*
X29997868Y-6020567D02*
X29916777Y-6166558D01*
X29803132Y-6103433D02*
G75*
G03X29916777Y-6166558I56823J-31562D01*
G01*
X29997868Y-6020567D02*
G75*
G03X29884222Y-5957442I-56823J31562D01*
G01*
X30013000Y-13919000D02*
X30088000Y-13844000D01*
X30013000Y-13769000D01*
X29938000Y-13844000D01*
X30013000Y-13919000D01*
X29950123Y-13810646D02*
X29946178Y-13868512D01*
X30079822Y-13819488D02*
X30075877Y-13877354D01*
X29946178Y-13868512D02*
G75*
G03X30075877Y-13877354I64850J-4421D01*
G01*
X30079822Y-13819488D02*
G75*
G03X29950123Y-13810646I-64850J4421D01*
G01*
X30223000Y-3969000D02*
X30298000Y-3894000D01*
X30223000Y-3819000D01*
X30148000Y-3894000D01*
X30223000Y-3969000D01*
X30160123Y-3860646D02*
X30156178Y-3918512D01*
X30289822Y-3869488D02*
X30285877Y-3927354D01*
X30156178Y-3918512D02*
G75*
G03X30285877Y-3927354I64850J-4421D01*
G01*
X30289822Y-3869488D02*
G75*
G03X30160123Y-3860646I-64850J4421D01*
G01*
X30360500Y-8082000D02*
X30435500Y-8007000D01*
X30360500Y-7932000D01*
X30285500Y-8007000D01*
X30360500Y-8082000D01*
X30344223Y-7902442D02*
X30263132Y-8048433D01*
X30457868Y-7965567D02*
X30376777Y-8111558D01*
X30263132Y-8048433D02*
G75*
G03X30376777Y-8111558I56823J-31562D01*
G01*
X30457868Y-7965567D02*
G75*
G03X30344222Y-7902442I-56823J31562D01*
G01*
X30605500Y-13767000D02*
X30680500Y-13692000D01*
X30605500Y-13617000D01*
X30530500Y-13692000D01*
X30605500Y-13767000D01*
X30589223Y-13587442D02*
X30508132Y-13733433D01*
X30702868Y-13650567D02*
X30621777Y-13796558D01*
X30508132Y-13733433D02*
G75*
G03X30621777Y-13796558I56823J-31562D01*
G01*
X30702868Y-13650567D02*
G75*
G03X30589222Y-13587442I-56823J31562D01*
G01*
X30815500Y-3817000D02*
X30890500Y-3742000D01*
X30815500Y-3667000D01*
X30740500Y-3742000D01*
X30815500Y-3817000D01*
X30799223Y-3637442D02*
X30718132Y-3783433D01*
X30912868Y-3700567D02*
X30831777Y-3846558D01*
X30718132Y-3783433D02*
G75*
G03X30831777Y-3846558I56823J-31562D01*
G01*
X30912868Y-3700567D02*
G75*
G03X30799222Y-3637442I-56823J31562D01*
G01*
X32668000Y-13919000D02*
X32743000Y-13844000D01*
X32668000Y-13769000D01*
X32593000Y-13844000D01*
X32668000Y-13919000D01*
X32605123Y-13810646D02*
X32601178Y-13868512D01*
X32734822Y-13819488D02*
X32730877Y-13877354D01*
X32601178Y-13868512D02*
G75*
G03X32730877Y-13877354I64850J-4421D01*
G01*
X32734822Y-13819488D02*
G75*
G03X32605123Y-13810646I-64850J4421D01*
G01*
X32678000Y-8234000D02*
X32753000Y-8159000D01*
X32678000Y-8084000D01*
X32603000Y-8159000D01*
X32678000Y-8234000D01*
X32615123Y-8125646D02*
X32611178Y-8183512D01*
X32744822Y-8134488D02*
X32740877Y-8192354D01*
X32611178Y-8183512D02*
G75*
G03X32740877Y-8192354I64850J-4421D01*
G01*
X32744822Y-8134488D02*
G75*
G03X32615123Y-8125646I-64850J4421D01*
G01*
X32688000Y-3934000D02*
X32763000Y-3859000D01*
X32688000Y-3784000D01*
X32613000Y-3859000D01*
X32688000Y-3934000D01*
X32625123Y-3825646D02*
X32621178Y-3883512D01*
X32754822Y-3834488D02*
X32750877Y-3892354D01*
X32621178Y-3883512D02*
G75*
G03X32750877Y-3892354I64850J-4421D01*
G01*
X32754822Y-3834488D02*
G75*
G03X32625123Y-3825646I-64850J4421D01*
G01*
X32688000Y-6349000D02*
X32763000Y-6274000D01*
X32688000Y-6199000D01*
X32613000Y-6274000D01*
X32688000Y-6349000D01*
X32625123Y-6240646D02*
X32621178Y-6298512D01*
X32754822Y-6249488D02*
X32750877Y-6307354D01*
X32621178Y-6298512D02*
G75*
G03X32750877Y-6307354I64850J-4421D01*
G01*
X32754822Y-6249488D02*
G75*
G03X32625123Y-6240646I-64850J4421D01*
G01*
X33260500Y-13767000D02*
X33335500Y-13692000D01*
X33260500Y-13617000D01*
X33185500Y-13692000D01*
X33260500Y-13767000D01*
X33244223Y-13587442D02*
X33163132Y-13733433D01*
X33357868Y-13650567D02*
X33276777Y-13796558D01*
X33163132Y-13733433D02*
G75*
G03X33276777Y-13796558I56823J-31562D01*
G01*
X33357868Y-13650567D02*
G75*
G03X33244222Y-13587442I-56823J31562D01*
G01*
X33270500Y-8082000D02*
X33345500Y-8007000D01*
X33270500Y-7932000D01*
X33195500Y-8007000D01*
X33270500Y-8082000D01*
X33254223Y-7902442D02*
X33173132Y-8048433D01*
X33367868Y-7965567D02*
X33286777Y-8111558D01*
X33173132Y-8048433D02*
G75*
G03X33286777Y-8111558I56823J-31562D01*
G01*
X33367868Y-7965567D02*
G75*
G03X33254222Y-7902442I-56823J31562D01*
G01*
X33280500Y-3782000D02*
X33355500Y-3707000D01*
X33280500Y-3632000D01*
X33205500Y-3707000D01*
X33280500Y-3782000D01*
X33264223Y-3602442D02*
X33183132Y-3748433D01*
X33377868Y-3665567D02*
X33296777Y-3811558D01*
X33183132Y-3748433D02*
G75*
G03X33296777Y-3811558I56823J-31562D01*
G01*
X33377868Y-3665567D02*
G75*
G03X33264222Y-3602442I-56823J31562D01*
G01*
X33280500Y-6197000D02*
X33355500Y-6122000D01*
X33280500Y-6047000D01*
X33205500Y-6122000D01*
X33280500Y-6197000D01*
X33264223Y-6017442D02*
X33183132Y-6163433D01*
X33377868Y-6080567D02*
X33296777Y-6226558D01*
X33183132Y-6163433D02*
G75*
G03X33296777Y-6226558I56823J-31562D01*
G01*
X33377868Y-6080567D02*
G75*
G03X33264222Y-6017442I-56823J31562D01*
G01*
X34568000Y-12029000D02*
X34643000Y-11954000D01*
X34568000Y-11879000D01*
X34493000Y-11954000D01*
X34568000Y-12029000D01*
X34505123Y-11920646D02*
X34501178Y-11978512D01*
X34634822Y-11929488D02*
X34630877Y-11987354D01*
X34501178Y-11978512D02*
G75*
G03X34630877Y-11987354I64850J-4421D01*
G01*
X34634822Y-11929488D02*
G75*
G03X34505123Y-11920646I-64850J4421D01*
G01*
X34568000Y-13919000D02*
X34643000Y-13844000D01*
X34568000Y-13769000D01*
X34493000Y-13844000D01*
X34568000Y-13919000D01*
X34505123Y-13810646D02*
X34501178Y-13868512D01*
X34634822Y-13819488D02*
X34630877Y-13877354D01*
X34501178Y-13868512D02*
G75*
G03X34630877Y-13877354I64850J-4421D01*
G01*
X34634822Y-13819488D02*
G75*
G03X34505123Y-13810646I-64850J4421D01*
G01*
X34573000Y-6349000D02*
X34648000Y-6274000D01*
X34573000Y-6199000D01*
X34498000Y-6274000D01*
X34573000Y-6349000D01*
X34510123Y-6240646D02*
X34506178Y-6298512D01*
X34639822Y-6249488D02*
X34635877Y-6307354D01*
X34506178Y-6298512D02*
G75*
G03X34635877Y-6307354I64850J-4421D01*
G01*
X34639822Y-6249488D02*
G75*
G03X34510123Y-6240646I-64850J4421D01*
G01*
X34573000Y-8234000D02*
X34648000Y-8159000D01*
X34573000Y-8084000D01*
X34498000Y-8159000D01*
X34573000Y-8234000D01*
X34510123Y-8125646D02*
X34506178Y-8183512D01*
X34639822Y-8134488D02*
X34635877Y-8192354D01*
X34506178Y-8183512D02*
G75*
G03X34635877Y-8192354I64850J-4421D01*
G01*
X34639822Y-8134488D02*
G75*
G03X34510123Y-8125646I-64850J4421D01*
G01*
X34588000Y-3934000D02*
X34663000Y-3859000D01*
X34588000Y-3784000D01*
X34513000Y-3859000D01*
X34588000Y-3934000D01*
X34525123Y-3825646D02*
X34521178Y-3883512D01*
X34654822Y-3834488D02*
X34650877Y-3892354D01*
X34521178Y-3883512D02*
G75*
G03X34650877Y-3892354I64850J-4421D01*
G01*
X34654822Y-3834488D02*
G75*
G03X34525123Y-3825646I-64850J4421D01*
G01*
X35160500Y-11877000D02*
X35235500Y-11802000D01*
X35160500Y-11727000D01*
X35085500Y-11802000D01*
X35160500Y-11877000D01*
X35144223Y-11697442D02*
X35063132Y-11843433D01*
X35257868Y-11760567D02*
X35176777Y-11906558D01*
X35063132Y-11843433D02*
G75*
G03X35176778Y-11906558I56823J-31562D01*
G01*
X35257868Y-11760567D02*
G75*
G03X35144223Y-11697442I-56823J31562D01*
G01*
X35160500Y-13767000D02*
X35235500Y-13692000D01*
X35160500Y-13617000D01*
X35085500Y-13692000D01*
X35160500Y-13767000D01*
X35144223Y-13587442D02*
X35063132Y-13733433D01*
X35257868Y-13650567D02*
X35176777Y-13796558D01*
X35063132Y-13733433D02*
G75*
G03X35176778Y-13796558I56823J-31562D01*
G01*
X35257868Y-13650567D02*
G75*
G03X35144223Y-13587442I-56823J31562D01*
G01*
X35165500Y-6197000D02*
X35240500Y-6122000D01*
X35165500Y-6047000D01*
X35090500Y-6122000D01*
X35165500Y-6197000D01*
X35149223Y-6017442D02*
X35068132Y-6163433D01*
X35262868Y-6080567D02*
X35181777Y-6226558D01*
X35068132Y-6163433D02*
G75*
G03X35181778Y-6226558I56823J-31562D01*
G01*
X35262868Y-6080567D02*
G75*
G03X35149223Y-6017442I-56823J31562D01*
G01*
X35165500Y-8082000D02*
X35240500Y-8007000D01*
X35165500Y-7932000D01*
X35090500Y-8007000D01*
X35165500Y-8082000D01*
X35149223Y-7902442D02*
X35068132Y-8048433D01*
X35262868Y-7965567D02*
X35181777Y-8111558D01*
X35068132Y-8048433D02*
G75*
G03X35181778Y-8111558I56823J-31562D01*
G01*
X35262868Y-7965567D02*
G75*
G03X35149223Y-7902442I-56823J31562D01*
G01*
X35180500Y-3782000D02*
X35255500Y-3707000D01*
X35180500Y-3632000D01*
X35105500Y-3707000D01*
X35180500Y-3782000D01*
X35164223Y-3602442D02*
X35083132Y-3748433D01*
X35277868Y-3665567D02*
X35196777Y-3811558D01*
X35083132Y-3748433D02*
G75*
G03X35196778Y-3811558I56823J-31562D01*
G01*
X35277868Y-3665567D02*
G75*
G03X35164223Y-3602442I-56823J31562D01*
G01*
X36483000Y-3934000D02*
X36558000Y-3859000D01*
X36483000Y-3784000D01*
X36408000Y-3859000D01*
X36483000Y-3934000D01*
X36420123Y-3825646D02*
X36416178Y-3883512D01*
X36549822Y-3834488D02*
X36545877Y-3892354D01*
X36416178Y-3883512D02*
G75*
G03X36545877Y-3892354I64850J-4421D01*
G01*
X36549822Y-3834488D02*
G75*
G03X36420123Y-3825646I-64850J4421D01*
G01*
X36483000Y-6349000D02*
X36558000Y-6274000D01*
X36483000Y-6199000D01*
X36408000Y-6274000D01*
X36483000Y-6349000D01*
X36420123Y-6240646D02*
X36416178Y-6298512D01*
X36549822Y-6249488D02*
X36545877Y-6307354D01*
X36416178Y-6298512D02*
G75*
G03X36545877Y-6307354I64850J-4421D01*
G01*
X36549822Y-6249488D02*
G75*
G03X36420123Y-6240646I-64850J4421D01*
G01*
X36483000Y-8244000D02*
X36558000Y-8169000D01*
X36483000Y-8094000D01*
X36408000Y-8169000D01*
X36483000Y-8244000D01*
X36420123Y-8135646D02*
X36416178Y-8193512D01*
X36549822Y-8144488D02*
X36545877Y-8202354D01*
X36416178Y-8193512D02*
G75*
G03X36545877Y-8202354I64850J-4421D01*
G01*
X36549822Y-8144488D02*
G75*
G03X36420123Y-8135646I-64850J4421D01*
G01*
X36483000Y-13919000D02*
X36558000Y-13844000D01*
X36483000Y-13769000D01*
X36408000Y-13844000D01*
X36483000Y-13919000D01*
X36420123Y-13810646D02*
X36416178Y-13868512D01*
X36549822Y-13819488D02*
X36545877Y-13877354D01*
X36416178Y-13868512D02*
G75*
G03X36545877Y-13877354I64850J-4421D01*
G01*
X36549822Y-13819488D02*
G75*
G03X36420123Y-13810646I-64850J4421D01*
G01*
X37075500Y-3782000D02*
X37150500Y-3707000D01*
X37075500Y-3632000D01*
X37000500Y-3707000D01*
X37075500Y-3782000D01*
X37059223Y-3602442D02*
X36978132Y-3748433D01*
X37172868Y-3665567D02*
X37091777Y-3811558D01*
X36978132Y-3748433D02*
G75*
G03X37091778Y-3811558I56823J-31562D01*
G01*
X37172868Y-3665567D02*
G75*
G03X37059223Y-3602442I-56823J31562D01*
G01*
X37075500Y-6197000D02*
X37150500Y-6122000D01*
X37075500Y-6047000D01*
X37000500Y-6122000D01*
X37075500Y-6197000D01*
X37059223Y-6017442D02*
X36978132Y-6163433D01*
X37172868Y-6080567D02*
X37091777Y-6226558D01*
X36978132Y-6163433D02*
G75*
G03X37091778Y-6226558I56823J-31562D01*
G01*
X37172868Y-6080567D02*
G75*
G03X37059223Y-6017442I-56823J31562D01*
G01*
X37075500Y-8092000D02*
X37150500Y-8017000D01*
X37075500Y-7942000D01*
X37000500Y-8017000D01*
X37075500Y-8092000D01*
X37059223Y-7912442D02*
X36978132Y-8058433D01*
X37172868Y-7975567D02*
X37091777Y-8121558D01*
X36978132Y-8058433D02*
G75*
G03X37091778Y-8121558I56823J-31562D01*
G01*
X37172868Y-7975567D02*
G75*
G03X37059223Y-7912442I-56823J31562D01*
G01*
X37075500Y-13767000D02*
X37150500Y-13692000D01*
X37075500Y-13617000D01*
X37000500Y-13692000D01*
X37075500Y-13767000D01*
X37059223Y-13587442D02*
X36978132Y-13733433D01*
X37172868Y-13650567D02*
X37091777Y-13796558D01*
X36978132Y-13733433D02*
G75*
G03X37091778Y-13796558I56823J-31562D01*
G01*
X37172868Y-13650567D02*
G75*
G03X37059223Y-13587442I-56823J31562D01*
G01*
D13*
X3150928Y-14698214D02*
X3150928Y-14398214D01*
X3222357Y-14398214D01*
X3265214Y-14412500D01*
X3293786Y-14441071D01*
X3308071Y-14469643D01*
X3322357Y-14526786D01*
X3322357Y-14569643D01*
X3308071Y-14626786D01*
X3293786Y-14655357D01*
X3265214Y-14683929D01*
X3222357Y-14698214D01*
X3150928Y-14698214D01*
X3450928Y-14698214D02*
X3450928Y-14498214D01*
X3450928Y-14555357D02*
X3465214Y-14526786D01*
X3479500Y-14512500D01*
X3508071Y-14498214D01*
X3536643Y-14498214D01*
X3636643Y-14698214D02*
X3636643Y-14498214D01*
X3636643Y-14398214D02*
X3622357Y-14412500D01*
X3636643Y-14426786D01*
X3650928Y-14412500D01*
X3636643Y-14398214D01*
X3636643Y-14426786D01*
X3822357Y-14698214D02*
X3793786Y-14683929D01*
X3779500Y-14655357D01*
X3779500Y-14398214D01*
X3979500Y-14698214D02*
X3950928Y-14683929D01*
X3936643Y-14655357D01*
X3936643Y-14398214D01*
X4322357Y-14698214D02*
X4322357Y-14398214D01*
X4422357Y-14612500D01*
X4522357Y-14398214D01*
X4522357Y-14698214D01*
X4793786Y-14698214D02*
X4793786Y-14541071D01*
X4779500Y-14512500D01*
X4750929Y-14498214D01*
X4693786Y-14498214D01*
X4665214Y-14512500D01*
X4793786Y-14683929D02*
X4765214Y-14698214D01*
X4693786Y-14698214D01*
X4665214Y-14683929D01*
X4650929Y-14655357D01*
X4650929Y-14626786D01*
X4665214Y-14598214D01*
X4693786Y-14583929D01*
X4765214Y-14583929D01*
X4793786Y-14569643D01*
X4936643Y-14498214D02*
X4936643Y-14798214D01*
X4936643Y-14512500D02*
X4965214Y-14498214D01*
X5022357Y-14498214D01*
X5050929Y-14512500D01*
X5065214Y-14526786D01*
X5079500Y-14555357D01*
X5079500Y-14641071D01*
X5065214Y-14669643D01*
X5050929Y-14683929D01*
X5022357Y-14698214D01*
X4965214Y-14698214D01*
X4936643Y-14683929D01*
X5208071Y-14669643D02*
X5222357Y-14683929D01*
X5208071Y-14698214D01*
X5193786Y-14683929D01*
X5208071Y-14669643D01*
X5208071Y-14698214D01*
X5208071Y-14512500D02*
X5222357Y-14526786D01*
X5208071Y-14541071D01*
X5193786Y-14526786D01*
X5208071Y-14512500D01*
X5208071Y-14541071D01*
X2839500Y-15172500D02*
X2879500Y-15212500D01*
X2879500Y-15172500D02*
X2839500Y-15212500D01*
X3208071Y-15028214D02*
X3236643Y-15028214D01*
X3265214Y-15042500D01*
X3279500Y-15056786D01*
X3293786Y-15085357D01*
X3308071Y-15142500D01*
X3308071Y-15213929D01*
X3293786Y-15271071D01*
X3279500Y-15299643D01*
X3265214Y-15313929D01*
X3236643Y-15328214D01*
X3208071Y-15328214D01*
X3179500Y-15313929D01*
X3165214Y-15299643D01*
X3150928Y-15271071D01*
X3136643Y-15213929D01*
X3136643Y-15142500D01*
X3150928Y-15085357D01*
X3165214Y-15056786D01*
X3179500Y-15042500D01*
X3208071Y-15028214D01*
X3436643Y-15299643D02*
X3450928Y-15313929D01*
X3436643Y-15328214D01*
X3422357Y-15313929D01*
X3436643Y-15299643D01*
X3436643Y-15328214D01*
X3708071Y-15128214D02*
X3708071Y-15328214D01*
X3636643Y-15013929D02*
X3565214Y-15228214D01*
X3750928Y-15228214D01*
X3922357Y-15028214D02*
X3950928Y-15028214D01*
X3979500Y-15042500D01*
X3993786Y-15056786D01*
X4008071Y-15085357D01*
X4022357Y-15142500D01*
X4022357Y-15213929D01*
X4008071Y-15271071D01*
X3993786Y-15299643D01*
X3979500Y-15313929D01*
X3950928Y-15328214D01*
X3922357Y-15328214D01*
X3893786Y-15313929D01*
X3879500Y-15299643D01*
X3865214Y-15271071D01*
X3850928Y-15213929D01*
X3850928Y-15142500D01*
X3865214Y-15085357D01*
X3879500Y-15056786D01*
X3893786Y-15042500D01*
X3922357Y-15028214D01*
X4150928Y-15328214D02*
X4150928Y-15128214D01*
X4150928Y-15156786D02*
X4165214Y-15142500D01*
X4193786Y-15128214D01*
X4236643Y-15128214D01*
X4265214Y-15142500D01*
X4279500Y-15171071D01*
X4279500Y-15328214D01*
X4279500Y-15171071D02*
X4293786Y-15142500D01*
X4322357Y-15128214D01*
X4365214Y-15128214D01*
X4393786Y-15142500D01*
X4408071Y-15171071D01*
X4408071Y-15328214D01*
X4550929Y-15328214D02*
X4550929Y-15128214D01*
X4550929Y-15156786D02*
X4565214Y-15142500D01*
X4593786Y-15128214D01*
X4636643Y-15128214D01*
X4665214Y-15142500D01*
X4679500Y-15171071D01*
X4679500Y-15328214D01*
X4679500Y-15171071D02*
X4693786Y-15142500D01*
X4722357Y-15128214D01*
X4765214Y-15128214D01*
X4793786Y-15142500D01*
X4808071Y-15171071D01*
X4808071Y-15328214D01*
X5393786Y-15013929D02*
X5136643Y-15399643D01*
X5779500Y-15028214D02*
X5808071Y-15028214D01*
X5836643Y-15042500D01*
X5850928Y-15056786D01*
X5865214Y-15085357D01*
X5879500Y-15142500D01*
X5879500Y-15213929D01*
X5865214Y-15271071D01*
X5850928Y-15299643D01*
X5836643Y-15313929D01*
X5808071Y-15328214D01*
X5779500Y-15328214D01*
X5750928Y-15313929D01*
X5736643Y-15299643D01*
X5722357Y-15271071D01*
X5708071Y-15213929D01*
X5708071Y-15142500D01*
X5722357Y-15085357D01*
X5736643Y-15056786D01*
X5750928Y-15042500D01*
X5779500Y-15028214D01*
X6008071Y-15299643D02*
X6022357Y-15313929D01*
X6008071Y-15328214D01*
X5993786Y-15313929D01*
X6008071Y-15299643D01*
X6008071Y-15328214D01*
X6208071Y-15028214D02*
X6236643Y-15028214D01*
X6265214Y-15042500D01*
X6279500Y-15056786D01*
X6293785Y-15085357D01*
X6308071Y-15142500D01*
X6308071Y-15213929D01*
X6293785Y-15271071D01*
X6279500Y-15299643D01*
X6265214Y-15313929D01*
X6236643Y-15328214D01*
X6208071Y-15328214D01*
X6179500Y-15313929D01*
X6165214Y-15299643D01*
X6150928Y-15271071D01*
X6136643Y-15213929D01*
X6136643Y-15142500D01*
X6150928Y-15085357D01*
X6165214Y-15056786D01*
X6179500Y-15042500D01*
X6208071Y-15028214D01*
X6593785Y-15328214D02*
X6422357Y-15328214D01*
X6508071Y-15328214D02*
X6508071Y-15028214D01*
X6479500Y-15071071D01*
X6450928Y-15099643D01*
X6422357Y-15113929D01*
X6850928Y-15028214D02*
X6793785Y-15028214D01*
X6765214Y-15042500D01*
X6750928Y-15056786D01*
X6722357Y-15099643D01*
X6708071Y-15156786D01*
X6708071Y-15271071D01*
X6722357Y-15299643D01*
X6736643Y-15313929D01*
X6765214Y-15328214D01*
X6822357Y-15328214D01*
X6850928Y-15313929D01*
X6865214Y-15299643D01*
X6879500Y-15271071D01*
X6879500Y-15199643D01*
X6865214Y-15171071D01*
X6850928Y-15156786D01*
X6822357Y-15142500D01*
X6765214Y-15142500D01*
X6736643Y-15156786D01*
X6722357Y-15171071D01*
X6708071Y-15199643D01*
X6993786Y-15028214D02*
X6993786Y-15085357D01*
X7108071Y-15028214D02*
X7108071Y-15085357D01*
X7550928Y-15442500D02*
X7536643Y-15428214D01*
X7508071Y-15385357D01*
X7493785Y-15356786D01*
X7479500Y-15313929D01*
X7465214Y-15242500D01*
X7465214Y-15185357D01*
X7479500Y-15113929D01*
X7493785Y-15071071D01*
X7508071Y-15042500D01*
X7536643Y-14999643D01*
X7550928Y-14985357D01*
X7636643Y-15028214D02*
X7836643Y-15028214D01*
X7708071Y-15328214D01*
X7936643Y-15056786D02*
X7950928Y-15042500D01*
X7979500Y-15028214D01*
X8050928Y-15028214D01*
X8079500Y-15042500D01*
X8093785Y-15056786D01*
X8108071Y-15085357D01*
X8108071Y-15113929D01*
X8093785Y-15156786D01*
X7922357Y-15328214D01*
X8108071Y-15328214D01*
X8465214Y-15328214D02*
X8465214Y-15028214D01*
X8593786Y-15328214D02*
X8593786Y-15171071D01*
X8579500Y-15142500D01*
X8550928Y-15128214D01*
X8508071Y-15128214D01*
X8479500Y-15142500D01*
X8465214Y-15156786D01*
X8779500Y-15328214D02*
X8750928Y-15313929D01*
X8736643Y-15299643D01*
X8722357Y-15271071D01*
X8722357Y-15185357D01*
X8736643Y-15156786D01*
X8750928Y-15142500D01*
X8779500Y-15128214D01*
X8822357Y-15128214D01*
X8850928Y-15142500D01*
X8865214Y-15156786D01*
X8879500Y-15185357D01*
X8879500Y-15271071D01*
X8865214Y-15299643D01*
X8850928Y-15313929D01*
X8822357Y-15328214D01*
X8779500Y-15328214D01*
X9050928Y-15328214D02*
X9022357Y-15313929D01*
X9008071Y-15285357D01*
X9008071Y-15028214D01*
X9279500Y-15313929D02*
X9250929Y-15328214D01*
X9193786Y-15328214D01*
X9165214Y-15313929D01*
X9150929Y-15285357D01*
X9150929Y-15171071D01*
X9165214Y-15142500D01*
X9193786Y-15128214D01*
X9250929Y-15128214D01*
X9279500Y-15142500D01*
X9293786Y-15171071D01*
X9293786Y-15199643D01*
X9150929Y-15228214D01*
X9408071Y-15313929D02*
X9436643Y-15328214D01*
X9493786Y-15328214D01*
X9522357Y-15313929D01*
X9536643Y-15285357D01*
X9536643Y-15271071D01*
X9522357Y-15242500D01*
X9493786Y-15228214D01*
X9450929Y-15228214D01*
X9422357Y-15213929D01*
X9408071Y-15185357D01*
X9408071Y-15171071D01*
X9422357Y-15142500D01*
X9450929Y-15128214D01*
X9493786Y-15128214D01*
X9522357Y-15142500D01*
X9636643Y-15442500D02*
X9650929Y-15428214D01*
X9679500Y-15385357D01*
X9693786Y-15356786D01*
X9708071Y-15313929D01*
X9722357Y-15242500D01*
X9722357Y-15185357D01*
X9708071Y-15113929D01*
X9693786Y-15071071D01*
X9679500Y-15042500D01*
X9650929Y-14999643D01*
X9636643Y-14985357D01*
X2879500Y-15588500D02*
G75*
G03X2879500Y-15588500I-30000J0D01*
G01*
X3208071Y-15424214D02*
X3236643Y-15424214D01*
X3265214Y-15438500D01*
X3279500Y-15452786D01*
X3293786Y-15481357D01*
X3308071Y-15538500D01*
X3308071Y-15609929D01*
X3293786Y-15667071D01*
X3279500Y-15695643D01*
X3265214Y-15709929D01*
X3236643Y-15724214D01*
X3208071Y-15724214D01*
X3179500Y-15709929D01*
X3165214Y-15695643D01*
X3150928Y-15667071D01*
X3136643Y-15609929D01*
X3136643Y-15538500D01*
X3150928Y-15481357D01*
X3165214Y-15452786D01*
X3179500Y-15438500D01*
X3208071Y-15424214D01*
X3436643Y-15695643D02*
X3450928Y-15709929D01*
X3436643Y-15724214D01*
X3422357Y-15709929D01*
X3436643Y-15695643D01*
X3436643Y-15724214D01*
X3708071Y-15424214D02*
X3650928Y-15424214D01*
X3622357Y-15438500D01*
X3608071Y-15452786D01*
X3579500Y-15495643D01*
X3565214Y-15552786D01*
X3565214Y-15667071D01*
X3579500Y-15695643D01*
X3593786Y-15709929D01*
X3622357Y-15724214D01*
X3679500Y-15724214D01*
X3708071Y-15709929D01*
X3722357Y-15695643D01*
X3736643Y-15667071D01*
X3736643Y-15595643D01*
X3722357Y-15567071D01*
X3708071Y-15552786D01*
X3679500Y-15538500D01*
X3622357Y-15538500D01*
X3593786Y-15552786D01*
X3579500Y-15567071D01*
X3565214Y-15595643D01*
X3922357Y-15424214D02*
X3950928Y-15424214D01*
X3979500Y-15438500D01*
X3993786Y-15452786D01*
X4008071Y-15481357D01*
X4022357Y-15538500D01*
X4022357Y-15609929D01*
X4008071Y-15667071D01*
X3993786Y-15695643D01*
X3979500Y-15709929D01*
X3950928Y-15724214D01*
X3922357Y-15724214D01*
X3893786Y-15709929D01*
X3879500Y-15695643D01*
X3865214Y-15667071D01*
X3850928Y-15609929D01*
X3850928Y-15538500D01*
X3865214Y-15481357D01*
X3879500Y-15452786D01*
X3893786Y-15438500D01*
X3922357Y-15424214D01*
X4150928Y-15724214D02*
X4150928Y-15524214D01*
X4150928Y-15552786D02*
X4165214Y-15538500D01*
X4193786Y-15524214D01*
X4236643Y-15524214D01*
X4265214Y-15538500D01*
X4279500Y-15567071D01*
X4279500Y-15724214D01*
X4279500Y-15567071D02*
X4293786Y-15538500D01*
X4322357Y-15524214D01*
X4365214Y-15524214D01*
X4393786Y-15538500D01*
X4408071Y-15567071D01*
X4408071Y-15724214D01*
X4550929Y-15724214D02*
X4550929Y-15524214D01*
X4550929Y-15552786D02*
X4565214Y-15538500D01*
X4593786Y-15524214D01*
X4636643Y-15524214D01*
X4665214Y-15538500D01*
X4679500Y-15567071D01*
X4679500Y-15724214D01*
X4679500Y-15567071D02*
X4693786Y-15538500D01*
X4722357Y-15524214D01*
X4765214Y-15524214D01*
X4793786Y-15538500D01*
X4808071Y-15567071D01*
X4808071Y-15724214D01*
X5393786Y-15409929D02*
X5136643Y-15795643D01*
X5779500Y-15424214D02*
X5808071Y-15424214D01*
X5836643Y-15438500D01*
X5850928Y-15452786D01*
X5865214Y-15481357D01*
X5879500Y-15538500D01*
X5879500Y-15609929D01*
X5865214Y-15667071D01*
X5850928Y-15695643D01*
X5836643Y-15709929D01*
X5808071Y-15724214D01*
X5779500Y-15724214D01*
X5750928Y-15709929D01*
X5736643Y-15695643D01*
X5722357Y-15667071D01*
X5708071Y-15609929D01*
X5708071Y-15538500D01*
X5722357Y-15481357D01*
X5736643Y-15452786D01*
X5750928Y-15438500D01*
X5779500Y-15424214D01*
X6008071Y-15695643D02*
X6022357Y-15709929D01*
X6008071Y-15724214D01*
X5993786Y-15709929D01*
X6008071Y-15695643D01*
X6008071Y-15724214D01*
X6208071Y-15424214D02*
X6236643Y-15424214D01*
X6265214Y-15438500D01*
X6279500Y-15452786D01*
X6293785Y-15481357D01*
X6308071Y-15538500D01*
X6308071Y-15609929D01*
X6293785Y-15667071D01*
X6279500Y-15695643D01*
X6265214Y-15709929D01*
X6236643Y-15724214D01*
X6208071Y-15724214D01*
X6179500Y-15709929D01*
X6165214Y-15695643D01*
X6150928Y-15667071D01*
X6136643Y-15609929D01*
X6136643Y-15538500D01*
X6150928Y-15481357D01*
X6165214Y-15452786D01*
X6179500Y-15438500D01*
X6208071Y-15424214D01*
X6422357Y-15452786D02*
X6436643Y-15438500D01*
X6465214Y-15424214D01*
X6536643Y-15424214D01*
X6565214Y-15438500D01*
X6579500Y-15452786D01*
X6593785Y-15481357D01*
X6593785Y-15509929D01*
X6579500Y-15552786D01*
X6408071Y-15724214D01*
X6593785Y-15724214D01*
X6850928Y-15524214D02*
X6850928Y-15724214D01*
X6779500Y-15409929D02*
X6708071Y-15624214D01*
X6893785Y-15624214D01*
X6993786Y-15424214D02*
X6993786Y-15481357D01*
X7108071Y-15424214D02*
X7108071Y-15481357D01*
X7550928Y-15838500D02*
X7536643Y-15824214D01*
X7508071Y-15781357D01*
X7493785Y-15752786D01*
X7479500Y-15709929D01*
X7465214Y-15638500D01*
X7465214Y-15581357D01*
X7479500Y-15509929D01*
X7493785Y-15467071D01*
X7508071Y-15438500D01*
X7536643Y-15395643D01*
X7550928Y-15381357D01*
X7722357Y-15424214D02*
X7750928Y-15424214D01*
X7779500Y-15438500D01*
X7793785Y-15452786D01*
X7808071Y-15481357D01*
X7822357Y-15538500D01*
X7822357Y-15609929D01*
X7808071Y-15667071D01*
X7793785Y-15695643D01*
X7779500Y-15709929D01*
X7750928Y-15724214D01*
X7722357Y-15724214D01*
X7693785Y-15709929D01*
X7679500Y-15695643D01*
X7665214Y-15667071D01*
X7650928Y-15609929D01*
X7650928Y-15538500D01*
X7665214Y-15481357D01*
X7679500Y-15452786D01*
X7693785Y-15438500D01*
X7722357Y-15424214D01*
X8179500Y-15724214D02*
X8179500Y-15424214D01*
X8308071Y-15724214D02*
X8308071Y-15567071D01*
X8293785Y-15538500D01*
X8265214Y-15524214D01*
X8222357Y-15524214D01*
X8193785Y-15538500D01*
X8179500Y-15552786D01*
X8493786Y-15724214D02*
X8465214Y-15709929D01*
X8450928Y-15695643D01*
X8436643Y-15667071D01*
X8436643Y-15581357D01*
X8450928Y-15552786D01*
X8465214Y-15538500D01*
X8493786Y-15524214D01*
X8536643Y-15524214D01*
X8565214Y-15538500D01*
X8579500Y-15552786D01*
X8593786Y-15581357D01*
X8593786Y-15667071D01*
X8579500Y-15695643D01*
X8565214Y-15709929D01*
X8536643Y-15724214D01*
X8493786Y-15724214D01*
X8765214Y-15724214D02*
X8736643Y-15709929D01*
X8722357Y-15681357D01*
X8722357Y-15424214D01*
X8993786Y-15709929D02*
X8965214Y-15724214D01*
X8908071Y-15724214D01*
X8879500Y-15709929D01*
X8865214Y-15681357D01*
X8865214Y-15567071D01*
X8879500Y-15538500D01*
X8908071Y-15524214D01*
X8965214Y-15524214D01*
X8993786Y-15538500D01*
X9008071Y-15567071D01*
X9008071Y-15595643D01*
X8865214Y-15624214D01*
X9122357Y-15709929D02*
X9150929Y-15724214D01*
X9208071Y-15724214D01*
X9236643Y-15709929D01*
X9250929Y-15681357D01*
X9250929Y-15667071D01*
X9236643Y-15638500D01*
X9208071Y-15624214D01*
X9165214Y-15624214D01*
X9136643Y-15609929D01*
X9122357Y-15581357D01*
X9122357Y-15567071D01*
X9136643Y-15538500D01*
X9165214Y-15524214D01*
X9208071Y-15524214D01*
X9236643Y-15538500D01*
X9608071Y-15609929D02*
X9836643Y-15609929D01*
X9722357Y-15724214D02*
X9722357Y-15495643D01*
X10193786Y-15452786D02*
X10208071Y-15438500D01*
X10236643Y-15424214D01*
X10308071Y-15424214D01*
X10336643Y-15438500D01*
X10350928Y-15452786D01*
X10365214Y-15481357D01*
X10365214Y-15509929D01*
X10350928Y-15552786D01*
X10179500Y-15724214D01*
X10365214Y-15724214D01*
X10708071Y-15709929D02*
X10736643Y-15724214D01*
X10793786Y-15724214D01*
X10822357Y-15709929D01*
X10836643Y-15681357D01*
X10836643Y-15667071D01*
X10822357Y-15638500D01*
X10793786Y-15624214D01*
X10750928Y-15624214D01*
X10722357Y-15609929D01*
X10708071Y-15581357D01*
X10708071Y-15567071D01*
X10722357Y-15538500D01*
X10750928Y-15524214D01*
X10793786Y-15524214D01*
X10822357Y-15538500D01*
X11008071Y-15724214D02*
X10979500Y-15709929D01*
X10965214Y-15681357D01*
X10965214Y-15424214D01*
X11165214Y-15724214D02*
X11136643Y-15709929D01*
X11122357Y-15695643D01*
X11108071Y-15667071D01*
X11108071Y-15581357D01*
X11122357Y-15552786D01*
X11136643Y-15538500D01*
X11165214Y-15524214D01*
X11208071Y-15524214D01*
X11236643Y-15538500D01*
X11250928Y-15552786D01*
X11265214Y-15581357D01*
X11265214Y-15667071D01*
X11250928Y-15695643D01*
X11236643Y-15709929D01*
X11208071Y-15724214D01*
X11165214Y-15724214D01*
X11350928Y-15524214D02*
X11465214Y-15524214D01*
X11393786Y-15424214D02*
X11393786Y-15681357D01*
X11408071Y-15709929D01*
X11436643Y-15724214D01*
X11465214Y-15724214D01*
X11550928Y-15709929D02*
X11579500Y-15724214D01*
X11636643Y-15724214D01*
X11665214Y-15709929D01*
X11679500Y-15681357D01*
X11679500Y-15667071D01*
X11665214Y-15638500D01*
X11636643Y-15624214D01*
X11593786Y-15624214D01*
X11565214Y-15609929D01*
X11550928Y-15581357D01*
X11550928Y-15567071D01*
X11565214Y-15538500D01*
X11593786Y-15524214D01*
X11636643Y-15524214D01*
X11665214Y-15538500D01*
X11779500Y-15838500D02*
X11793786Y-15824214D01*
X11822357Y-15781357D01*
X11836643Y-15752786D01*
X11850928Y-15709929D01*
X11865214Y-15638500D01*
X11865214Y-15581357D01*
X11850928Y-15509929D01*
X11836643Y-15467071D01*
X11822357Y-15438500D01*
X11793786Y-15395643D01*
X11779500Y-15381357D01*
X2837000Y-15942000D02*
X2837000Y-16027000D01*
X2794500Y-15984500D02*
X2879500Y-15984500D01*
X3208071Y-15820214D02*
X3236643Y-15820214D01*
X3265214Y-15834500D01*
X3279500Y-15848786D01*
X3293786Y-15877357D01*
X3308071Y-15934500D01*
X3308071Y-16005929D01*
X3293786Y-16063071D01*
X3279500Y-16091643D01*
X3265214Y-16105929D01*
X3236643Y-16120214D01*
X3208071Y-16120214D01*
X3179500Y-16105929D01*
X3165214Y-16091643D01*
X3150928Y-16063071D01*
X3136643Y-16005929D01*
X3136643Y-15934500D01*
X3150928Y-15877357D01*
X3165214Y-15848786D01*
X3179500Y-15834500D01*
X3208071Y-15820214D01*
X3436643Y-16091643D02*
X3450928Y-16105929D01*
X3436643Y-16120214D01*
X3422357Y-16105929D01*
X3436643Y-16091643D01*
X3436643Y-16120214D01*
X3622357Y-15948786D02*
X3593786Y-15934500D01*
X3579500Y-15920214D01*
X3565214Y-15891643D01*
X3565214Y-15877357D01*
X3579500Y-15848786D01*
X3593786Y-15834500D01*
X3622357Y-15820214D01*
X3679500Y-15820214D01*
X3708071Y-15834500D01*
X3722357Y-15848786D01*
X3736643Y-15877357D01*
X3736643Y-15891643D01*
X3722357Y-15920214D01*
X3708071Y-15934500D01*
X3679500Y-15948786D01*
X3622357Y-15948786D01*
X3593786Y-15963071D01*
X3579500Y-15977357D01*
X3565214Y-16005929D01*
X3565214Y-16063071D01*
X3579500Y-16091643D01*
X3593786Y-16105929D01*
X3622357Y-16120214D01*
X3679500Y-16120214D01*
X3708071Y-16105929D01*
X3722357Y-16091643D01*
X3736643Y-16063071D01*
X3736643Y-16005929D01*
X3722357Y-15977357D01*
X3708071Y-15963071D01*
X3679500Y-15948786D01*
X4008071Y-15820214D02*
X3865214Y-15820214D01*
X3850928Y-15963071D01*
X3865214Y-15948786D01*
X3893786Y-15934500D01*
X3965214Y-15934500D01*
X3993786Y-15948786D01*
X4008071Y-15963071D01*
X4022357Y-15991643D01*
X4022357Y-16063071D01*
X4008071Y-16091643D01*
X3993786Y-16105929D01*
X3965214Y-16120214D01*
X3893786Y-16120214D01*
X3865214Y-16105929D01*
X3850928Y-16091643D01*
X4150928Y-16120214D02*
X4150928Y-15920214D01*
X4150928Y-15948786D02*
X4165214Y-15934500D01*
X4193786Y-15920214D01*
X4236643Y-15920214D01*
X4265214Y-15934500D01*
X4279500Y-15963071D01*
X4279500Y-16120214D01*
X4279500Y-15963071D02*
X4293786Y-15934500D01*
X4322357Y-15920214D01*
X4365214Y-15920214D01*
X4393786Y-15934500D01*
X4408071Y-15963071D01*
X4408071Y-16120214D01*
X4550929Y-16120214D02*
X4550929Y-15920214D01*
X4550929Y-15948786D02*
X4565214Y-15934500D01*
X4593786Y-15920214D01*
X4636643Y-15920214D01*
X4665214Y-15934500D01*
X4679500Y-15963071D01*
X4679500Y-16120214D01*
X4679500Y-15963071D02*
X4693786Y-15934500D01*
X4722357Y-15920214D01*
X4765214Y-15920214D01*
X4793786Y-15934500D01*
X4808071Y-15963071D01*
X4808071Y-16120214D01*
X5393786Y-15805929D02*
X5136643Y-16191643D01*
X5779500Y-15820214D02*
X5808071Y-15820214D01*
X5836643Y-15834500D01*
X5850928Y-15848786D01*
X5865214Y-15877357D01*
X5879500Y-15934500D01*
X5879500Y-16005929D01*
X5865214Y-16063071D01*
X5850928Y-16091643D01*
X5836643Y-16105929D01*
X5808071Y-16120214D01*
X5779500Y-16120214D01*
X5750928Y-16105929D01*
X5736643Y-16091643D01*
X5722357Y-16063071D01*
X5708071Y-16005929D01*
X5708071Y-15934500D01*
X5722357Y-15877357D01*
X5736643Y-15848786D01*
X5750928Y-15834500D01*
X5779500Y-15820214D01*
X6008071Y-16091643D02*
X6022357Y-16105929D01*
X6008071Y-16120214D01*
X5993786Y-16105929D01*
X6008071Y-16091643D01*
X6008071Y-16120214D01*
X6208071Y-15820214D02*
X6236643Y-15820214D01*
X6265214Y-15834500D01*
X6279500Y-15848786D01*
X6293785Y-15877357D01*
X6308071Y-15934500D01*
X6308071Y-16005929D01*
X6293785Y-16063071D01*
X6279500Y-16091643D01*
X6265214Y-16105929D01*
X6236643Y-16120214D01*
X6208071Y-16120214D01*
X6179500Y-16105929D01*
X6165214Y-16091643D01*
X6150928Y-16063071D01*
X6136643Y-16005929D01*
X6136643Y-15934500D01*
X6150928Y-15877357D01*
X6165214Y-15848786D01*
X6179500Y-15834500D01*
X6208071Y-15820214D01*
X6408071Y-15820214D02*
X6593785Y-15820214D01*
X6493785Y-15934500D01*
X6536643Y-15934500D01*
X6565214Y-15948786D01*
X6579500Y-15963071D01*
X6593785Y-15991643D01*
X6593785Y-16063071D01*
X6579500Y-16091643D01*
X6565214Y-16105929D01*
X6536643Y-16120214D01*
X6450928Y-16120214D01*
X6422357Y-16105929D01*
X6408071Y-16091643D01*
X6693785Y-15820214D02*
X6879500Y-15820214D01*
X6779500Y-15934500D01*
X6822357Y-15934500D01*
X6850928Y-15948786D01*
X6865214Y-15963071D01*
X6879500Y-15991643D01*
X6879500Y-16063071D01*
X6865214Y-16091643D01*
X6850928Y-16105929D01*
X6822357Y-16120214D01*
X6736643Y-16120214D01*
X6708071Y-16105929D01*
X6693785Y-16091643D01*
X6993786Y-15820214D02*
X6993786Y-15877357D01*
X7108071Y-15820214D02*
X7108071Y-15877357D01*
X7550928Y-16234500D02*
X7536643Y-16220214D01*
X7508071Y-16177357D01*
X7493785Y-16148786D01*
X7479500Y-16105929D01*
X7465214Y-16034500D01*
X7465214Y-15977357D01*
X7479500Y-15905929D01*
X7493785Y-15863071D01*
X7508071Y-15834500D01*
X7536643Y-15791643D01*
X7550928Y-15777357D01*
X7650928Y-15848786D02*
X7665214Y-15834500D01*
X7693785Y-15820214D01*
X7765214Y-15820214D01*
X7793785Y-15834500D01*
X7808071Y-15848786D01*
X7822357Y-15877357D01*
X7822357Y-15905929D01*
X7808071Y-15948786D01*
X7636643Y-16120214D01*
X7822357Y-16120214D01*
X8179500Y-16120214D02*
X8179500Y-15820214D01*
X8308071Y-16120214D02*
X8308071Y-15963071D01*
X8293785Y-15934500D01*
X8265214Y-15920214D01*
X8222357Y-15920214D01*
X8193785Y-15934500D01*
X8179500Y-15948786D01*
X8493786Y-16120214D02*
X8465214Y-16105929D01*
X8450928Y-16091643D01*
X8436643Y-16063071D01*
X8436643Y-15977357D01*
X8450928Y-15948786D01*
X8465214Y-15934500D01*
X8493786Y-15920214D01*
X8536643Y-15920214D01*
X8565214Y-15934500D01*
X8579500Y-15948786D01*
X8593786Y-15977357D01*
X8593786Y-16063071D01*
X8579500Y-16091643D01*
X8565214Y-16105929D01*
X8536643Y-16120214D01*
X8493786Y-16120214D01*
X8765214Y-16120214D02*
X8736643Y-16105929D01*
X8722357Y-16077357D01*
X8722357Y-15820214D01*
X8993786Y-16105929D02*
X8965214Y-16120214D01*
X8908071Y-16120214D01*
X8879500Y-16105929D01*
X8865214Y-16077357D01*
X8865214Y-15963071D01*
X8879500Y-15934500D01*
X8908071Y-15920214D01*
X8965214Y-15920214D01*
X8993786Y-15934500D01*
X9008071Y-15963071D01*
X9008071Y-15991643D01*
X8865214Y-16020214D01*
X9122357Y-16105929D02*
X9150929Y-16120214D01*
X9208071Y-16120214D01*
X9236643Y-16105929D01*
X9250929Y-16077357D01*
X9250929Y-16063071D01*
X9236643Y-16034500D01*
X9208071Y-16020214D01*
X9165214Y-16020214D01*
X9136643Y-16005929D01*
X9122357Y-15977357D01*
X9122357Y-15963071D01*
X9136643Y-15934500D01*
X9165214Y-15920214D01*
X9208071Y-15920214D01*
X9236643Y-15934500D01*
X9350928Y-16234500D02*
X9365214Y-16220214D01*
X9393786Y-16177357D01*
X9408071Y-16148786D01*
X9422357Y-16105929D01*
X9436643Y-16034500D01*
X9436643Y-15977357D01*
X9422357Y-15905929D01*
X9408071Y-15863071D01*
X9393786Y-15834500D01*
X9365214Y-15791643D01*
X9350928Y-15777357D01*
X2864856Y-16415856D02*
X2864856Y-16345144D01*
X2794144Y-16345144D01*
X2794144Y-16415856D01*
X2864856Y-16415856D01*
X3308071Y-16516214D02*
X3136643Y-16516214D01*
X3222357Y-16516214D02*
X3222357Y-16216214D01*
X3193786Y-16259071D01*
X3165214Y-16287643D01*
X3136643Y-16301929D01*
X3436643Y-16487643D02*
X3450928Y-16501929D01*
X3436643Y-16516214D01*
X3422357Y-16501929D01*
X3436643Y-16487643D01*
X3436643Y-16516214D01*
X3636643Y-16216214D02*
X3665214Y-16216214D01*
X3693786Y-16230500D01*
X3708071Y-16244786D01*
X3722357Y-16273357D01*
X3736643Y-16330500D01*
X3736643Y-16401929D01*
X3722357Y-16459071D01*
X3708071Y-16487643D01*
X3693786Y-16501929D01*
X3665214Y-16516214D01*
X3636643Y-16516214D01*
X3608071Y-16501929D01*
X3593786Y-16487643D01*
X3579500Y-16459071D01*
X3565214Y-16401929D01*
X3565214Y-16330500D01*
X3579500Y-16273357D01*
X3593786Y-16244786D01*
X3608071Y-16230500D01*
X3636643Y-16216214D01*
X3922357Y-16216214D02*
X3950928Y-16216214D01*
X3979500Y-16230500D01*
X3993786Y-16244786D01*
X4008071Y-16273357D01*
X4022357Y-16330500D01*
X4022357Y-16401929D01*
X4008071Y-16459071D01*
X3993786Y-16487643D01*
X3979500Y-16501929D01*
X3950928Y-16516214D01*
X3922357Y-16516214D01*
X3893786Y-16501929D01*
X3879500Y-16487643D01*
X3865214Y-16459071D01*
X3850928Y-16401929D01*
X3850928Y-16330500D01*
X3865214Y-16273357D01*
X3879500Y-16244786D01*
X3893786Y-16230500D01*
X3922357Y-16216214D01*
X4150928Y-16516214D02*
X4150928Y-16316214D01*
X4150928Y-16344786D02*
X4165214Y-16330500D01*
X4193786Y-16316214D01*
X4236643Y-16316214D01*
X4265214Y-16330500D01*
X4279500Y-16359071D01*
X4279500Y-16516214D01*
X4279500Y-16359071D02*
X4293786Y-16330500D01*
X4322357Y-16316214D01*
X4365214Y-16316214D01*
X4393786Y-16330500D01*
X4408071Y-16359071D01*
X4408071Y-16516214D01*
X4550929Y-16516214D02*
X4550929Y-16316214D01*
X4550929Y-16344786D02*
X4565214Y-16330500D01*
X4593786Y-16316214D01*
X4636643Y-16316214D01*
X4665214Y-16330500D01*
X4679500Y-16359071D01*
X4679500Y-16516214D01*
X4679500Y-16359071D02*
X4693786Y-16330500D01*
X4722357Y-16316214D01*
X4765214Y-16316214D01*
X4793786Y-16330500D01*
X4808071Y-16359071D01*
X4808071Y-16516214D01*
X5393786Y-16201929D02*
X5136643Y-16587643D01*
X5779500Y-16216214D02*
X5808071Y-16216214D01*
X5836643Y-16230500D01*
X5850928Y-16244786D01*
X5865214Y-16273357D01*
X5879500Y-16330500D01*
X5879500Y-16401929D01*
X5865214Y-16459071D01*
X5850928Y-16487643D01*
X5836643Y-16501929D01*
X5808071Y-16516214D01*
X5779500Y-16516214D01*
X5750928Y-16501929D01*
X5736643Y-16487643D01*
X5722357Y-16459071D01*
X5708071Y-16401929D01*
X5708071Y-16330500D01*
X5722357Y-16273357D01*
X5736643Y-16244786D01*
X5750928Y-16230500D01*
X5779500Y-16216214D01*
X6008071Y-16487643D02*
X6022357Y-16501929D01*
X6008071Y-16516214D01*
X5993786Y-16501929D01*
X6008071Y-16487643D01*
X6008071Y-16516214D01*
X6208071Y-16216214D02*
X6236643Y-16216214D01*
X6265214Y-16230500D01*
X6279500Y-16244786D01*
X6293785Y-16273357D01*
X6308071Y-16330500D01*
X6308071Y-16401929D01*
X6293785Y-16459071D01*
X6279500Y-16487643D01*
X6265214Y-16501929D01*
X6236643Y-16516214D01*
X6208071Y-16516214D01*
X6179500Y-16501929D01*
X6165214Y-16487643D01*
X6150928Y-16459071D01*
X6136643Y-16401929D01*
X6136643Y-16330500D01*
X6150928Y-16273357D01*
X6165214Y-16244786D01*
X6179500Y-16230500D01*
X6208071Y-16216214D01*
X6408071Y-16216214D02*
X6593785Y-16216214D01*
X6493785Y-16330500D01*
X6536643Y-16330500D01*
X6565214Y-16344786D01*
X6579500Y-16359071D01*
X6593785Y-16387643D01*
X6593785Y-16459071D01*
X6579500Y-16487643D01*
X6565214Y-16501929D01*
X6536643Y-16516214D01*
X6450928Y-16516214D01*
X6422357Y-16501929D01*
X6408071Y-16487643D01*
X6736643Y-16516214D02*
X6793785Y-16516214D01*
X6822357Y-16501929D01*
X6836643Y-16487643D01*
X6865214Y-16444786D01*
X6879500Y-16387643D01*
X6879500Y-16273357D01*
X6865214Y-16244786D01*
X6850928Y-16230500D01*
X6822357Y-16216214D01*
X6765214Y-16216214D01*
X6736643Y-16230500D01*
X6722357Y-16244786D01*
X6708071Y-16273357D01*
X6708071Y-16344786D01*
X6722357Y-16373357D01*
X6736643Y-16387643D01*
X6765214Y-16401929D01*
X6822357Y-16401929D01*
X6850928Y-16387643D01*
X6865214Y-16373357D01*
X6879500Y-16344786D01*
X6993786Y-16216214D02*
X6993786Y-16273357D01*
X7108071Y-16216214D02*
X7108071Y-16273357D01*
X7550928Y-16630500D02*
X7536643Y-16616214D01*
X7508071Y-16573357D01*
X7493785Y-16544786D01*
X7479500Y-16501929D01*
X7465214Y-16430500D01*
X7465214Y-16373357D01*
X7479500Y-16301929D01*
X7493785Y-16259071D01*
X7508071Y-16230500D01*
X7536643Y-16187643D01*
X7550928Y-16173357D01*
X7822357Y-16516214D02*
X7650928Y-16516214D01*
X7736643Y-16516214D02*
X7736643Y-16216214D01*
X7708071Y-16259071D01*
X7679500Y-16287643D01*
X7650928Y-16301929D01*
X7993785Y-16344786D02*
X7965214Y-16330500D01*
X7950928Y-16316214D01*
X7936643Y-16287643D01*
X7936643Y-16273357D01*
X7950928Y-16244786D01*
X7965214Y-16230500D01*
X7993785Y-16216214D01*
X8050928Y-16216214D01*
X8079500Y-16230500D01*
X8093785Y-16244786D01*
X8108071Y-16273357D01*
X8108071Y-16287643D01*
X8093785Y-16316214D01*
X8079500Y-16330500D01*
X8050928Y-16344786D01*
X7993785Y-16344786D01*
X7965214Y-16359071D01*
X7950928Y-16373357D01*
X7936643Y-16401929D01*
X7936643Y-16459071D01*
X7950928Y-16487643D01*
X7965214Y-16501929D01*
X7993785Y-16516214D01*
X8050928Y-16516214D01*
X8079500Y-16501929D01*
X8093785Y-16487643D01*
X8108071Y-16459071D01*
X8108071Y-16401929D01*
X8093785Y-16373357D01*
X8079500Y-16359071D01*
X8050928Y-16344786D01*
X8293785Y-16216214D02*
X8322357Y-16216214D01*
X8350928Y-16230500D01*
X8365214Y-16244786D01*
X8379500Y-16273357D01*
X8393786Y-16330500D01*
X8393786Y-16401929D01*
X8379500Y-16459071D01*
X8365214Y-16487643D01*
X8350928Y-16501929D01*
X8322357Y-16516214D01*
X8293785Y-16516214D01*
X8265214Y-16501929D01*
X8250928Y-16487643D01*
X8236643Y-16459071D01*
X8222357Y-16401929D01*
X8222357Y-16330500D01*
X8236643Y-16273357D01*
X8250928Y-16244786D01*
X8265214Y-16230500D01*
X8293785Y-16216214D01*
X8750928Y-16516214D02*
X8750928Y-16216214D01*
X8879500Y-16516214D02*
X8879500Y-16359071D01*
X8865214Y-16330500D01*
X8836643Y-16316214D01*
X8793786Y-16316214D01*
X8765214Y-16330500D01*
X8750928Y-16344786D01*
X9065214Y-16516214D02*
X9036643Y-16501929D01*
X9022357Y-16487643D01*
X9008071Y-16459071D01*
X9008071Y-16373357D01*
X9022357Y-16344786D01*
X9036643Y-16330500D01*
X9065214Y-16316214D01*
X9108071Y-16316214D01*
X9136643Y-16330500D01*
X9150928Y-16344786D01*
X9165214Y-16373357D01*
X9165214Y-16459071D01*
X9150928Y-16487643D01*
X9136643Y-16501929D01*
X9108071Y-16516214D01*
X9065214Y-16516214D01*
X9336643Y-16516214D02*
X9308071Y-16501929D01*
X9293786Y-16473357D01*
X9293786Y-16216214D01*
X9565214Y-16501929D02*
X9536643Y-16516214D01*
X9479500Y-16516214D01*
X9450929Y-16501929D01*
X9436643Y-16473357D01*
X9436643Y-16359071D01*
X9450929Y-16330500D01*
X9479500Y-16316214D01*
X9536643Y-16316214D01*
X9565214Y-16330500D01*
X9579500Y-16359071D01*
X9579500Y-16387643D01*
X9436643Y-16416214D01*
X9693786Y-16501929D02*
X9722357Y-16516214D01*
X9779500Y-16516214D01*
X9808071Y-16501929D01*
X9822357Y-16473357D01*
X9822357Y-16459071D01*
X9808071Y-16430500D01*
X9779500Y-16416214D01*
X9736643Y-16416214D01*
X9708071Y-16401929D01*
X9693786Y-16373357D01*
X9693786Y-16359071D01*
X9708071Y-16330500D01*
X9736643Y-16316214D01*
X9779500Y-16316214D01*
X9808071Y-16330500D01*
X9922357Y-16630500D02*
X9936643Y-16616214D01*
X9965214Y-16573357D01*
X9979500Y-16544786D01*
X9993786Y-16501929D01*
X10008071Y-16430500D01*
X10008071Y-16373357D01*
X9993786Y-16301929D01*
X9979500Y-16259071D01*
X9965214Y-16230500D01*
X9936643Y-16187643D01*
X9922357Y-16173357D01*
X2804500Y-16851500D02*
X2879500Y-16776500D01*
X2804500Y-16701500D01*
X2729500Y-16776500D01*
X2804500Y-16851500D01*
X3308071Y-16912214D02*
X3136643Y-16912214D01*
X3222357Y-16912214D02*
X3222357Y-16612214D01*
X3193786Y-16655071D01*
X3165214Y-16683643D01*
X3136643Y-16697929D01*
X3436643Y-16883643D02*
X3450928Y-16897929D01*
X3436643Y-16912214D01*
X3422357Y-16897929D01*
X3436643Y-16883643D01*
X3436643Y-16912214D01*
X3722357Y-16612214D02*
X3579500Y-16612214D01*
X3565214Y-16755071D01*
X3579500Y-16740786D01*
X3608071Y-16726500D01*
X3679500Y-16726500D01*
X3708071Y-16740786D01*
X3722357Y-16755071D01*
X3736643Y-16783643D01*
X3736643Y-16855072D01*
X3722357Y-16883643D01*
X3708071Y-16897929D01*
X3679500Y-16912214D01*
X3608071Y-16912214D01*
X3579500Y-16897929D01*
X3565214Y-16883643D01*
X3922357Y-16612214D02*
X3950928Y-16612214D01*
X3979500Y-16626500D01*
X3993786Y-16640786D01*
X4008071Y-16669357D01*
X4022357Y-16726500D01*
X4022357Y-16797929D01*
X4008071Y-16855072D01*
X3993786Y-16883643D01*
X3979500Y-16897929D01*
X3950928Y-16912214D01*
X3922357Y-16912214D01*
X3893786Y-16897929D01*
X3879500Y-16883643D01*
X3865214Y-16855072D01*
X3850928Y-16797929D01*
X3850928Y-16726500D01*
X3865214Y-16669357D01*
X3879500Y-16640786D01*
X3893786Y-16626500D01*
X3922357Y-16612214D01*
X4150928Y-16912214D02*
X4150928Y-16712214D01*
X4150928Y-16740786D02*
X4165214Y-16726500D01*
X4193786Y-16712214D01*
X4236643Y-16712214D01*
X4265214Y-16726500D01*
X4279500Y-16755071D01*
X4279500Y-16912214D01*
X4279500Y-16755071D02*
X4293786Y-16726500D01*
X4322357Y-16712214D01*
X4365214Y-16712214D01*
X4393786Y-16726500D01*
X4408071Y-16755071D01*
X4408071Y-16912214D01*
X4550929Y-16912214D02*
X4550929Y-16712214D01*
X4550929Y-16740786D02*
X4565214Y-16726500D01*
X4593786Y-16712214D01*
X4636643Y-16712214D01*
X4665214Y-16726500D01*
X4679500Y-16755071D01*
X4679500Y-16912214D01*
X4679500Y-16755071D02*
X4693786Y-16726500D01*
X4722357Y-16712214D01*
X4765214Y-16712214D01*
X4793786Y-16726500D01*
X4808071Y-16755071D01*
X4808071Y-16912214D01*
X5393786Y-16597929D02*
X5136643Y-16983643D01*
X5779500Y-16612214D02*
X5808071Y-16612214D01*
X5836643Y-16626500D01*
X5850928Y-16640786D01*
X5865214Y-16669357D01*
X5879500Y-16726500D01*
X5879500Y-16797929D01*
X5865214Y-16855072D01*
X5850928Y-16883643D01*
X5836643Y-16897929D01*
X5808071Y-16912214D01*
X5779500Y-16912214D01*
X5750928Y-16897929D01*
X5736643Y-16883643D01*
X5722357Y-16855072D01*
X5708071Y-16797929D01*
X5708071Y-16726500D01*
X5722357Y-16669357D01*
X5736643Y-16640786D01*
X5750928Y-16626500D01*
X5779500Y-16612214D01*
X6008071Y-16883643D02*
X6022357Y-16897929D01*
X6008071Y-16912214D01*
X5993786Y-16897929D01*
X6008071Y-16883643D01*
X6008071Y-16912214D01*
X6208071Y-16612214D02*
X6236643Y-16612214D01*
X6265214Y-16626500D01*
X6279500Y-16640786D01*
X6293785Y-16669357D01*
X6308071Y-16726500D01*
X6308071Y-16797929D01*
X6293785Y-16855072D01*
X6279500Y-16883643D01*
X6265214Y-16897929D01*
X6236643Y-16912214D01*
X6208071Y-16912214D01*
X6179500Y-16897929D01*
X6165214Y-16883643D01*
X6150928Y-16855072D01*
X6136643Y-16797929D01*
X6136643Y-16726500D01*
X6150928Y-16669357D01*
X6165214Y-16640786D01*
X6179500Y-16626500D01*
X6208071Y-16612214D01*
X6579500Y-16612214D02*
X6436643Y-16612214D01*
X6422357Y-16755071D01*
X6436643Y-16740786D01*
X6465214Y-16726500D01*
X6536643Y-16726500D01*
X6565214Y-16740786D01*
X6579500Y-16755071D01*
X6593785Y-16783643D01*
X6593785Y-16855072D01*
X6579500Y-16883643D01*
X6565214Y-16897929D01*
X6536643Y-16912214D01*
X6465214Y-16912214D01*
X6436643Y-16897929D01*
X6422357Y-16883643D01*
X6736643Y-16912214D02*
X6793785Y-16912214D01*
X6822357Y-16897929D01*
X6836643Y-16883643D01*
X6865214Y-16840786D01*
X6879500Y-16783643D01*
X6879500Y-16669357D01*
X6865214Y-16640786D01*
X6850928Y-16626500D01*
X6822357Y-16612214D01*
X6765214Y-16612214D01*
X6736643Y-16626500D01*
X6722357Y-16640786D01*
X6708071Y-16669357D01*
X6708071Y-16740786D01*
X6722357Y-16769357D01*
X6736643Y-16783643D01*
X6765214Y-16797929D01*
X6822357Y-16797929D01*
X6850928Y-16783643D01*
X6865214Y-16769357D01*
X6879500Y-16740786D01*
X6993786Y-16612214D02*
X6993786Y-16669357D01*
X7108071Y-16612214D02*
X7108071Y-16669357D01*
X7550928Y-17026500D02*
X7536643Y-17012214D01*
X7508071Y-16969357D01*
X7493785Y-16940786D01*
X7479500Y-16897929D01*
X7465214Y-16826500D01*
X7465214Y-16769357D01*
X7479500Y-16697929D01*
X7493785Y-16655071D01*
X7508071Y-16626500D01*
X7536643Y-16583643D01*
X7550928Y-16569357D01*
X7722357Y-16612214D02*
X7750928Y-16612214D01*
X7779500Y-16626500D01*
X7793785Y-16640786D01*
X7808071Y-16669357D01*
X7822357Y-16726500D01*
X7822357Y-16797929D01*
X7808071Y-16855072D01*
X7793785Y-16883643D01*
X7779500Y-16897929D01*
X7750928Y-16912214D01*
X7722357Y-16912214D01*
X7693785Y-16897929D01*
X7679500Y-16883643D01*
X7665214Y-16855072D01*
X7650928Y-16797929D01*
X7650928Y-16726500D01*
X7665214Y-16669357D01*
X7679500Y-16640786D01*
X7693785Y-16626500D01*
X7722357Y-16612214D01*
X8179500Y-16912214D02*
X8179500Y-16612214D01*
X8308071Y-16912214D02*
X8308071Y-16755071D01*
X8293785Y-16726500D01*
X8265214Y-16712214D01*
X8222357Y-16712214D01*
X8193785Y-16726500D01*
X8179500Y-16740786D01*
X8493786Y-16912214D02*
X8465214Y-16897929D01*
X8450928Y-16883643D01*
X8436643Y-16855072D01*
X8436643Y-16769357D01*
X8450928Y-16740786D01*
X8465214Y-16726500D01*
X8493786Y-16712214D01*
X8536643Y-16712214D01*
X8565214Y-16726500D01*
X8579500Y-16740786D01*
X8593786Y-16769357D01*
X8593786Y-16855072D01*
X8579500Y-16883643D01*
X8565214Y-16897929D01*
X8536643Y-16912214D01*
X8493786Y-16912214D01*
X8765214Y-16912214D02*
X8736643Y-16897929D01*
X8722357Y-16869357D01*
X8722357Y-16612214D01*
X8993786Y-16897929D02*
X8965214Y-16912214D01*
X8908071Y-16912214D01*
X8879500Y-16897929D01*
X8865214Y-16869357D01*
X8865214Y-16755071D01*
X8879500Y-16726500D01*
X8908071Y-16712214D01*
X8965214Y-16712214D01*
X8993786Y-16726500D01*
X9008071Y-16755071D01*
X9008071Y-16783643D01*
X8865214Y-16812214D01*
X9122357Y-16897929D02*
X9150929Y-16912214D01*
X9208071Y-16912214D01*
X9236643Y-16897929D01*
X9250929Y-16869357D01*
X9250929Y-16855072D01*
X9236643Y-16826500D01*
X9208071Y-16812214D01*
X9165214Y-16812214D01*
X9136643Y-16797929D01*
X9122357Y-16769357D01*
X9122357Y-16755071D01*
X9136643Y-16726500D01*
X9165214Y-16712214D01*
X9208071Y-16712214D01*
X9236643Y-16726500D01*
X9608071Y-16797929D02*
X9836643Y-16797929D01*
X9722357Y-16912214D02*
X9722357Y-16683643D01*
X10365214Y-16912214D02*
X10193786Y-16912214D01*
X10279500Y-16912214D02*
X10279500Y-16612214D01*
X10250928Y-16655071D01*
X10222357Y-16683643D01*
X10193786Y-16697929D01*
X10465214Y-16612214D02*
X10665214Y-16612214D01*
X10536643Y-16912214D01*
X10908071Y-16712214D02*
X10908071Y-16912214D01*
X10836643Y-16597929D02*
X10765214Y-16812214D01*
X10950928Y-16812214D01*
X11279500Y-16897929D02*
X11308071Y-16912214D01*
X11365214Y-16912214D01*
X11393786Y-16897929D01*
X11408071Y-16869357D01*
X11408071Y-16855072D01*
X11393786Y-16826500D01*
X11365214Y-16812214D01*
X11322357Y-16812214D01*
X11293786Y-16797929D01*
X11279500Y-16769357D01*
X11279500Y-16755071D01*
X11293786Y-16726500D01*
X11322357Y-16712214D01*
X11365214Y-16712214D01*
X11393786Y-16726500D01*
X11579500Y-16912214D02*
X11550928Y-16897929D01*
X11536643Y-16869357D01*
X11536643Y-16612214D01*
X11736643Y-16912214D02*
X11708071Y-16897929D01*
X11693786Y-16883643D01*
X11679500Y-16855072D01*
X11679500Y-16769357D01*
X11693786Y-16740786D01*
X11708071Y-16726500D01*
X11736643Y-16712214D01*
X11779500Y-16712214D01*
X11808071Y-16726500D01*
X11822357Y-16740786D01*
X11836643Y-16769357D01*
X11836643Y-16855072D01*
X11822357Y-16883643D01*
X11808071Y-16897929D01*
X11779500Y-16912214D01*
X11736643Y-16912214D01*
X11922357Y-16712214D02*
X12036643Y-16712214D01*
X11965214Y-16612214D02*
X11965214Y-16869357D01*
X11979500Y-16897929D01*
X12008071Y-16912214D01*
X12036643Y-16912214D01*
X12122357Y-16897929D02*
X12150928Y-16912214D01*
X12208071Y-16912214D01*
X12236643Y-16897929D01*
X12250928Y-16869357D01*
X12250928Y-16855072D01*
X12236643Y-16826500D01*
X12208071Y-16812214D01*
X12165214Y-16812214D01*
X12136643Y-16797929D01*
X12122357Y-16769357D01*
X12122357Y-16755071D01*
X12136643Y-16726500D01*
X12165214Y-16712214D01*
X12208071Y-16712214D01*
X12236643Y-16726500D01*
X12350928Y-17026500D02*
X12365214Y-17012214D01*
X12393786Y-16969357D01*
X12408071Y-16940786D01*
X12422357Y-16897929D01*
X12436643Y-16826500D01*
X12436643Y-16769357D01*
X12422357Y-16697929D01*
X12408071Y-16655071D01*
X12393786Y-16626500D01*
X12365214Y-16583643D01*
X12350928Y-16569357D01*
M02*
