M48
; DRILL file {KiCad 5.1.4+dfsg1-1} date Sat 31 Aug 2019 16:21:14 AEST
; FORMAT={-:-/ absolute / inch / decimal}
; #@! TF.CreationDate,2019-08-31T16:21:14+10:00
; #@! TF.GenerationSoftware,Kicad,Pcbnew,5.1.4+dfsg1-1
; #@! TF.FileFunction,NonPlated,1,2,NPTH
FMAT,2
INCH
T1C0.0669
T2C0.1201
T3C0.1575
%
G90
G05
T1
X10.3087Y-2.2717
X10.7087Y-2.2717
X5.8146Y-2.2713
X6.2146Y-2.2713
X2.7791Y-1.322
X3.1791Y-1.322
X4.872Y-3.7709
X5.272Y-3.7709
X9.9417Y-3.024
X10.3417Y-3.024
X8.4378Y-3.0236
X8.8378Y-3.0236
X5.0638Y-2.2713
X5.4638Y-2.2713
X8.0638Y-2.272
X8.4638Y-2.272
X9.7602Y-4.5169
X10.1602Y-4.5169
X4.5134Y-4.515
X4.9134Y-4.515
X6.098Y-5.2587
X6.498Y-5.2587
X2.4484Y-3.0244
X2.8484Y-3.0244
X13.5181Y-1.3311
X13.9181Y-1.3311
X6.0083Y-4.5157
X6.4083Y-4.5157
X1.5165Y-3.0232
X1.9165Y-3.0232
X9.8433Y-5.2657
X10.2433Y-5.2657
X12.7693Y-1.3315
X13.1693Y-1.3315
X10.1209Y-3.7697
X10.5209Y-3.7697
X4.6913Y-3.024
X5.0913Y-3.024
X8.6169Y-3.7697
X9.0169Y-3.7697
X1.322Y-2.2685
X1.722Y-2.2685
X3.5299Y-1.3232
X3.9299Y-1.3232
X14.263Y-5.2622
X14.663Y-5.2622
X5.2646Y-4.5157
X5.6646Y-4.5157
X11.7988Y-1.3441
X12.1988Y-1.3441
X11.0484Y-1.3445
X11.4484Y-1.3445
X1.7933Y-4.5098
X2.1933Y-4.5098
X14.2622Y-2.2811
X14.6622Y-2.2811
X5.4417Y-3.024
X5.8417Y-3.024
X3.572Y-2.2717
X3.972Y-2.2717
X3.9374Y-3.0236
X4.3374Y-3.0236
X9.1906Y-3.0232
X9.5906Y-3.0232
X2.0752Y-2.272
X2.4752Y-2.272
X3.0102Y-4.5157
X3.4102Y-4.5157
X5.0232Y-1.3228
X5.4232Y-1.3228
X6.1937Y-3.0232
X6.5937Y-3.0232
X4.2783Y-1.3205
X4.6783Y-1.3205
X13.5094Y-4.5165
X13.9094Y-4.5165
X4.3173Y-2.272
X4.7173Y-2.272
X13.5087Y-5.263
X13.9087Y-5.263
X10.3043Y-1.3449
X10.7043Y-1.3449
X14.2642Y-3.0287
X14.6642Y-3.0287
X7.8717Y-3.7689
X8.2717Y-3.7689
X6.9398Y-3.0236
X7.3398Y-3.0236
X11.7303Y-5.2665
X12.1303Y-5.2665
X12.7614Y-5.2626
X13.1614Y-5.2626
X8.8161Y-2.2709
X9.2161Y-2.2709
X7.6913Y-3.0236
X8.0913Y-3.0236
X12.7689Y-2.2807
X13.1689Y-2.2807
X7.5138Y-4.5138
X7.9138Y-4.5138
X11.3449Y-3.7748
X11.7449Y-3.7748
X8.2571Y-4.5138
X8.6571Y-4.5138
X8.411Y-1.3362
X8.811Y-1.3362
X3.2831Y-5.2575
X3.6831Y-5.2575
X9.5614Y-2.2713
X9.9614Y-2.2713
X11.1665Y-4.5165
X11.5665Y-4.5165
X6.9126Y-1.3323
X7.3126Y-1.3323
X6.7594Y-4.5154
X7.1594Y-4.5154
X7.6602Y-1.3323
X8.0602Y-1.3323
X1.4079Y-5.2594
X1.8079Y-5.2594
X2.8201Y-2.2717
X3.2201Y-2.2717
X11.4378Y-2.2685
X11.8378Y-2.2685
X12.7638Y-3.0228
X13.1638Y-3.0228
X8.9087Y-5.2618
X9.3087Y-5.2618
X1.3122Y-1.3185
X1.7122Y-1.3185
X13.5098Y-2.2799
X13.9098Y-2.2799
X4.1248Y-3.7685
X4.5248Y-3.7685
X7.1189Y-3.7693
X7.5189Y-3.7693
X11.6303Y-3.0252
X12.0303Y-3.0252
X2.3429Y-5.2594
X2.7429Y-5.2594
X13.5114Y-3.0236
X13.9114Y-3.0236
X5.6236Y-3.7697
X6.0236Y-3.7697
X1.6004Y-3.7673
X2.0004Y-3.7673
X10.6866Y-3.0236
X11.0866Y-3.0236
X7.3122Y-2.2724
X7.7122Y-2.2724
X6.5685Y-2.2717
X6.9685Y-2.2717
X2.6272Y-3.7697
X3.0272Y-3.7697
X9.552Y-1.3445
X9.952Y-1.3445
X3.1945Y-3.0236
X3.5945Y-3.0236
X9.0035Y-4.5169
X9.4035Y-4.5169
X6.3752Y-3.7697
X6.7752Y-3.7697
X3.3787Y-3.7693
X3.7787Y-3.7693
X9.3713Y-3.7685
X9.7713Y-3.7685
X14.263Y-1.3295
X14.663Y-1.3295
X6.1602Y-1.3311
X6.5602Y-1.3311
X10.7882Y-5.2665
X11.1882Y-5.2665
X3.7614Y-4.5165
X4.1614Y-4.5165
T2
X4.3295Y-5.5343
X8.2665Y-5.5343
X1.5248Y-4.7854
X2.4618Y-4.7854
X11.0764Y-4.0504
X12.0134Y-4.0504
X10.898Y-4.7921
X11.835Y-4.7921
X11.1693Y-2.5441
X12.1063Y-2.5441
T3
X11.2484Y-1.3445
X1.5248Y-4.1854
X1.9933Y-4.5098
X2.4618Y-4.1854
X14.4622Y-2.2811
X5.6417Y-3.024
X3.772Y-2.2717
X4.1374Y-3.0236
X9.3906Y-3.0232
X2.2752Y-2.272
X3.2102Y-4.5157
X5.2232Y-1.3228
X6.3937Y-3.0232
X4.4783Y-1.3205
X13.7094Y-4.5165
X4.5173Y-2.272
X13.7087Y-5.263
X10.5043Y-1.3449
X14.4642Y-3.0287
X8.0717Y-3.7689
X7.1398Y-3.0236
X11.9303Y-5.2665
X12.9614Y-5.2626
X9.0161Y-2.2709
X7.8913Y-3.0236
X12.9689Y-2.2807
X7.7138Y-4.5138
X11.0764Y-3.4504
X11.5449Y-3.7748
X12.0134Y-3.4504
X8.4571Y-4.5138
X8.611Y-1.3362
X3.4831Y-5.2575
X9.7614Y-2.2713
X10.898Y-4.1921
X11.3665Y-4.5165
X11.835Y-4.1921
X7.1126Y-1.3323
X6.9594Y-4.5154
X7.8602Y-1.3323
X1.6079Y-5.2594
X3.0201Y-2.2717
X11.1693Y-1.9441
X11.6378Y-2.2685
X12.1063Y-1.9441
X12.9638Y-3.0228
X9.1087Y-5.2618
X1.5122Y-1.3185
X13.7098Y-2.2799
X4.3248Y-3.7685
X7.3189Y-3.7693
X11.8303Y-3.0252
X2.5429Y-5.2594
X13.7114Y-3.0236
X5.8236Y-3.7697
X1.8004Y-3.7673
X10.8866Y-3.0236
X7.5122Y-2.2724
X6.7685Y-2.2717
X2.8272Y-3.7697
X9.752Y-1.3445
X3.3945Y-3.0236
X9.2035Y-4.5169
X6.5752Y-3.7697
X3.5787Y-3.7693
X9.5713Y-3.7685
X14.463Y-1.3295
X6.3602Y-1.3311
X10.9882Y-5.2665
X3.9614Y-4.5165
X10.5087Y-2.2717
X6.0146Y-2.2713
X2.9791Y-1.322
X5.072Y-3.7709
X10.1417Y-3.024
X8.6378Y-3.0236
X5.2638Y-2.2713
X8.2638Y-2.272
X9.9602Y-4.5169
X4.7134Y-4.515
X4.3295Y-4.9343
X6.298Y-5.2587
X8.2665Y-4.9343
X2.6484Y-3.0244
X13.7181Y-1.3311
X6.2083Y-4.5157
X1.7165Y-3.0232
X10.0433Y-5.2657
X12.9693Y-1.3315
X10.3209Y-3.7697
X4.8913Y-3.024
X8.8169Y-3.7697
X1.522Y-2.2685
X3.7299Y-1.3232
X14.463Y-5.2622
X5.4646Y-4.5157
X11.9988Y-1.3441
T0
M30
