%FSLAX45Y45*%
G04 Gerber Fmt 4.5, Leading zero omitted, Abs format (unit mm)*
G04 Created by KiCad (PCBNEW 4.0.7) date Thu Sep  6 10:03:21 2018*
%MOMM*%
%LPD*%
G01*
G04 APERTURE LIST*
%ADD10C,0.127000*%
%ADD11C,0.150000*%
%ADD12C,0.200000*%
%ADD13C,0.300000*%
G04 APERTURE END LIST*
D10*
D11*
X36425000Y-11550000D02*
X37680000Y-11550000D01*
X36425000Y-10344000D02*
X36435000Y-9451000D01*
X36425000Y-11550000D02*
X36425000Y-10345000D01*
X36435000Y-9450000D02*
X36435000Y-8680000D01*
X2895000Y-2800000D02*
X2887000Y-2855000D01*
X2915000Y-2750000D02*
X2895000Y-2800000D01*
X2947000Y-2697000D02*
X2915000Y-2750000D01*
X2992000Y-2643000D02*
X2947000Y-2698000D01*
X3044000Y-2597000D02*
X2992000Y-2643000D01*
X3100000Y-2560000D02*
X3044000Y-2597000D01*
X3150000Y-2530000D02*
X3100000Y-2560000D01*
X3200000Y-2510000D02*
X3150000Y-2530000D01*
X3250000Y-2495000D02*
X3200000Y-2510000D01*
X3340000Y-2475000D02*
X3250000Y-2495000D01*
X3445000Y-2465000D02*
X3340000Y-2475000D01*
X3550000Y-2460000D02*
X3445000Y-2465000D01*
X37105000Y-2485000D02*
X3550000Y-2460000D01*
X37260000Y-2490000D02*
X37105000Y-2485000D01*
X37360000Y-2505000D02*
X37260000Y-2490000D01*
X37420000Y-2530000D02*
X37360000Y-2505000D01*
X37485000Y-2580000D02*
X37420000Y-2530000D01*
X37530000Y-2635000D02*
X37485000Y-2580000D01*
X37555000Y-2675000D02*
X37530000Y-2635000D01*
X37595000Y-2770000D02*
X37555000Y-2675000D01*
X37620000Y-2835000D02*
X37595000Y-2770000D01*
X37650000Y-2905000D02*
X37620000Y-2835000D01*
X37670000Y-2975000D02*
X37650000Y-2905000D01*
X37680000Y-3050000D02*
X37670000Y-2975000D01*
X37700000Y-8345000D02*
X37680000Y-3050000D01*
X37505000Y-8680000D02*
X37700000Y-8345000D01*
X36435000Y-8680000D02*
X37505000Y-8680000D01*
X37675000Y-13550000D02*
X37680000Y-11550000D01*
X37665000Y-13730000D02*
X37675000Y-13550000D01*
X37645000Y-13865000D02*
X37665000Y-13730000D01*
X37625000Y-13955000D02*
X37645000Y-13865000D01*
X37600000Y-14015000D02*
X37625000Y-13955000D01*
X37570000Y-14065000D02*
X37600000Y-14015000D01*
X37530000Y-14115000D02*
X37570000Y-14065000D01*
X37485000Y-14155000D02*
X37530000Y-14115000D01*
X37435000Y-14190000D02*
X37485000Y-14155000D01*
X37400000Y-14210000D02*
X37435000Y-14190000D01*
X37345000Y-14225000D02*
X37400000Y-14210000D01*
X3290000Y-14225000D02*
X37345000Y-14225000D01*
X3215000Y-14205000D02*
X3290000Y-14225000D01*
X3170000Y-14182000D02*
X3215000Y-14205000D01*
X3120000Y-14155000D02*
X3169000Y-14182000D01*
X3080000Y-14115000D02*
X3120000Y-14155000D01*
X3040000Y-14060000D02*
X3080000Y-14115000D01*
X3010000Y-14015000D02*
X3040000Y-14060000D01*
X2995000Y-13949000D02*
X3010000Y-14015000D01*
X3000000Y-12260000D02*
X2995000Y-13950000D01*
X3580000Y-12260000D02*
X3000000Y-12260000D01*
X3580000Y-8660000D02*
X3580000Y-12260000D01*
X2890000Y-8655000D02*
X3580000Y-8660000D01*
X2887000Y-2855000D02*
X2890000Y-8655000D01*
D12*
X3246910Y-3264910D02*
X3417090Y-3435090D01*
X3417090Y-3264910D02*
X3246910Y-3435090D01*
X3276910Y-5684910D02*
X3447090Y-5855090D01*
X3447090Y-5684910D02*
X3276910Y-5855090D01*
X3506910Y-13259910D02*
X3677090Y-13430090D01*
X3677090Y-13259910D02*
X3506910Y-13430090D01*
X3766910Y-7594910D02*
X3937090Y-7765090D01*
X3937090Y-7594910D02*
X3766910Y-7765090D01*
X3991910Y-9469910D02*
X4162090Y-9640090D01*
X4162090Y-9469910D02*
X3991910Y-9640090D01*
X4262910Y-3264910D02*
X4433090Y-3435090D01*
X4433090Y-3264910D02*
X4262910Y-3435090D01*
X4292910Y-5684910D02*
X4463090Y-5855090D01*
X4463090Y-5684910D02*
X4292910Y-5855090D01*
X4471910Y-11324910D02*
X4642090Y-11495090D01*
X4642090Y-11324910D02*
X4471910Y-11495090D01*
X4522910Y-13259910D02*
X4693090Y-13430090D01*
X4693090Y-13259910D02*
X4522910Y-13430090D01*
X4782910Y-7594910D02*
X4953090Y-7765090D01*
X4953090Y-7594910D02*
X4782910Y-7765090D01*
X5007910Y-9469910D02*
X5178090Y-9640090D01*
X5178090Y-9469910D02*
X5007910Y-9640090D01*
X5186910Y-5684910D02*
X5357090Y-5855090D01*
X5357090Y-5684910D02*
X5186910Y-5855090D01*
X5487910Y-11324910D02*
X5658090Y-11495090D01*
X5658090Y-11324910D02*
X5487910Y-11495090D01*
X5876910Y-13259910D02*
X6047090Y-13430090D01*
X6047090Y-13259910D02*
X5876910Y-13430090D01*
X6131910Y-7594910D02*
X6302090Y-7765090D01*
X6302090Y-7594910D02*
X6131910Y-7765090D01*
X6202910Y-5684910D02*
X6373090Y-5855090D01*
X6373090Y-5684910D02*
X6202910Y-5855090D01*
X6586910Y-9489910D02*
X6757090Y-9660090D01*
X6757090Y-9489910D02*
X6586910Y-9660090D01*
X6892910Y-13259910D02*
X7063090Y-13430090D01*
X7063090Y-13259910D02*
X6892910Y-13430090D01*
X6971910Y-3274910D02*
X7142090Y-3445090D01*
X7142090Y-3274910D02*
X6971910Y-3445090D01*
X7076910Y-5684910D02*
X7247090Y-5855090D01*
X7247090Y-5684910D02*
X7076910Y-5855090D01*
X7147910Y-7594910D02*
X7318090Y-7765090D01*
X7318090Y-7594910D02*
X7147910Y-7765090D01*
X7561910Y-11384910D02*
X7732090Y-11555090D01*
X7732090Y-11384910D02*
X7561910Y-11555090D01*
X7602910Y-9489910D02*
X7773090Y-9660090D01*
X7773090Y-9489910D02*
X7602910Y-9660090D01*
X7987910Y-3274910D02*
X8158090Y-3445090D01*
X8158090Y-3274910D02*
X7987910Y-3445090D01*
X8026910Y-7594910D02*
X8197090Y-7765090D01*
X8197090Y-7594910D02*
X8026910Y-7765090D01*
X8092910Y-5684910D02*
X8263090Y-5855090D01*
X8263090Y-5684910D02*
X8092910Y-5855090D01*
X8251910Y-13269910D02*
X8422090Y-13440090D01*
X8422090Y-13269910D02*
X8251910Y-13440090D01*
X8496910Y-9489910D02*
X8667090Y-9660090D01*
X8667090Y-9489910D02*
X8496910Y-9660090D01*
X8577910Y-11384910D02*
X8748090Y-11555090D01*
X8748090Y-11384910D02*
X8577910Y-11555090D01*
X8876910Y-3274910D02*
X9047090Y-3445090D01*
X9047090Y-3274910D02*
X8876910Y-3445090D01*
X8986910Y-5684910D02*
X9157090Y-5855090D01*
X9157090Y-5684910D02*
X8986910Y-5855090D01*
X9042910Y-7594910D02*
X9213090Y-7765090D01*
X9213090Y-7594910D02*
X9042910Y-7765090D01*
X9267910Y-13269910D02*
X9438090Y-13440090D01*
X9438090Y-13269910D02*
X9267910Y-13440090D01*
X9466910Y-11384910D02*
X9637090Y-11555090D01*
X9637090Y-11384910D02*
X9466910Y-11555090D01*
X9512910Y-9489910D02*
X9683090Y-9660090D01*
X9683090Y-9489910D02*
X9512910Y-9660090D01*
X9892910Y-3274910D02*
X10063090Y-3445090D01*
X10063090Y-3274910D02*
X9892910Y-3445090D01*
X9916910Y-7594910D02*
X10087090Y-7765090D01*
X10087090Y-7594910D02*
X9916910Y-7765090D01*
X10002910Y-5684910D02*
X10173090Y-5855090D01*
X10173090Y-5684910D02*
X10002910Y-5855090D01*
X10391910Y-9489910D02*
X10562090Y-9660090D01*
X10562090Y-9489910D02*
X10391910Y-9660090D01*
X10482910Y-11384910D02*
X10653090Y-11555090D01*
X10653090Y-11384910D02*
X10482910Y-11555090D01*
X10781910Y-3269910D02*
X10952090Y-3440090D01*
X10952090Y-3269910D02*
X10781910Y-3440090D01*
X10881910Y-5684910D02*
X11052090Y-5855090D01*
X11052090Y-5684910D02*
X10881910Y-5855090D01*
X10932910Y-7594910D02*
X11103090Y-7765090D01*
X11103090Y-7594910D02*
X10932910Y-7765090D01*
X11376910Y-11384910D02*
X11547090Y-11555090D01*
X11547090Y-11384910D02*
X11376910Y-11555090D01*
X11407910Y-9489910D02*
X11578090Y-9660090D01*
X11578090Y-9489910D02*
X11407910Y-9660090D01*
X11797910Y-3269910D02*
X11968090Y-3440090D01*
X11968090Y-3269910D02*
X11797910Y-3440090D01*
X11826910Y-7594910D02*
X11997090Y-7765090D01*
X11997090Y-7594910D02*
X11826910Y-7765090D01*
X11897910Y-5684910D02*
X12068090Y-5855090D01*
X12068090Y-5684910D02*
X11897910Y-5855090D01*
X12286910Y-9489910D02*
X12457090Y-9660090D01*
X12457090Y-9489910D02*
X12286910Y-9660090D01*
X12392910Y-11384910D02*
X12563090Y-11555090D01*
X12563090Y-11384910D02*
X12392910Y-11555090D01*
X12671910Y-3274910D02*
X12842090Y-3445090D01*
X12842090Y-3274910D02*
X12671910Y-3445090D01*
X12776910Y-5684910D02*
X12947090Y-5855090D01*
X12947090Y-5684910D02*
X12776910Y-5855090D01*
X12842910Y-7594910D02*
X13013090Y-7765090D01*
X13013090Y-7594910D02*
X12842910Y-7765090D01*
X13281910Y-11384910D02*
X13452090Y-11555090D01*
X13452090Y-11384910D02*
X13281910Y-11555090D01*
X13302910Y-9489910D02*
X13473090Y-9660090D01*
X13473090Y-9489910D02*
X13302910Y-9660090D01*
X13687910Y-3274910D02*
X13858090Y-3445090D01*
X13858090Y-3274910D02*
X13687910Y-3445090D01*
X13736910Y-7594910D02*
X13907090Y-7765090D01*
X13907090Y-7594910D02*
X13736910Y-7765090D01*
X13792910Y-5684910D02*
X13963090Y-5855090D01*
X13963090Y-5684910D02*
X13792910Y-5855090D01*
X14196910Y-9489910D02*
X14367090Y-9660090D01*
X14367090Y-9489910D02*
X14196910Y-9660090D01*
X14297910Y-11384910D02*
X14468090Y-11555090D01*
X14468090Y-11384910D02*
X14297910Y-11555090D01*
X14686910Y-5684910D02*
X14857090Y-5855090D01*
X14857090Y-5684910D02*
X14686910Y-5855090D01*
X14752910Y-7594910D02*
X14923090Y-7765090D01*
X14923090Y-7594910D02*
X14752910Y-7765090D01*
X15176910Y-11384910D02*
X15347090Y-11555090D01*
X15347090Y-11384910D02*
X15176910Y-11555090D01*
X15212910Y-9489910D02*
X15383090Y-9660090D01*
X15383090Y-9489910D02*
X15212910Y-9660090D01*
X15401910Y-13239910D02*
X15572090Y-13410090D01*
X15572090Y-13239910D02*
X15401910Y-13410090D01*
X15561910Y-3294910D02*
X15732090Y-3465090D01*
X15732090Y-3294910D02*
X15561910Y-3465090D01*
X15646910Y-7594910D02*
X15817090Y-7765090D01*
X15817090Y-7594910D02*
X15646910Y-7765090D01*
X15702910Y-5684910D02*
X15873090Y-5855090D01*
X15873090Y-5684910D02*
X15702910Y-5855090D01*
X16106910Y-9489910D02*
X16277090Y-9660090D01*
X16277090Y-9489910D02*
X16106910Y-9660090D01*
X16192910Y-11384910D02*
X16363090Y-11555090D01*
X16363090Y-11384910D02*
X16192910Y-11555090D01*
X16417910Y-13239910D02*
X16588090Y-13410090D01*
X16588090Y-13239910D02*
X16417910Y-13410090D01*
X16577910Y-3294910D02*
X16748090Y-3465090D01*
X16748090Y-3294910D02*
X16577910Y-3465090D01*
X16596910Y-5684910D02*
X16767090Y-5855090D01*
X16767090Y-5684910D02*
X16596910Y-5855090D01*
X16662910Y-7594910D02*
X16833090Y-7765090D01*
X16833090Y-7594910D02*
X16662910Y-7765090D01*
X17081910Y-11384910D02*
X17252090Y-11555090D01*
X17252090Y-11384910D02*
X17081910Y-11555090D01*
X17122910Y-9489910D02*
X17293090Y-9660090D01*
X17293090Y-9489910D02*
X17122910Y-9660090D01*
X17471910Y-3299910D02*
X17642090Y-3470090D01*
X17642090Y-3299910D02*
X17471910Y-3470090D01*
X17541910Y-7594910D02*
X17712090Y-7765090D01*
X17712090Y-7594910D02*
X17541910Y-7765090D01*
X17612910Y-5684910D02*
X17783090Y-5855090D01*
X17783090Y-5684910D02*
X17612910Y-5855090D01*
X17996910Y-9489910D02*
X18167090Y-9660090D01*
X18167090Y-9489910D02*
X17996910Y-9660090D01*
X18097910Y-11384910D02*
X18268090Y-11555090D01*
X18268090Y-11384910D02*
X18097910Y-11555090D01*
X18486910Y-5684910D02*
X18657090Y-5855090D01*
X18657090Y-5684910D02*
X18486910Y-5855090D01*
X18487910Y-3299910D02*
X18658090Y-3470090D01*
X18658090Y-3299910D02*
X18487910Y-3470090D01*
X18557910Y-7594910D02*
X18728090Y-7765090D01*
X18728090Y-7594910D02*
X18557910Y-7765090D01*
X18996910Y-11379910D02*
X19167090Y-11550090D01*
X19167090Y-11379910D02*
X18996910Y-11550090D01*
X19012910Y-9489910D02*
X19183090Y-9660090D01*
X19183090Y-9489910D02*
X19012910Y-9660090D01*
X19371910Y-3299910D02*
X19542090Y-3470090D01*
X19542090Y-3299910D02*
X19371910Y-3470090D01*
X19451910Y-7594910D02*
X19622090Y-7765090D01*
X19622090Y-7594910D02*
X19451910Y-7765090D01*
X19502910Y-5684910D02*
X19673090Y-5855090D01*
X19673090Y-5684910D02*
X19502910Y-5855090D01*
X19906910Y-9489910D02*
X20077090Y-9660090D01*
X20077090Y-9489910D02*
X19906910Y-9660090D01*
X20012910Y-11379910D02*
X20183090Y-11550090D01*
X20183090Y-11379910D02*
X20012910Y-11550090D01*
X20387910Y-3299910D02*
X20558090Y-3470090D01*
X20558090Y-3299910D02*
X20387910Y-3470090D01*
X20396910Y-5684910D02*
X20567090Y-5855090D01*
X20567090Y-5684910D02*
X20396910Y-5855090D01*
X20467910Y-7594910D02*
X20638090Y-7765090D01*
X20638090Y-7594910D02*
X20467910Y-7765090D01*
X20886910Y-11379910D02*
X21057090Y-11550090D01*
X21057090Y-11379910D02*
X20886910Y-11550090D01*
X20922910Y-9489910D02*
X21093090Y-9660090D01*
X21093090Y-9489910D02*
X20922910Y-9660090D01*
X21276910Y-3309910D02*
X21447090Y-3480090D01*
X21447090Y-3309910D02*
X21276910Y-3480090D01*
X21346910Y-7594910D02*
X21517090Y-7765090D01*
X21517090Y-7594910D02*
X21346910Y-7765090D01*
X21412910Y-5684910D02*
X21583090Y-5855090D01*
X21583090Y-5684910D02*
X21412910Y-5855090D01*
X21801910Y-9489910D02*
X21972090Y-9660090D01*
X21972090Y-9489910D02*
X21801910Y-9660090D01*
X21902910Y-11379910D02*
X22073090Y-11550090D01*
X22073090Y-11379910D02*
X21902910Y-11550090D01*
X22292910Y-3309910D02*
X22463090Y-3480090D01*
X22463090Y-3309910D02*
X22292910Y-3480090D01*
X22306910Y-5684910D02*
X22477090Y-5855090D01*
X22477090Y-5684910D02*
X22306910Y-5855090D01*
X22362910Y-7594910D02*
X22533090Y-7765090D01*
X22533090Y-7594910D02*
X22362910Y-7765090D01*
X22541910Y-13279910D02*
X22712090Y-13450090D01*
X22712090Y-13279910D02*
X22541910Y-13450090D01*
X22796910Y-11379910D02*
X22967090Y-11550090D01*
X22967090Y-11379910D02*
X22796910Y-11550090D01*
X22817910Y-9489910D02*
X22988090Y-9660090D01*
X22988090Y-9489910D02*
X22817910Y-9660090D01*
X23256910Y-7594910D02*
X23427090Y-7765090D01*
X23427090Y-7594910D02*
X23256910Y-7765090D01*
X23322910Y-5684910D02*
X23493090Y-5855090D01*
X23493090Y-5684910D02*
X23322910Y-5855090D01*
X23557910Y-13279910D02*
X23728090Y-13450090D01*
X23728090Y-13279910D02*
X23557910Y-13450090D01*
X23711910Y-9489910D02*
X23882090Y-9660090D01*
X23882090Y-9489910D02*
X23711910Y-9660090D01*
X23812910Y-11379910D02*
X23983090Y-11550090D01*
X23983090Y-11379910D02*
X23812910Y-11550090D01*
X24176910Y-3329910D02*
X24347090Y-3500090D01*
X24347090Y-3329910D02*
X24176910Y-3500090D01*
X24201910Y-5684910D02*
X24372090Y-5855090D01*
X24372090Y-5684910D02*
X24201910Y-5855090D01*
X24272910Y-7594910D02*
X24443090Y-7765090D01*
X24443090Y-7594910D02*
X24272910Y-7765090D01*
X24706910Y-11379910D02*
X24877090Y-11550090D01*
X24877090Y-11379910D02*
X24706910Y-11550090D01*
X24727910Y-9489910D02*
X24898090Y-9660090D01*
X24898090Y-9489910D02*
X24727910Y-9660090D01*
X24916910Y-13289910D02*
X25087090Y-13460090D01*
X25087090Y-13289910D02*
X24916910Y-13460090D01*
X25166910Y-7594910D02*
X25337090Y-7765090D01*
X25337090Y-7594910D02*
X25166910Y-7765090D01*
X25192910Y-3329910D02*
X25363090Y-3500090D01*
X25363090Y-3329910D02*
X25192910Y-3500090D01*
X25217910Y-5684910D02*
X25388090Y-5855090D01*
X25388090Y-5684910D02*
X25217910Y-5855090D01*
X25621910Y-9489910D02*
X25792090Y-9660090D01*
X25792090Y-9489910D02*
X25621910Y-9660090D01*
X25722910Y-11379910D02*
X25893090Y-11550090D01*
X25893090Y-11379910D02*
X25722910Y-11550090D01*
X25932910Y-13289910D02*
X26103090Y-13460090D01*
X26103090Y-13289910D02*
X25932910Y-13460090D01*
X26086910Y-3329910D02*
X26257090Y-3500090D01*
X26257090Y-3329910D02*
X26086910Y-3500090D01*
X26096910Y-5684910D02*
X26267090Y-5855090D01*
X26267090Y-5684910D02*
X26096910Y-5855090D01*
X26182910Y-7594910D02*
X26353090Y-7765090D01*
X26353090Y-7594910D02*
X26182910Y-7765090D01*
X26637910Y-9489910D02*
X26808090Y-9660090D01*
X26808090Y-9489910D02*
X26637910Y-9660090D01*
X27056910Y-7594910D02*
X27227090Y-7765090D01*
X27227090Y-7594910D02*
X27056910Y-7765090D01*
X27102910Y-3329910D02*
X27273090Y-3500090D01*
X27273090Y-3329910D02*
X27102910Y-3500090D01*
X27112910Y-5684910D02*
X27283090Y-5855090D01*
X27283090Y-5684910D02*
X27112910Y-5855090D01*
X27276910Y-13279910D02*
X27447090Y-13450090D01*
X27447090Y-13279910D02*
X27276910Y-13450090D01*
X27976910Y-3329910D02*
X28147090Y-3500090D01*
X28147090Y-3329910D02*
X27976910Y-3500090D01*
X28072910Y-7594910D02*
X28243090Y-7765090D01*
X28243090Y-7594910D02*
X28072910Y-7765090D01*
X28251910Y-11334910D02*
X28422090Y-11505090D01*
X28422090Y-11334910D02*
X28251910Y-11505090D01*
X28292910Y-13279910D02*
X28463090Y-13450090D01*
X28463090Y-13279910D02*
X28292910Y-13450090D01*
X28706910Y-9439910D02*
X28877090Y-9610090D01*
X28877090Y-9439910D02*
X28706910Y-9610090D01*
X28966910Y-5649910D02*
X29137090Y-5820090D01*
X29137090Y-5649910D02*
X28966910Y-5820090D01*
X28992910Y-3329910D02*
X29163090Y-3500090D01*
X29163090Y-3329910D02*
X28992910Y-3500090D01*
X29267910Y-11334910D02*
X29438090Y-11505090D01*
X29438090Y-11334910D02*
X29267910Y-11505090D01*
X29426910Y-7594910D02*
X29597090Y-7765090D01*
X29597090Y-7594910D02*
X29426910Y-7765090D01*
X29671910Y-13279910D02*
X29842090Y-13450090D01*
X29842090Y-13279910D02*
X29671910Y-13450090D01*
X29722910Y-9439910D02*
X29893090Y-9610090D01*
X29893090Y-9439910D02*
X29722910Y-9610090D01*
X29881910Y-3329910D02*
X30052090Y-3500090D01*
X30052090Y-3329910D02*
X29881910Y-3500090D01*
X29982910Y-5649910D02*
X30153090Y-5820090D01*
X30153090Y-5649910D02*
X29982910Y-5820090D01*
X30442910Y-7594910D02*
X30613090Y-7765090D01*
X30613090Y-7594910D02*
X30442910Y-7765090D01*
X30687910Y-13279910D02*
X30858090Y-13450090D01*
X30858090Y-13279910D02*
X30687910Y-13450090D01*
X30897910Y-3329910D02*
X31068090Y-3500090D01*
X31068090Y-3329910D02*
X30897910Y-3500090D01*
X32326910Y-13279910D02*
X32497090Y-13450090D01*
X32497090Y-13279910D02*
X32326910Y-13450090D01*
X32336910Y-7594910D02*
X32507090Y-7765090D01*
X32507090Y-7594910D02*
X32336910Y-7765090D01*
X32346910Y-3294910D02*
X32517090Y-3465090D01*
X32517090Y-3294910D02*
X32346910Y-3465090D01*
X32346910Y-5709910D02*
X32517090Y-5880090D01*
X32517090Y-5709910D02*
X32346910Y-5880090D01*
X33342910Y-13279910D02*
X33513090Y-13450090D01*
X33513090Y-13279910D02*
X33342910Y-13450090D01*
X33352910Y-7594910D02*
X33523090Y-7765090D01*
X33523090Y-7594910D02*
X33352910Y-7765090D01*
X33362910Y-3294910D02*
X33533090Y-3465090D01*
X33533090Y-3294910D02*
X33362910Y-3465090D01*
X33362910Y-5709910D02*
X33533090Y-5880090D01*
X33533090Y-5709910D02*
X33362910Y-5880090D01*
X34226910Y-11389910D02*
X34397090Y-11560090D01*
X34397090Y-11389910D02*
X34226910Y-11560090D01*
X34226910Y-13279910D02*
X34397090Y-13450090D01*
X34397090Y-13279910D02*
X34226910Y-13450090D01*
X34231910Y-5709910D02*
X34402090Y-5880090D01*
X34402090Y-5709910D02*
X34231910Y-5880090D01*
X34231910Y-7594910D02*
X34402090Y-7765090D01*
X34402090Y-7594910D02*
X34231910Y-7765090D01*
X34246910Y-3294910D02*
X34417090Y-3465090D01*
X34417090Y-3294910D02*
X34246910Y-3465090D01*
X35242910Y-11389910D02*
X35413090Y-11560090D01*
X35413090Y-11389910D02*
X35242910Y-11560090D01*
X35242910Y-13279910D02*
X35413090Y-13450090D01*
X35413090Y-13279910D02*
X35242910Y-13450090D01*
X35247910Y-5709910D02*
X35418090Y-5880090D01*
X35418090Y-5709910D02*
X35247910Y-5880090D01*
X35247910Y-7594910D02*
X35418090Y-7765090D01*
X35418090Y-7594910D02*
X35247910Y-7765090D01*
X35262910Y-3294910D02*
X35433090Y-3465090D01*
X35433090Y-3294910D02*
X35262910Y-3465090D01*
X36141910Y-3294910D02*
X36312090Y-3465090D01*
X36312090Y-3294910D02*
X36141910Y-3465090D01*
X36141910Y-5709910D02*
X36312090Y-5880090D01*
X36312090Y-5709910D02*
X36141910Y-5880090D01*
X36141910Y-7604910D02*
X36312090Y-7775090D01*
X36312090Y-7604910D02*
X36141910Y-7775090D01*
X36141910Y-13279910D02*
X36312090Y-13450090D01*
X36312090Y-13279910D02*
X36141910Y-13450090D01*
X37157910Y-3294910D02*
X37328090Y-3465090D01*
X37328090Y-3294910D02*
X37157910Y-3465090D01*
X37157910Y-5709910D02*
X37328090Y-5880090D01*
X37328090Y-5709910D02*
X37157910Y-5880090D01*
X37157910Y-7604910D02*
X37328090Y-7775090D01*
X37328090Y-7604910D02*
X37157910Y-7775090D01*
X37157910Y-13279910D02*
X37328090Y-13450090D01*
X37328090Y-13279910D02*
X37157910Y-13450090D01*
X4039390Y-3350000D02*
G75*
G03X4039390Y-3350000I-199390J0D01*
G01*
X4069390Y-5770000D02*
G75*
G03X4069390Y-5770000I-199390J0D01*
G01*
X4299390Y-13345000D02*
G75*
G03X4299390Y-13345000I-199390J0D01*
G01*
X4559390Y-7680000D02*
G75*
G03X4559390Y-7680000I-199390J0D01*
G01*
X4784390Y-9555000D02*
G75*
G03X4784390Y-9555000I-199390J0D01*
G01*
X5264390Y-11410000D02*
G75*
G03X5264390Y-11410000I-199390J0D01*
G01*
X5979390Y-5770000D02*
G75*
G03X5979390Y-5770000I-199390J0D01*
G01*
X6669390Y-13345000D02*
G75*
G03X6669390Y-13345000I-199390J0D01*
G01*
X6924390Y-7680000D02*
G75*
G03X6924390Y-7680000I-199390J0D01*
G01*
X7379390Y-9575000D02*
G75*
G03X7379390Y-9575000I-199390J0D01*
G01*
X7764390Y-3360000D02*
G75*
G03X7764390Y-3360000I-199390J0D01*
G01*
X7869390Y-5770000D02*
G75*
G03X7869390Y-5770000I-199390J0D01*
G01*
X8354390Y-11470000D02*
G75*
G03X8354390Y-11470000I-199390J0D01*
G01*
X8819390Y-7680000D02*
G75*
G03X8819390Y-7680000I-199390J0D01*
G01*
X9044390Y-13355000D02*
G75*
G03X9044390Y-13355000I-199390J0D01*
G01*
X9289390Y-9575000D02*
G75*
G03X9289390Y-9575000I-199390J0D01*
G01*
X9669390Y-3360000D02*
G75*
G03X9669390Y-3360000I-199390J0D01*
G01*
X9779390Y-5770000D02*
G75*
G03X9779390Y-5770000I-199390J0D01*
G01*
X10259390Y-11470000D02*
G75*
G03X10259390Y-11470000I-199390J0D01*
G01*
X10709390Y-7680000D02*
G75*
G03X10709390Y-7680000I-199390J0D01*
G01*
X11184390Y-9575000D02*
G75*
G03X11184390Y-9575000I-199390J0D01*
G01*
X11574390Y-3355000D02*
G75*
G03X11574390Y-3355000I-199390J0D01*
G01*
X11674390Y-5770000D02*
G75*
G03X11674390Y-5770000I-199390J0D01*
G01*
X12169390Y-11470000D02*
G75*
G03X12169390Y-11470000I-199390J0D01*
G01*
X12619390Y-7680000D02*
G75*
G03X12619390Y-7680000I-199390J0D01*
G01*
X13079390Y-9575000D02*
G75*
G03X13079390Y-9575000I-199390J0D01*
G01*
X13464390Y-3360000D02*
G75*
G03X13464390Y-3360000I-199390J0D01*
G01*
X13569390Y-5770000D02*
G75*
G03X13569390Y-5770000I-199390J0D01*
G01*
X14074390Y-11470000D02*
G75*
G03X14074390Y-11470000I-199390J0D01*
G01*
X14529390Y-7680000D02*
G75*
G03X14529390Y-7680000I-199390J0D01*
G01*
X14989390Y-9575000D02*
G75*
G03X14989390Y-9575000I-199390J0D01*
G01*
X15479390Y-5770000D02*
G75*
G03X15479390Y-5770000I-199390J0D01*
G01*
X15969390Y-11470000D02*
G75*
G03X15969390Y-11470000I-199390J0D01*
G01*
X16194390Y-13325000D02*
G75*
G03X16194390Y-13325000I-199390J0D01*
G01*
X16354390Y-3380000D02*
G75*
G03X16354390Y-3380000I-199390J0D01*
G01*
X16439390Y-7680000D02*
G75*
G03X16439390Y-7680000I-199390J0D01*
G01*
X16899390Y-9575000D02*
G75*
G03X16899390Y-9575000I-199390J0D01*
G01*
X17389390Y-5770000D02*
G75*
G03X17389390Y-5770000I-199390J0D01*
G01*
X17874390Y-11470000D02*
G75*
G03X17874390Y-11470000I-199390J0D01*
G01*
X18264390Y-3385000D02*
G75*
G03X18264390Y-3385000I-199390J0D01*
G01*
X18334390Y-7680000D02*
G75*
G03X18334390Y-7680000I-199390J0D01*
G01*
X18789390Y-9575000D02*
G75*
G03X18789390Y-9575000I-199390J0D01*
G01*
X19279390Y-5770000D02*
G75*
G03X19279390Y-5770000I-199390J0D01*
G01*
X19789390Y-11465000D02*
G75*
G03X19789390Y-11465000I-199390J0D01*
G01*
X20164390Y-3385000D02*
G75*
G03X20164390Y-3385000I-199390J0D01*
G01*
X20244390Y-7680000D02*
G75*
G03X20244390Y-7680000I-199390J0D01*
G01*
X20699390Y-9575000D02*
G75*
G03X20699390Y-9575000I-199390J0D01*
G01*
X21189390Y-5770000D02*
G75*
G03X21189390Y-5770000I-199390J0D01*
G01*
X21679390Y-11465000D02*
G75*
G03X21679390Y-11465000I-199390J0D01*
G01*
X22069390Y-3395000D02*
G75*
G03X22069390Y-3395000I-199390J0D01*
G01*
X22139390Y-7680000D02*
G75*
G03X22139390Y-7680000I-199390J0D01*
G01*
X22594390Y-9575000D02*
G75*
G03X22594390Y-9575000I-199390J0D01*
G01*
X23099390Y-5770000D02*
G75*
G03X23099390Y-5770000I-199390J0D01*
G01*
X23334390Y-13365000D02*
G75*
G03X23334390Y-13365000I-199390J0D01*
G01*
X23589390Y-11465000D02*
G75*
G03X23589390Y-11465000I-199390J0D01*
G01*
X24049390Y-7680000D02*
G75*
G03X24049390Y-7680000I-199390J0D01*
G01*
X24504390Y-9575000D02*
G75*
G03X24504390Y-9575000I-199390J0D01*
G01*
X24969390Y-3415000D02*
G75*
G03X24969390Y-3415000I-199390J0D01*
G01*
X24994390Y-5770000D02*
G75*
G03X24994390Y-5770000I-199390J0D01*
G01*
X25499390Y-11465000D02*
G75*
G03X25499390Y-11465000I-199390J0D01*
G01*
X25709390Y-13375000D02*
G75*
G03X25709390Y-13375000I-199390J0D01*
G01*
X25959390Y-7680000D02*
G75*
G03X25959390Y-7680000I-199390J0D01*
G01*
X26414390Y-9575000D02*
G75*
G03X26414390Y-9575000I-199390J0D01*
G01*
X26879390Y-3415000D02*
G75*
G03X26879390Y-3415000I-199390J0D01*
G01*
X26889390Y-5770000D02*
G75*
G03X26889390Y-5770000I-199390J0D01*
G01*
X27849390Y-7680000D02*
G75*
G03X27849390Y-7680000I-199390J0D01*
G01*
X28069390Y-13365000D02*
G75*
G03X28069390Y-13365000I-199390J0D01*
G01*
X28769390Y-3415000D02*
G75*
G03X28769390Y-3415000I-199390J0D01*
G01*
X29044390Y-11420000D02*
G75*
G03X29044390Y-11420000I-199390J0D01*
G01*
X29499390Y-9525000D02*
G75*
G03X29499390Y-9525000I-199390J0D01*
G01*
X29759390Y-5735000D02*
G75*
G03X29759390Y-5735000I-199390J0D01*
G01*
X30219390Y-7680000D02*
G75*
G03X30219390Y-7680000I-199390J0D01*
G01*
X30464390Y-13365000D02*
G75*
G03X30464390Y-13365000I-199390J0D01*
G01*
X30674390Y-3415000D02*
G75*
G03X30674390Y-3415000I-199390J0D01*
G01*
X33119390Y-13365000D02*
G75*
G03X33119390Y-13365000I-199390J0D01*
G01*
X33129390Y-7680000D02*
G75*
G03X33129390Y-7680000I-199390J0D01*
G01*
X33139390Y-3380000D02*
G75*
G03X33139390Y-3380000I-199390J0D01*
G01*
X33139390Y-5795000D02*
G75*
G03X33139390Y-5795000I-199390J0D01*
G01*
X35019390Y-11475000D02*
G75*
G03X35019390Y-11475000I-199390J0D01*
G01*
X35019390Y-13365000D02*
G75*
G03X35019390Y-13365000I-199390J0D01*
G01*
X35024390Y-5795000D02*
G75*
G03X35024390Y-5795000I-199390J0D01*
G01*
X35024390Y-7680000D02*
G75*
G03X35024390Y-7680000I-199390J0D01*
G01*
X35039390Y-3380000D02*
G75*
G03X35039390Y-3380000I-199390J0D01*
G01*
X36934390Y-3380000D02*
G75*
G03X36934390Y-3380000I-199390J0D01*
G01*
X36934390Y-5795000D02*
G75*
G03X36934390Y-5795000I-199390J0D01*
G01*
X36934390Y-7690000D02*
G75*
G03X36934390Y-7690000I-199390J0D01*
G01*
X36934390Y-13365000D02*
G75*
G03X36934390Y-13365000I-199390J0D01*
G01*
D13*
X3150928Y-14698214D02*
X3150928Y-14398214D01*
X3222357Y-14398214D01*
X3265214Y-14412500D01*
X3293786Y-14441071D01*
X3308071Y-14469643D01*
X3322357Y-14526786D01*
X3322357Y-14569643D01*
X3308071Y-14626786D01*
X3293786Y-14655357D01*
X3265214Y-14683929D01*
X3222357Y-14698214D01*
X3150928Y-14698214D01*
X3450928Y-14698214D02*
X3450928Y-14498214D01*
X3450928Y-14555357D02*
X3465214Y-14526786D01*
X3479500Y-14512500D01*
X3508071Y-14498214D01*
X3536643Y-14498214D01*
X3636643Y-14698214D02*
X3636643Y-14498214D01*
X3636643Y-14398214D02*
X3622357Y-14412500D01*
X3636643Y-14426786D01*
X3650928Y-14412500D01*
X3636643Y-14398214D01*
X3636643Y-14426786D01*
X3822357Y-14698214D02*
X3793786Y-14683929D01*
X3779500Y-14655357D01*
X3779500Y-14398214D01*
X3979500Y-14698214D02*
X3950928Y-14683929D01*
X3936643Y-14655357D01*
X3936643Y-14398214D01*
X4322357Y-14698214D02*
X4322357Y-14398214D01*
X4422357Y-14612500D01*
X4522357Y-14398214D01*
X4522357Y-14698214D01*
X4793786Y-14698214D02*
X4793786Y-14541071D01*
X4779500Y-14512500D01*
X4750929Y-14498214D01*
X4693786Y-14498214D01*
X4665214Y-14512500D01*
X4793786Y-14683929D02*
X4765214Y-14698214D01*
X4693786Y-14698214D01*
X4665214Y-14683929D01*
X4650929Y-14655357D01*
X4650929Y-14626786D01*
X4665214Y-14598214D01*
X4693786Y-14583929D01*
X4765214Y-14583929D01*
X4793786Y-14569643D01*
X4936643Y-14498214D02*
X4936643Y-14798214D01*
X4936643Y-14512500D02*
X4965214Y-14498214D01*
X5022357Y-14498214D01*
X5050929Y-14512500D01*
X5065214Y-14526786D01*
X5079500Y-14555357D01*
X5079500Y-14641071D01*
X5065214Y-14669643D01*
X5050929Y-14683929D01*
X5022357Y-14698214D01*
X4965214Y-14698214D01*
X4936643Y-14683929D01*
X5208071Y-14669643D02*
X5222357Y-14683929D01*
X5208071Y-14698214D01*
X5193786Y-14683929D01*
X5208071Y-14669643D01*
X5208071Y-14698214D01*
X5208071Y-14512500D02*
X5222357Y-14526786D01*
X5208071Y-14541071D01*
X5193786Y-14526786D01*
X5208071Y-14512500D01*
X5208071Y-14541071D01*
X2709320Y-15107410D02*
X2879500Y-15277590D01*
X2879500Y-15107410D02*
X2709320Y-15277590D01*
X3308071Y-15328214D02*
X3136643Y-15328214D01*
X3222357Y-15328214D02*
X3222357Y-15028214D01*
X3193786Y-15071071D01*
X3165214Y-15099643D01*
X3136643Y-15113929D01*
X3436643Y-15299643D02*
X3450928Y-15313929D01*
X3436643Y-15328214D01*
X3422357Y-15313929D01*
X3436643Y-15299643D01*
X3436643Y-15328214D01*
X3550928Y-15028214D02*
X3750928Y-15028214D01*
X3622357Y-15328214D01*
X3922357Y-15028214D02*
X3950928Y-15028214D01*
X3979500Y-15042500D01*
X3993786Y-15056786D01*
X4008071Y-15085357D01*
X4022357Y-15142500D01*
X4022357Y-15213929D01*
X4008071Y-15271071D01*
X3993786Y-15299643D01*
X3979500Y-15313929D01*
X3950928Y-15328214D01*
X3922357Y-15328214D01*
X3893786Y-15313929D01*
X3879500Y-15299643D01*
X3865214Y-15271071D01*
X3850928Y-15213929D01*
X3850928Y-15142500D01*
X3865214Y-15085357D01*
X3879500Y-15056786D01*
X3893786Y-15042500D01*
X3922357Y-15028214D01*
X4150928Y-15328214D02*
X4150928Y-15128214D01*
X4150928Y-15156786D02*
X4165214Y-15142500D01*
X4193786Y-15128214D01*
X4236643Y-15128214D01*
X4265214Y-15142500D01*
X4279500Y-15171071D01*
X4279500Y-15328214D01*
X4279500Y-15171071D02*
X4293786Y-15142500D01*
X4322357Y-15128214D01*
X4365214Y-15128214D01*
X4393786Y-15142500D01*
X4408071Y-15171071D01*
X4408071Y-15328214D01*
X4550929Y-15328214D02*
X4550929Y-15128214D01*
X4550929Y-15156786D02*
X4565214Y-15142500D01*
X4593786Y-15128214D01*
X4636643Y-15128214D01*
X4665214Y-15142500D01*
X4679500Y-15171071D01*
X4679500Y-15328214D01*
X4679500Y-15171071D02*
X4693786Y-15142500D01*
X4722357Y-15128214D01*
X4765214Y-15128214D01*
X4793786Y-15142500D01*
X4808071Y-15171071D01*
X4808071Y-15328214D01*
X5393786Y-15013929D02*
X5136643Y-15399643D01*
X5779500Y-15028214D02*
X5808071Y-15028214D01*
X5836643Y-15042500D01*
X5850928Y-15056786D01*
X5865214Y-15085357D01*
X5879500Y-15142500D01*
X5879500Y-15213929D01*
X5865214Y-15271071D01*
X5850928Y-15299643D01*
X5836643Y-15313929D01*
X5808071Y-15328214D01*
X5779500Y-15328214D01*
X5750928Y-15313929D01*
X5736643Y-15299643D01*
X5722357Y-15271071D01*
X5708071Y-15213929D01*
X5708071Y-15142500D01*
X5722357Y-15085357D01*
X5736643Y-15056786D01*
X5750928Y-15042500D01*
X5779500Y-15028214D01*
X6008071Y-15299643D02*
X6022357Y-15313929D01*
X6008071Y-15328214D01*
X5993786Y-15313929D01*
X6008071Y-15299643D01*
X6008071Y-15328214D01*
X6208071Y-15028214D02*
X6236643Y-15028214D01*
X6265214Y-15042500D01*
X6279500Y-15056786D01*
X6293785Y-15085357D01*
X6308071Y-15142500D01*
X6308071Y-15213929D01*
X6293785Y-15271071D01*
X6279500Y-15299643D01*
X6265214Y-15313929D01*
X6236643Y-15328214D01*
X6208071Y-15328214D01*
X6179500Y-15313929D01*
X6165214Y-15299643D01*
X6150928Y-15271071D01*
X6136643Y-15213929D01*
X6136643Y-15142500D01*
X6150928Y-15085357D01*
X6165214Y-15056786D01*
X6179500Y-15042500D01*
X6208071Y-15028214D01*
X6565214Y-15028214D02*
X6508071Y-15028214D01*
X6479500Y-15042500D01*
X6465214Y-15056786D01*
X6436643Y-15099643D01*
X6422357Y-15156786D01*
X6422357Y-15271071D01*
X6436643Y-15299643D01*
X6450928Y-15313929D01*
X6479500Y-15328214D01*
X6536643Y-15328214D01*
X6565214Y-15313929D01*
X6579500Y-15299643D01*
X6593785Y-15271071D01*
X6593785Y-15199643D01*
X6579500Y-15171071D01*
X6565214Y-15156786D01*
X6536643Y-15142500D01*
X6479500Y-15142500D01*
X6450928Y-15156786D01*
X6436643Y-15171071D01*
X6422357Y-15199643D01*
X6693785Y-15028214D02*
X6893785Y-15028214D01*
X6765214Y-15328214D01*
X6993786Y-15028214D02*
X6993786Y-15085357D01*
X7108071Y-15028214D02*
X7108071Y-15085357D01*
X7550928Y-15442500D02*
X7536643Y-15428214D01*
X7508071Y-15385357D01*
X7493785Y-15356786D01*
X7479500Y-15313929D01*
X7465214Y-15242500D01*
X7465214Y-15185357D01*
X7479500Y-15113929D01*
X7493785Y-15071071D01*
X7508071Y-15042500D01*
X7536643Y-14999643D01*
X7550928Y-14985357D01*
X7822357Y-15328214D02*
X7650928Y-15328214D01*
X7736643Y-15328214D02*
X7736643Y-15028214D01*
X7708071Y-15071071D01*
X7679500Y-15099643D01*
X7650928Y-15113929D01*
X7922357Y-15028214D02*
X8122357Y-15028214D01*
X7993785Y-15328214D01*
X8365214Y-15128214D02*
X8365214Y-15328214D01*
X8293785Y-15013929D02*
X8222357Y-15228214D01*
X8408071Y-15228214D01*
X8750928Y-15328214D02*
X8750928Y-15028214D01*
X8879500Y-15328214D02*
X8879500Y-15171071D01*
X8865214Y-15142500D01*
X8836643Y-15128214D01*
X8793786Y-15128214D01*
X8765214Y-15142500D01*
X8750928Y-15156786D01*
X9065214Y-15328214D02*
X9036643Y-15313929D01*
X9022357Y-15299643D01*
X9008071Y-15271071D01*
X9008071Y-15185357D01*
X9022357Y-15156786D01*
X9036643Y-15142500D01*
X9065214Y-15128214D01*
X9108071Y-15128214D01*
X9136643Y-15142500D01*
X9150928Y-15156786D01*
X9165214Y-15185357D01*
X9165214Y-15271071D01*
X9150928Y-15299643D01*
X9136643Y-15313929D01*
X9108071Y-15328214D01*
X9065214Y-15328214D01*
X9336643Y-15328214D02*
X9308071Y-15313929D01*
X9293786Y-15285357D01*
X9293786Y-15028214D01*
X9565214Y-15313929D02*
X9536643Y-15328214D01*
X9479500Y-15328214D01*
X9450929Y-15313929D01*
X9436643Y-15285357D01*
X9436643Y-15171071D01*
X9450929Y-15142500D01*
X9479500Y-15128214D01*
X9536643Y-15128214D01*
X9565214Y-15142500D01*
X9579500Y-15171071D01*
X9579500Y-15199643D01*
X9436643Y-15228214D01*
X9693786Y-15313929D02*
X9722357Y-15328214D01*
X9779500Y-15328214D01*
X9808071Y-15313929D01*
X9822357Y-15285357D01*
X9822357Y-15271071D01*
X9808071Y-15242500D01*
X9779500Y-15228214D01*
X9736643Y-15228214D01*
X9708071Y-15213929D01*
X9693786Y-15185357D01*
X9693786Y-15171071D01*
X9708071Y-15142500D01*
X9736643Y-15128214D01*
X9779500Y-15128214D01*
X9808071Y-15142500D01*
X9922357Y-15442500D02*
X9936643Y-15428214D01*
X9965214Y-15385357D01*
X9979500Y-15356786D01*
X9993786Y-15313929D01*
X10008071Y-15242500D01*
X10008071Y-15185357D01*
X9993786Y-15113929D01*
X9979500Y-15071071D01*
X9965214Y-15042500D01*
X9936643Y-14999643D01*
X9922357Y-14985357D01*
X10465214Y-15442500D02*
X10450928Y-15428214D01*
X10422357Y-15385357D01*
X10408071Y-15356786D01*
X10393786Y-15313929D01*
X10379500Y-15242500D01*
X10379500Y-15185357D01*
X10393786Y-15113929D01*
X10408071Y-15071071D01*
X10422357Y-15042500D01*
X10450928Y-14999643D01*
X10465214Y-14985357D01*
X10579500Y-15128214D02*
X10579500Y-15328214D01*
X10579500Y-15156786D02*
X10593786Y-15142500D01*
X10622357Y-15128214D01*
X10665214Y-15128214D01*
X10693786Y-15142500D01*
X10708071Y-15171071D01*
X10708071Y-15328214D01*
X10893786Y-15328214D02*
X10865214Y-15313929D01*
X10850929Y-15299643D01*
X10836643Y-15271071D01*
X10836643Y-15185357D01*
X10850929Y-15156786D01*
X10865214Y-15142500D01*
X10893786Y-15128214D01*
X10936643Y-15128214D01*
X10965214Y-15142500D01*
X10979500Y-15156786D01*
X10993786Y-15185357D01*
X10993786Y-15271071D01*
X10979500Y-15299643D01*
X10965214Y-15313929D01*
X10936643Y-15328214D01*
X10893786Y-15328214D01*
X11079500Y-15128214D02*
X11193786Y-15128214D01*
X11122357Y-15028214D02*
X11122357Y-15285357D01*
X11136643Y-15313929D01*
X11165214Y-15328214D01*
X11193786Y-15328214D01*
X11522357Y-15128214D02*
X11522357Y-15428214D01*
X11522357Y-15142500D02*
X11550928Y-15128214D01*
X11608071Y-15128214D01*
X11636643Y-15142500D01*
X11650928Y-15156786D01*
X11665214Y-15185357D01*
X11665214Y-15271071D01*
X11650928Y-15299643D01*
X11636643Y-15313929D01*
X11608071Y-15328214D01*
X11550928Y-15328214D01*
X11522357Y-15313929D01*
X11836643Y-15328214D02*
X11808071Y-15313929D01*
X11793786Y-15285357D01*
X11793786Y-15028214D01*
X12079500Y-15328214D02*
X12079500Y-15171071D01*
X12065214Y-15142500D01*
X12036643Y-15128214D01*
X11979500Y-15128214D01*
X11950929Y-15142500D01*
X12079500Y-15313929D02*
X12050929Y-15328214D01*
X11979500Y-15328214D01*
X11950929Y-15313929D01*
X11936643Y-15285357D01*
X11936643Y-15256786D01*
X11950929Y-15228214D01*
X11979500Y-15213929D01*
X12050929Y-15213929D01*
X12079500Y-15199643D01*
X12179500Y-15128214D02*
X12293786Y-15128214D01*
X12222357Y-15028214D02*
X12222357Y-15285357D01*
X12236643Y-15313929D01*
X12265214Y-15328214D01*
X12293786Y-15328214D01*
X12508071Y-15313929D02*
X12479500Y-15328214D01*
X12422357Y-15328214D01*
X12393786Y-15313929D01*
X12379500Y-15285357D01*
X12379500Y-15171071D01*
X12393786Y-15142500D01*
X12422357Y-15128214D01*
X12479500Y-15128214D01*
X12508071Y-15142500D01*
X12522357Y-15171071D01*
X12522357Y-15199643D01*
X12379500Y-15228214D01*
X12779500Y-15328214D02*
X12779500Y-15028214D01*
X12779500Y-15313929D02*
X12750929Y-15328214D01*
X12693786Y-15328214D01*
X12665214Y-15313929D01*
X12650929Y-15299643D01*
X12636643Y-15271071D01*
X12636643Y-15185357D01*
X12650929Y-15156786D01*
X12665214Y-15142500D01*
X12693786Y-15128214D01*
X12750929Y-15128214D01*
X12779500Y-15142500D01*
X12893786Y-15442500D02*
X12908072Y-15428214D01*
X12936643Y-15385357D01*
X12950929Y-15356786D01*
X12965214Y-15313929D01*
X12979500Y-15242500D01*
X12979500Y-15185357D01*
X12965214Y-15113929D01*
X12950929Y-15071071D01*
X12936643Y-15042500D01*
X12908072Y-14999643D01*
X12893786Y-14985357D01*
X2879500Y-15588500D02*
G75*
G03X2879500Y-15588500I-199390J0D01*
G01*
X3122357Y-15424214D02*
X3308071Y-15424214D01*
X3208071Y-15538500D01*
X3250928Y-15538500D01*
X3279500Y-15552786D01*
X3293786Y-15567071D01*
X3308071Y-15595643D01*
X3308071Y-15667071D01*
X3293786Y-15695643D01*
X3279500Y-15709929D01*
X3250928Y-15724214D01*
X3165214Y-15724214D01*
X3136643Y-15709929D01*
X3122357Y-15695643D01*
X3436643Y-15695643D02*
X3450928Y-15709929D01*
X3436643Y-15724214D01*
X3422357Y-15709929D01*
X3436643Y-15695643D01*
X3436643Y-15724214D01*
X3593786Y-15724214D02*
X3650928Y-15724214D01*
X3679500Y-15709929D01*
X3693786Y-15695643D01*
X3722357Y-15652786D01*
X3736643Y-15595643D01*
X3736643Y-15481357D01*
X3722357Y-15452786D01*
X3708071Y-15438500D01*
X3679500Y-15424214D01*
X3622357Y-15424214D01*
X3593786Y-15438500D01*
X3579500Y-15452786D01*
X3565214Y-15481357D01*
X3565214Y-15552786D01*
X3579500Y-15581357D01*
X3593786Y-15595643D01*
X3622357Y-15609929D01*
X3679500Y-15609929D01*
X3708071Y-15595643D01*
X3722357Y-15581357D01*
X3736643Y-15552786D01*
X3879500Y-15724214D02*
X3936643Y-15724214D01*
X3965214Y-15709929D01*
X3979500Y-15695643D01*
X4008071Y-15652786D01*
X4022357Y-15595643D01*
X4022357Y-15481357D01*
X4008071Y-15452786D01*
X3993786Y-15438500D01*
X3965214Y-15424214D01*
X3908071Y-15424214D01*
X3879500Y-15438500D01*
X3865214Y-15452786D01*
X3850928Y-15481357D01*
X3850928Y-15552786D01*
X3865214Y-15581357D01*
X3879500Y-15595643D01*
X3908071Y-15609929D01*
X3965214Y-15609929D01*
X3993786Y-15595643D01*
X4008071Y-15581357D01*
X4022357Y-15552786D01*
X4150928Y-15724214D02*
X4150928Y-15524214D01*
X4150928Y-15552786D02*
X4165214Y-15538500D01*
X4193786Y-15524214D01*
X4236643Y-15524214D01*
X4265214Y-15538500D01*
X4279500Y-15567071D01*
X4279500Y-15724214D01*
X4279500Y-15567071D02*
X4293786Y-15538500D01*
X4322357Y-15524214D01*
X4365214Y-15524214D01*
X4393786Y-15538500D01*
X4408071Y-15567071D01*
X4408071Y-15724214D01*
X4550929Y-15724214D02*
X4550929Y-15524214D01*
X4550929Y-15552786D02*
X4565214Y-15538500D01*
X4593786Y-15524214D01*
X4636643Y-15524214D01*
X4665214Y-15538500D01*
X4679500Y-15567071D01*
X4679500Y-15724214D01*
X4679500Y-15567071D02*
X4693786Y-15538500D01*
X4722357Y-15524214D01*
X4765214Y-15524214D01*
X4793786Y-15538500D01*
X4808071Y-15567071D01*
X4808071Y-15724214D01*
X5393786Y-15409929D02*
X5136643Y-15795643D01*
X5779500Y-15424214D02*
X5808071Y-15424214D01*
X5836643Y-15438500D01*
X5850928Y-15452786D01*
X5865214Y-15481357D01*
X5879500Y-15538500D01*
X5879500Y-15609929D01*
X5865214Y-15667071D01*
X5850928Y-15695643D01*
X5836643Y-15709929D01*
X5808071Y-15724214D01*
X5779500Y-15724214D01*
X5750928Y-15709929D01*
X5736643Y-15695643D01*
X5722357Y-15667071D01*
X5708071Y-15609929D01*
X5708071Y-15538500D01*
X5722357Y-15481357D01*
X5736643Y-15452786D01*
X5750928Y-15438500D01*
X5779500Y-15424214D01*
X6008071Y-15695643D02*
X6022357Y-15709929D01*
X6008071Y-15724214D01*
X5993786Y-15709929D01*
X6008071Y-15695643D01*
X6008071Y-15724214D01*
X6308071Y-15724214D02*
X6136643Y-15724214D01*
X6222357Y-15724214D02*
X6222357Y-15424214D01*
X6193785Y-15467071D01*
X6165214Y-15495643D01*
X6136643Y-15509929D01*
X6579500Y-15424214D02*
X6436643Y-15424214D01*
X6422357Y-15567071D01*
X6436643Y-15552786D01*
X6465214Y-15538500D01*
X6536643Y-15538500D01*
X6565214Y-15552786D01*
X6579500Y-15567071D01*
X6593785Y-15595643D01*
X6593785Y-15667071D01*
X6579500Y-15695643D01*
X6565214Y-15709929D01*
X6536643Y-15724214D01*
X6465214Y-15724214D01*
X6436643Y-15709929D01*
X6422357Y-15695643D01*
X6693785Y-15424214D02*
X6893785Y-15424214D01*
X6765214Y-15724214D01*
X6993786Y-15424214D02*
X6993786Y-15481357D01*
X7108071Y-15424214D02*
X7108071Y-15481357D01*
X7550928Y-15838500D02*
X7536643Y-15824214D01*
X7508071Y-15781357D01*
X7493785Y-15752786D01*
X7479500Y-15709929D01*
X7465214Y-15638500D01*
X7465214Y-15581357D01*
X7479500Y-15509929D01*
X7493785Y-15467071D01*
X7508071Y-15438500D01*
X7536643Y-15395643D01*
X7550928Y-15381357D01*
X7708071Y-15552786D02*
X7679500Y-15538500D01*
X7665214Y-15524214D01*
X7650928Y-15495643D01*
X7650928Y-15481357D01*
X7665214Y-15452786D01*
X7679500Y-15438500D01*
X7708071Y-15424214D01*
X7765214Y-15424214D01*
X7793785Y-15438500D01*
X7808071Y-15452786D01*
X7822357Y-15481357D01*
X7822357Y-15495643D01*
X7808071Y-15524214D01*
X7793785Y-15538500D01*
X7765214Y-15552786D01*
X7708071Y-15552786D01*
X7679500Y-15567071D01*
X7665214Y-15581357D01*
X7650928Y-15609929D01*
X7650928Y-15667071D01*
X7665214Y-15695643D01*
X7679500Y-15709929D01*
X7708071Y-15724214D01*
X7765214Y-15724214D01*
X7793785Y-15709929D01*
X7808071Y-15695643D01*
X7822357Y-15667071D01*
X7822357Y-15609929D01*
X7808071Y-15581357D01*
X7793785Y-15567071D01*
X7765214Y-15552786D01*
X7922357Y-15424214D02*
X8122357Y-15424214D01*
X7993785Y-15724214D01*
X8465214Y-15724214D02*
X8465214Y-15424214D01*
X8593786Y-15724214D02*
X8593786Y-15567071D01*
X8579500Y-15538500D01*
X8550928Y-15524214D01*
X8508071Y-15524214D01*
X8479500Y-15538500D01*
X8465214Y-15552786D01*
X8779500Y-15724214D02*
X8750928Y-15709929D01*
X8736643Y-15695643D01*
X8722357Y-15667071D01*
X8722357Y-15581357D01*
X8736643Y-15552786D01*
X8750928Y-15538500D01*
X8779500Y-15524214D01*
X8822357Y-15524214D01*
X8850928Y-15538500D01*
X8865214Y-15552786D01*
X8879500Y-15581357D01*
X8879500Y-15667071D01*
X8865214Y-15695643D01*
X8850928Y-15709929D01*
X8822357Y-15724214D01*
X8779500Y-15724214D01*
X9050928Y-15724214D02*
X9022357Y-15709929D01*
X9008071Y-15681357D01*
X9008071Y-15424214D01*
X9279500Y-15709929D02*
X9250929Y-15724214D01*
X9193786Y-15724214D01*
X9165214Y-15709929D01*
X9150929Y-15681357D01*
X9150929Y-15567071D01*
X9165214Y-15538500D01*
X9193786Y-15524214D01*
X9250929Y-15524214D01*
X9279500Y-15538500D01*
X9293786Y-15567071D01*
X9293786Y-15595643D01*
X9150929Y-15624214D01*
X9408071Y-15709929D02*
X9436643Y-15724214D01*
X9493786Y-15724214D01*
X9522357Y-15709929D01*
X9536643Y-15681357D01*
X9536643Y-15667071D01*
X9522357Y-15638500D01*
X9493786Y-15624214D01*
X9450929Y-15624214D01*
X9422357Y-15609929D01*
X9408071Y-15581357D01*
X9408071Y-15567071D01*
X9422357Y-15538500D01*
X9450929Y-15524214D01*
X9493786Y-15524214D01*
X9522357Y-15538500D01*
X9636643Y-15838500D02*
X9650929Y-15824214D01*
X9679500Y-15781357D01*
X9693786Y-15752786D01*
X9708071Y-15709929D01*
X9722357Y-15638500D01*
X9722357Y-15581357D01*
X9708071Y-15509929D01*
X9693786Y-15467071D01*
X9679500Y-15438500D01*
X9650929Y-15395643D01*
X9636643Y-15381357D01*
X10179500Y-15838500D02*
X10165214Y-15824214D01*
X10136643Y-15781357D01*
X10122357Y-15752786D01*
X10108071Y-15709929D01*
X10093786Y-15638500D01*
X10093786Y-15581357D01*
X10108071Y-15509929D01*
X10122357Y-15467071D01*
X10136643Y-15438500D01*
X10165214Y-15395643D01*
X10179500Y-15381357D01*
X10293786Y-15524214D02*
X10293786Y-15724214D01*
X10293786Y-15552786D02*
X10308071Y-15538500D01*
X10336643Y-15524214D01*
X10379500Y-15524214D01*
X10408071Y-15538500D01*
X10422357Y-15567071D01*
X10422357Y-15724214D01*
X10608071Y-15724214D02*
X10579500Y-15709929D01*
X10565214Y-15695643D01*
X10550929Y-15667071D01*
X10550929Y-15581357D01*
X10565214Y-15552786D01*
X10579500Y-15538500D01*
X10608071Y-15524214D01*
X10650929Y-15524214D01*
X10679500Y-15538500D01*
X10693786Y-15552786D01*
X10708071Y-15581357D01*
X10708071Y-15667071D01*
X10693786Y-15695643D01*
X10679500Y-15709929D01*
X10650929Y-15724214D01*
X10608071Y-15724214D01*
X10793786Y-15524214D02*
X10908071Y-15524214D01*
X10836643Y-15424214D02*
X10836643Y-15681357D01*
X10850929Y-15709929D01*
X10879500Y-15724214D01*
X10908071Y-15724214D01*
X11236643Y-15524214D02*
X11236643Y-15824214D01*
X11236643Y-15538500D02*
X11265214Y-15524214D01*
X11322357Y-15524214D01*
X11350928Y-15538500D01*
X11365214Y-15552786D01*
X11379500Y-15581357D01*
X11379500Y-15667071D01*
X11365214Y-15695643D01*
X11350928Y-15709929D01*
X11322357Y-15724214D01*
X11265214Y-15724214D01*
X11236643Y-15709929D01*
X11550928Y-15724214D02*
X11522357Y-15709929D01*
X11508071Y-15681357D01*
X11508071Y-15424214D01*
X11793786Y-15724214D02*
X11793786Y-15567071D01*
X11779500Y-15538500D01*
X11750929Y-15524214D01*
X11693786Y-15524214D01*
X11665214Y-15538500D01*
X11793786Y-15709929D02*
X11765214Y-15724214D01*
X11693786Y-15724214D01*
X11665214Y-15709929D01*
X11650929Y-15681357D01*
X11650929Y-15652786D01*
X11665214Y-15624214D01*
X11693786Y-15609929D01*
X11765214Y-15609929D01*
X11793786Y-15595643D01*
X11893786Y-15524214D02*
X12008071Y-15524214D01*
X11936643Y-15424214D02*
X11936643Y-15681357D01*
X11950929Y-15709929D01*
X11979500Y-15724214D01*
X12008071Y-15724214D01*
X12222357Y-15709929D02*
X12193786Y-15724214D01*
X12136643Y-15724214D01*
X12108071Y-15709929D01*
X12093786Y-15681357D01*
X12093786Y-15567071D01*
X12108071Y-15538500D01*
X12136643Y-15524214D01*
X12193786Y-15524214D01*
X12222357Y-15538500D01*
X12236643Y-15567071D01*
X12236643Y-15595643D01*
X12093786Y-15624214D01*
X12493786Y-15724214D02*
X12493786Y-15424214D01*
X12493786Y-15709929D02*
X12465214Y-15724214D01*
X12408071Y-15724214D01*
X12379500Y-15709929D01*
X12365214Y-15695643D01*
X12350929Y-15667071D01*
X12350929Y-15581357D01*
X12365214Y-15552786D01*
X12379500Y-15538500D01*
X12408071Y-15524214D01*
X12465214Y-15524214D01*
X12493786Y-15538500D01*
X12608071Y-15838500D02*
X12622357Y-15824214D01*
X12650929Y-15781357D01*
X12665214Y-15752786D01*
X12679500Y-15709929D01*
X12693786Y-15638500D01*
X12693786Y-15581357D01*
X12679500Y-15509929D01*
X12665214Y-15467071D01*
X12650929Y-15438500D01*
X12622357Y-15395643D01*
X12608071Y-15381357D01*
M02*
