M48
;DRILL file {KiCad 4.0.7} date Thu Sep  6 10:03:20 2018
;FORMAT={-:-/ absolute / inch / decimal}
FMAT,2
INCH,TZ
T1C0.067
T2C0.157
%
G90
G05
M72
T1
X1.3118Y-1.3189
X1.3236Y-2.2717
X1.4142Y-5.2539
X1.5165Y-3.0236
X1.6051Y-3.7618
X1.7118Y-1.3189
X1.7236Y-2.2717
X1.7941Y-4.4921
X1.8142Y-5.2539
X1.9165Y-3.0236
X2.0051Y-3.7618
X2.0756Y-2.2717
X2.1941Y-4.4921
X2.3472Y-5.2539
X2.4476Y-3.0236
X2.4756Y-2.2717
X2.6268Y-3.7697
X2.7472Y-5.2539
X2.7783Y-1.3228
X2.8197Y-2.2717
X2.8476Y-3.0236
X3.0106Y-4.5157
X3.0268Y-3.7697
X3.1783Y-1.3228
X3.1937Y-3.0236
X3.2197Y-2.2717
X3.2823Y-5.2579
X3.3787Y-3.7697
X3.4106Y-4.5157
X3.5283Y-1.3228
X3.5717Y-2.2717
X3.5937Y-3.0236
X3.6823Y-5.2579
X3.7606Y-4.5157
X3.7787Y-3.7697
X3.9283Y-1.3228
X3.9378Y-3.0236
X3.9717Y-2.2717
X4.1248Y-3.7697
X4.1606Y-4.5157
X4.2783Y-1.3209
X4.3177Y-2.2717
X4.3378Y-3.0236
X4.5126Y-4.5157
X4.5248Y-3.7697
X4.6783Y-1.3209
X4.6898Y-3.0236
X4.7177Y-2.2717
X4.8709Y-3.7697
X4.9126Y-4.5157
X5.0224Y-1.3228
X5.0638Y-2.2717
X5.0898Y-3.0236
X5.2626Y-4.5157
X5.2709Y-3.7697
X5.4224Y-1.3228
X5.4417Y-3.0236
X5.4638Y-2.2717
X5.6228Y-3.7697
X5.6626Y-4.5157
X5.8157Y-2.2717
X5.8417Y-3.0236
X6.0087Y-4.5157
X6.0228Y-3.7697
X6.0972Y-5.2461
X6.1602Y-1.3307
X6.1937Y-3.0236
X6.2157Y-2.2717
X6.3748Y-3.7697
X6.4087Y-4.5157
X6.4972Y-5.2461
X6.5602Y-1.3307
X6.5677Y-2.2717
X6.5937Y-3.0236
X6.7587Y-4.5157
X6.7748Y-3.7697
X6.9122Y-1.3327
X6.9398Y-3.0236
X6.9677Y-2.2717
X7.1189Y-3.7697
X7.1587Y-4.5157
X7.3118Y-2.2717
X7.3122Y-1.3327
X7.3398Y-3.0236
X7.5126Y-4.5138
X7.5189Y-3.7697
X7.6602Y-1.3327
X7.6917Y-3.0236
X7.7118Y-2.2717
X7.8709Y-3.7697
X7.9126Y-4.5138
X8.0602Y-1.3327
X8.0638Y-2.2717
X8.0917Y-3.0236
X8.2567Y-4.5138
X8.2709Y-3.7697
X8.4102Y-1.3366
X8.4378Y-3.0236
X8.4638Y-2.2717
X8.6169Y-3.7697
X8.6567Y-4.5138
X8.8102Y-1.3366
X8.8157Y-2.2717
X8.8378Y-3.0236
X8.9083Y-5.2618
X9.0087Y-4.5138
X9.0169Y-3.7697
X9.1898Y-3.0236
X9.2157Y-2.2717
X9.3083Y-5.2618
X9.3689Y-3.7697
X9.4087Y-4.5138
X9.552Y-1.3445
X9.5618Y-2.2717
X9.5898Y-3.0236
X9.7606Y-4.5138
X9.7689Y-3.7697
X9.8433Y-5.2657
X9.9417Y-3.0236
X9.952Y-1.3445
X9.9618Y-2.2717
X10.1209Y-3.7697
X10.1606Y-4.5138
X10.2433Y-5.2657
X10.3039Y-1.3445
X10.3079Y-2.2717
X10.3417Y-3.0236
X10.5209Y-3.7697
X10.6858Y-3.0236
X10.7039Y-1.3445
X10.7079Y-2.2717
X10.7724Y-5.2618
X11.048Y-1.3445
X11.0858Y-3.0236
X11.1563Y-4.4961
X11.1724Y-5.2618
X11.3354Y-3.75
X11.4378Y-2.2579
X11.448Y-1.3445
X11.5563Y-4.4961
X11.6189Y-3.0236
X11.7154Y-5.2618
X11.7354Y-3.75
X11.798Y-1.3445
X11.8378Y-2.2579
X12.0189Y-3.0236
X12.1154Y-5.2618
X12.198Y-1.3445
X12.7606Y-5.2618
X12.7646Y-3.0236
X12.7685Y-1.3307
X12.7685Y-2.2815
X13.1606Y-5.2618
X13.1646Y-3.0236
X13.1685Y-1.3307
X13.1685Y-2.2815
X13.5087Y-4.5177
X13.5087Y-5.2618
X13.5106Y-2.2815
X13.5106Y-3.0236
X13.5165Y-1.3307
X13.9087Y-4.5177
X13.9087Y-5.2618
X13.9106Y-2.2815
X13.9106Y-3.0236
X13.9165Y-1.3307
X14.2626Y-1.3307
X14.2626Y-2.2815
X14.2626Y-3.0276
X14.2626Y-5.2618
X14.6626Y-1.3307
X14.6626Y-2.2815
X14.6626Y-3.0276
X14.6626Y-5.2618
T2
X1.5118Y-1.3189
X1.5236Y-2.2717
X1.6142Y-5.2539
X1.7165Y-3.0236
X1.8051Y-3.7618
X1.9941Y-4.4921
X2.2756Y-2.2717
X2.5472Y-5.2539
X2.6476Y-3.0236
X2.8268Y-3.7697
X2.9783Y-1.3228
X3.0197Y-2.2717
X3.2106Y-4.5157
X3.3937Y-3.0236
X3.4823Y-5.2579
X3.5787Y-3.7697
X3.7283Y-1.3228
X3.7717Y-2.2717
X3.9606Y-4.5157
X4.1378Y-3.0236
X4.3248Y-3.7697
X4.4783Y-1.3209
X4.5177Y-2.2717
X4.7126Y-4.5157
X4.8898Y-3.0236
X5.0709Y-3.7697
X5.2224Y-1.3228
X5.2638Y-2.2717
X5.4626Y-4.5157
X5.6417Y-3.0236
X5.8228Y-3.7697
X6.0157Y-2.2717
X6.2087Y-4.5157
X6.2972Y-5.2461
X6.3602Y-1.3307
X6.3937Y-3.0236
X6.5748Y-3.7697
X6.7677Y-2.2717
X6.9587Y-4.5157
X7.1122Y-1.3327
X7.1398Y-3.0236
X7.3189Y-3.7697
X7.5118Y-2.2717
X7.7126Y-4.5138
X7.8602Y-1.3327
X7.8917Y-3.0236
X8.0709Y-3.7697
X8.2638Y-2.2717
X8.4567Y-4.5138
X8.6102Y-1.3366
X8.6378Y-3.0236
X8.8169Y-3.7697
X9.0157Y-2.2717
X9.1083Y-5.2618
X9.2087Y-4.5138
X9.3898Y-3.0236
X9.5689Y-3.7697
X9.752Y-1.3445
X9.7618Y-2.2717
X9.9606Y-4.5138
X10.0433Y-5.2657
X10.1417Y-3.0236
X10.3209Y-3.7697
X10.5039Y-1.3445
X10.5079Y-2.2717
X10.8858Y-3.0236
X10.9724Y-5.2618
X11.248Y-1.3445
X11.3563Y-4.4961
X11.5354Y-3.75
X11.6378Y-2.2579
X11.8189Y-3.0236
X11.9154Y-5.2618
X11.998Y-1.3445
X12.9606Y-5.2618
X12.9646Y-3.0236
X12.9685Y-1.3307
X12.9685Y-2.2815
X13.7087Y-4.5177
X13.7087Y-5.2618
X13.7106Y-2.2815
X13.7106Y-3.0236
X13.7165Y-1.3307
X14.4626Y-1.3307
X14.4626Y-2.2815
X14.4626Y-3.0276
X14.4626Y-5.2618
T0
M30
