G04 #@! TF.GenerationSoftware,KiCad,Pcbnew,5.1.4+dfsg1-1*
G04 #@! TF.CreationDate,2019-09-01T07:04:37+10:00*
G04 #@! TF.ProjectId,nummacro,6e756d6d-6163-4726-9f2e-6b696361645f,rev?*
G04 #@! TF.SameCoordinates,Original*
G04 #@! TF.FileFunction,Profile,NP*
%FSLAX46Y46*%
G04 Gerber Fmt 4.6, Leading zero omitted, Abs format (unit mm)*
G04 Created by KiCad (PCBNEW 5.1.4+dfsg1-1) date 2019-09-01 07:04:37*
%MOMM*%
%LPD*%
G04 APERTURE LIST*
%ADD10C,0.150000*%
G04 APERTURE END LIST*
D10*
X375208800Y-25044400D02*
G75*
G03X375208800Y-25044400I-1011226J0D01*
G01*
X318439800Y-25044400D02*
G75*
G03X318439800Y-25044400I-1011226J0D01*
G01*
X234716626Y-25049174D02*
G75*
G03X234716626Y-25049174I-1011226J0D01*
G01*
X148915426Y-25044400D02*
G75*
G03X148915426Y-25044400I-1011226J0D01*
G01*
X58161226Y-25044400D02*
G75*
G03X58161226Y-25044400I-1011226J0D01*
G01*
X32634226Y-25044400D02*
G75*
G03X32634226Y-25044400I-1011226J0D01*
G01*
X32634226Y-140258800D02*
G75*
G03X32634226Y-140258800I-1011226J0D01*
G01*
X132964226Y-140233400D02*
G75*
G03X132964226Y-140233400I-1011226J0D01*
G01*
X194660826Y-140208000D02*
G75*
G03X194660826Y-140208000I-1011226J0D01*
G01*
X375204026Y-140288974D02*
G75*
G03X375204026Y-140288974I-1011226J0D01*
G01*
X28834614Y-25200066D02*
G75*
G02X31830000Y-22204680I2995386J0D01*
G01*
X31830000Y-143080000D02*
G75*
G02X28829934Y-140079934I0J3000066D01*
G01*
X376920000Y-140080000D02*
G75*
G02X373919934Y-143080066I-3000066J0D01*
G01*
X373829934Y-22200000D02*
G75*
G02X376830000Y-25200066I0J-3000066D01*
G01*
X364230000Y-112580000D02*
X376920760Y-112577880D01*
X364230000Y-112580000D02*
X364230000Y-86800000D01*
X373829934Y-22200000D02*
X31830000Y-22204680D01*
X376830000Y-86800000D02*
X376830000Y-25200066D01*
X364230000Y-86800000D02*
X376830000Y-86800000D01*
X376920000Y-140080000D02*
X376920000Y-112580000D01*
X31830000Y-143080000D02*
X373919934Y-143080066D01*
X28834614Y-25200066D02*
X28829934Y-140079934D01*
M02*
