M48
;DRILL file {KiCad 4.0.7} date Thu Sep  6 10:03:20 2018
;FORMAT={-:-/ absolute / inch / decimal}
FMAT,2
INCH,TZ
T1C0.016
T2C0.024
T3C0.033
T4C0.039
T5C0.059
%
G90
G05
M72
T1
X1.5244Y-3.6701
X1.9945Y-3.6528
X2.6161Y-1.9673
X5.6965Y-4.1909
X5.872Y-3.6693
X6.1496Y-1.8264
X9.6181Y-5.1004
X12.0807Y-2.6118
X12.152Y-3.8205
X12.161Y-3.6445
X12.1642Y-3.3543
X12.1803Y-4.2642
X12.4157Y-4.0732
X12.4469Y-3.8193
X12.4594Y-4.3488
X12.5492Y-4.172
X12.5567Y-3.9575
X12.674Y-4.3067
X12.7461Y-2.6472
X12.7528Y-3.35
X12.8492Y-3.7039
X12.8815Y-4.1814
X12.9079Y-3.7035
X12.9476Y-4.0287
X12.9654Y-4.6114
X12.9791Y-3.5594
X12.9918Y-4.1846
X13.0063Y-3.9913
X13.0331Y-3.6437
X13.0345Y-4.1773
X13.0346Y-3.3524
X13.0713Y-4.2047
X13.0726Y-4.1567
X13.0986Y-3.2638
X13.1327Y-3.9815
X13.1354Y-3.8772
X13.1631Y-4.2055
X13.1705Y-4.0224
X13.1913Y-4.8724
X13.1925Y-3.8768
X13.2209Y-3.424
X13.2331Y-3.5669
X13.2591Y-3.8102
X13.2697Y-3.9272
X13.2913Y-4.6189
X13.2921Y-3.3087
X13.2945Y-3.424
X13.2953Y-3.7457
X13.3051Y-4.4823
X13.3339Y-3.9996
X13.3646Y-3.4957
X13.365Y-5.2638
X13.3791Y-1.2331
X13.4339Y-4.7126
X13.4346Y-3.1248
X13.4559Y-4.0004
X13.5138Y-3.8051
X13.539Y-3.2953
X13.5531Y-2.6016
X13.6063Y-3.9213
X13.6134Y-3.3472
X13.6331Y-3.4858
X13.8429Y-2.1736
X13.8469Y-3.6531
X13.8917Y-3.9843
X13.9476Y-2.6016
X13.9961Y-3.3496
X14.0202Y-3.8605
X14.0906Y-3.4441
X14.1535Y-3.4429
X14.2087Y-3.4626
X14.3563Y-2.5945
T3
X14.4783Y-4.7106
X14.6752Y-4.7106
T4
X1.4618Y-1.1189
X1.4736Y-2.0717
X1.5618Y-1.1189
X1.5642Y-5.0539
X1.5736Y-2.0717
X1.6642Y-5.0539
X1.6665Y-2.8236
X1.7551Y-3.5618
X1.7665Y-2.8236
X1.8551Y-3.5618
X1.9441Y-4.2921
X2.0441Y-4.2921
X2.2256Y-2.0717
X2.3256Y-2.0717
X2.4972Y-5.0539
X2.5972Y-5.0539
X2.5976Y-2.8236
X2.6976Y-2.8236
X2.7768Y-3.5697
X2.8768Y-3.5697
X2.9283Y-1.1228
X2.9697Y-2.0717
X3.0283Y-1.1228
X3.0697Y-2.0717
X3.1606Y-4.3157
X3.2606Y-4.3157
X3.3437Y-2.8236
X3.4323Y-5.0579
X3.4437Y-2.8236
X3.5287Y-3.5697
X3.5323Y-5.0579
X3.6287Y-3.5697
X3.6783Y-1.1228
X3.7217Y-2.0717
X3.7783Y-1.1228
X3.8217Y-2.0717
X3.9106Y-4.3157
X4.0106Y-4.3157
X4.0878Y-2.8236
X4.1878Y-2.8236
X4.2748Y-3.5697
X4.3748Y-3.5697
X4.4283Y-1.1209
X4.4677Y-2.0717
X4.5283Y-1.1209
X4.5677Y-2.0717
X4.6626Y-4.3157
X4.7626Y-4.3157
X4.8398Y-2.8236
X4.9398Y-2.8236
X5.0209Y-3.5697
X5.1209Y-3.5697
X5.1724Y-1.1228
X5.2138Y-2.0717
X5.2724Y-1.1228
X5.3138Y-2.0717
X5.4126Y-4.3157
X5.5126Y-4.3157
X5.5917Y-2.8236
X5.6917Y-2.8236
X5.7728Y-3.5697
X5.8728Y-3.5697
X5.9657Y-2.0717
X6.0657Y-2.0717
X6.1587Y-4.3157
X6.2472Y-5.0461
X6.2587Y-4.3157
X6.3102Y-1.1307
X6.3437Y-2.8236
X6.3472Y-5.0461
X6.4102Y-1.1307
X6.4437Y-2.8236
X6.5248Y-3.5697
X6.6248Y-3.5697
X6.7177Y-2.0717
X6.8177Y-2.0717
X6.9087Y-4.3157
X7.0087Y-4.3157
X7.0622Y-1.1327
X7.0898Y-2.8236
X7.1622Y-1.1327
X7.1898Y-2.8236
X7.2689Y-3.5697
X7.3689Y-3.5697
X7.4618Y-2.0717
X7.5618Y-2.0717
X7.6626Y-4.3138
X7.7626Y-4.3138
X7.8102Y-1.1327
X7.8417Y-2.8236
X7.9102Y-1.1327
X7.9417Y-2.8236
X8.0209Y-3.5697
X8.1209Y-3.5697
X8.2138Y-2.0717
X8.3138Y-2.0717
X8.4067Y-4.3138
X8.5067Y-4.3138
X8.5602Y-1.1366
X8.5878Y-2.8236
X8.6602Y-1.1366
X8.6878Y-2.8236
X8.7669Y-3.5697
X8.8669Y-3.5697
X8.9657Y-2.0717
X9.0583Y-5.0618
X9.0657Y-2.0717
X9.1583Y-5.0618
X9.1587Y-4.3138
X9.2587Y-4.3138
X9.3398Y-2.8236
X9.4398Y-2.8236
X9.5189Y-3.5697
X9.6189Y-3.5697
X9.702Y-1.1445
X9.7118Y-2.0717
X9.802Y-1.1445
X9.8118Y-2.0717
X9.9106Y-4.3138
X9.9933Y-5.0657
X10.0106Y-4.3138
X10.0917Y-2.8236
X10.0933Y-5.0657
X10.1917Y-2.8236
X10.2709Y-3.5697
X10.3709Y-3.5697
X10.4539Y-1.1445
X10.4579Y-2.0717
X10.5539Y-1.1445
X10.5579Y-2.0717
X10.8358Y-2.8236
X10.9224Y-5.0618
X10.9358Y-2.8236
X11.0224Y-5.0618
X11.198Y-1.1445
X11.298Y-1.1445
X11.3063Y-4.2961
X11.4063Y-4.2961
X11.4854Y-3.55
X11.5854Y-3.55
X11.5878Y-2.0579
X11.6878Y-2.0579
X11.7689Y-2.8236
X11.8654Y-5.0618
X11.8689Y-2.8236
X11.948Y-1.1445
X11.9654Y-5.0618
X12.048Y-1.1445
X12.9106Y-5.0618
X12.9146Y-2.8236
X12.9185Y-1.1307
X12.9185Y-2.0815
X13.0106Y-5.0618
X13.0146Y-2.8236
X13.0185Y-1.1307
X13.0185Y-2.0815
X13.6587Y-4.3177
X13.6587Y-5.0618
X13.6606Y-2.0815
X13.6606Y-2.8236
X13.6665Y-1.1307
X13.6854Y-3.7823
X13.6854Y-3.8823
X13.6854Y-3.9823
X13.7587Y-4.3177
X13.7587Y-5.0618
X13.7606Y-2.0815
X13.7606Y-2.8236
X13.7665Y-1.1307
X13.7854Y-3.7823
X13.7854Y-3.8823
X13.7854Y-3.9823
X14.4126Y-1.1307
X14.4126Y-2.0815
X14.4126Y-2.8276
X14.4126Y-5.0618
X14.5126Y-1.1307
X14.5126Y-2.0815
X14.5126Y-2.8276
X14.5126Y-5.0618
T2
X14.439Y-4.6181G85X14.439Y-4.5906
G05
X14.7146Y-4.5906G85X14.7146Y-4.6181
G05
T5
X1.4134Y-1.4961G85X1.4118Y-1.5189
G05
X1.4252Y-2.4488G85X1.4236Y-2.4716
G05
X1.5157Y-5.4311G85X1.5142Y-5.4539
G05
X1.6181Y-3.2008G85X1.6165Y-3.2236
G05
X1.6618Y-1.4189G85X1.6299Y-1.4764
G05
X1.6736Y-2.3717G85X1.6417Y-2.4291
G05
X1.7067Y-3.939G85X1.7051Y-3.9618
G05
X1.7642Y-5.3539G85X1.7323Y-5.4114
G05
X1.8666Y-3.1236G85X1.8346Y-3.1811
G05
X1.8957Y-4.6693G85X1.8941Y-4.6921
G05
X1.9551Y-3.8618G85X1.9232Y-3.9193
G05
X2.1441Y-4.5921G85X2.1122Y-4.6496
G05
X2.1772Y-2.4488G85X2.1756Y-2.4716
G05
X2.4256Y-2.3717G85X2.3937Y-2.4291
G05
X2.4488Y-5.4311G85X2.4473Y-5.4539
G05
X2.5492Y-3.2008G85X2.5476Y-3.2236
G05
X2.6973Y-5.3539G85X2.6653Y-5.4114
G05
X2.7283Y-3.9469G85X2.7268Y-3.9697
G05
X2.7977Y-3.1236G85X2.7657Y-3.1811
G05
X2.8799Y-1.5G85X2.8784Y-1.5228
G05
X2.9212Y-2.4488G85X2.9197Y-2.4716
G05
X2.9768Y-3.8697G85X2.9449Y-3.9272
G05
X3.1122Y-4.6929G85X3.1106Y-4.7157
G05
X3.1284Y-1.4228G85X3.0964Y-1.4803
G05
X3.1697Y-2.3717G85X3.1378Y-2.4291
G05
X3.2953Y-3.2008G85X3.2937Y-3.2236
G05
X3.3606Y-4.6157G85X3.3287Y-4.6732
G05
X3.3838Y-5.4351G85X3.3823Y-5.4578
G05
X3.4803Y-3.9469G85X3.4788Y-3.9697
G05
X3.5437Y-3.1236G85X3.5118Y-3.1811
G05
X3.6323Y-5.3579G85X3.6004Y-5.4154
G05
X3.6299Y-1.5G85X3.6284Y-1.5228
G05
X3.6732Y-2.4488G85X3.6717Y-2.4716
G05
X3.7288Y-3.8697G85X3.6968Y-3.9272
G05
X3.8622Y-4.6929G85X3.8606Y-4.7157
G05
X3.8784Y-1.4228G85X3.8464Y-1.4803
G05
X3.9217Y-2.3717G85X3.8897Y-2.4291
G05
X4.0394Y-3.2008G85X4.0378Y-3.2236
G05
X4.1106Y-4.6157G85X4.0787Y-4.6732
G05
X4.2264Y-3.9469G85X4.2248Y-3.9697
G05
X4.2878Y-3.1236G85X4.2559Y-3.1811
G05
X4.3799Y-1.4981G85X4.3784Y-1.5208
G05
X4.4193Y-2.4488G85X4.4177Y-2.4716
G05
X4.4748Y-3.8697G85X4.4429Y-3.9272
G05
X4.6284Y-1.4209G85X4.5964Y-1.4783
G05
X4.6142Y-4.6929G85X4.6126Y-4.7157
G05
X4.6677Y-2.3717G85X4.6358Y-2.4291
G05
X4.7913Y-3.2008G85X4.7898Y-3.2236
G05
X4.8626Y-4.6157G85X4.8307Y-4.6732
G05
X4.9724Y-3.9469G85X4.9709Y-3.9697
G05
X5.0398Y-3.1236G85X5.0079Y-3.1811
G05
X5.124Y-1.5G85X5.1225Y-1.5228
G05
X5.1653Y-2.4488G85X5.1638Y-2.4716
G05
X5.2209Y-3.8697G85X5.189Y-3.9272
G05
X5.3725Y-1.4228G85X5.3405Y-1.4803
G05
X5.3642Y-4.6929G85X5.3626Y-4.7157
G05
X5.4138Y-2.3717G85X5.3819Y-2.4291
G05
X5.5433Y-3.2008G85X5.5417Y-3.2236
G05
X5.6126Y-4.6157G85X5.5807Y-4.6732
G05
X5.7244Y-3.9469G85X5.7228Y-3.9697
G05
X5.7918Y-3.1236G85X5.7598Y-3.1811
G05
X5.9173Y-2.4488G85X5.9158Y-2.4716
G05
X5.9729Y-3.8697G85X5.9409Y-3.9272
G05
X6.1102Y-4.6929G85X6.1087Y-4.7157
G05
X6.1658Y-2.3717G85X6.1338Y-2.4291
G05
X6.1988Y-5.4233G85X6.1973Y-5.446
G05
X6.2618Y-1.5079G85X6.2602Y-1.5307
G05
X6.2953Y-3.2008G85X6.2937Y-3.2236
G05
X6.3587Y-4.6157G85X6.3268Y-4.6732
G05
X6.4473Y-5.3461G85X6.4153Y-5.4035
G05
X6.4764Y-3.9469G85X6.4748Y-3.9697
G05
X6.5103Y-1.4307G85X6.4783Y-1.4882
G05
X6.5437Y-3.1236G85X6.5118Y-3.1811
G05
X6.6693Y-2.4488G85X6.6677Y-2.4716
G05
X6.7248Y-3.8697G85X6.6929Y-3.9272
G05
X6.8602Y-4.6929G85X6.8587Y-4.7157
G05
X6.9177Y-2.3717G85X6.8858Y-2.4291
G05
X7.0138Y-1.5099G85X7.0122Y-1.5327
G05
X7.0413Y-3.2008G85X7.0398Y-3.2236
G05
X7.1087Y-4.6157G85X7.0768Y-4.6732
G05
X7.2205Y-3.9469G85X7.2189Y-3.9697
G05
X7.2622Y-1.4327G85X7.2303Y-1.4902
G05
X7.2898Y-3.1236G85X7.2579Y-3.1811
G05
X7.4134Y-2.4488G85X7.4118Y-2.4716
G05
X7.4689Y-3.8697G85X7.437Y-3.9272
G05
X7.6142Y-4.691G85X7.6126Y-4.7138
G05
X7.6618Y-2.3717G85X7.6299Y-2.4291
G05
X7.7618Y-1.5099G85X7.7602Y-1.5327
G05
X7.7933Y-3.2008G85X7.7917Y-3.2236
G05
X7.8626Y-4.6138G85X7.8307Y-4.6713
G05
X7.9724Y-3.9469G85X7.9709Y-3.9697
G05
X8.0103Y-1.4327G85X7.9783Y-1.4902
G05
X8.0418Y-3.1236G85X8.0098Y-3.1811
G05
X8.1653Y-2.4488G85X8.1638Y-2.4716
G05
X8.2209Y-3.8697G85X8.189Y-3.9272
G05
X8.3583Y-4.691G85X8.3567Y-4.7138
G05
X8.4138Y-2.3717G85X8.3819Y-2.4291
G05
X8.5118Y-1.5138G85X8.5102Y-1.5366
G05
X8.5394Y-3.2008G85X8.5378Y-3.2236
G05
X8.6067Y-4.6138G85X8.5748Y-4.6713
G05
X8.7185Y-3.9469G85X8.7169Y-3.9697
G05
X8.7603Y-1.4366G85X8.7283Y-1.4941
G05
X8.7878Y-3.1236G85X8.7559Y-3.1811
G05
X8.9173Y-2.4488G85X8.9158Y-2.4716
G05
X8.9669Y-3.8697G85X8.935Y-3.9272
G05
X9.0098Y-5.439G85X9.0083Y-5.4618
G05
X9.1102Y-4.691G85X9.1087Y-4.7138
G05
X9.1658Y-2.3717G85X9.1338Y-2.4291
G05
X9.2583Y-5.3618G85X9.2264Y-5.4193
G05
X9.2913Y-3.2008G85X9.2898Y-3.2236
G05
X9.3587Y-4.6138G85X9.3268Y-4.6713
G05
X9.4705Y-3.9469G85X9.4689Y-3.9697
G05
X9.5398Y-3.1236G85X9.5079Y-3.1811
G05
X9.6535Y-1.5217G85X9.652Y-1.5445
G05
X9.6634Y-2.4488G85X9.6618Y-2.4716
G05
X9.7189Y-3.8697G85X9.687Y-3.9272
G05
X9.8622Y-4.691G85X9.8606Y-4.7138
G05
X9.902Y-1.4445G85X9.8701Y-1.502
G05
X9.9118Y-2.3717G85X9.8799Y-2.4291
G05
X9.9449Y-5.4429G85X9.9433Y-5.4657
G05
X10.0433Y-3.2008G85X10.0417Y-3.2236
G05
X10.1106Y-4.6138G85X10.0787Y-4.6713
G05
X10.1933Y-5.3657G85X10.1614Y-5.4232
G05
X10.2224Y-3.9469G85X10.2209Y-3.9697
G05
X10.2918Y-3.1236G85X10.2598Y-3.1811
G05
X10.4055Y-1.5217G85X10.4039Y-1.5445
G05
X10.4094Y-2.4488G85X10.4079Y-2.4716
G05
X10.4709Y-3.8697G85X10.439Y-3.9272
G05
X10.654Y-1.4445G85X10.622Y-1.502
G05
X10.6579Y-2.3717G85X10.626Y-2.4291
G05
X10.7874Y-3.2008G85X10.7858Y-3.2236
G05
X10.874Y-5.439G85X10.8725Y-5.4618
G05
X11.0358Y-3.1236G85X11.0039Y-3.1811
G05
X11.1225Y-5.3618G85X11.0905Y-5.4193
G05
X11.1496Y-1.5217G85X11.148Y-1.5445
G05
X11.2579Y-4.6733G85X11.2563Y-4.696
G05
X11.398Y-1.4445G85X11.3661Y-1.502
G05
X11.437Y-3.9272G85X11.4354Y-3.95
G05
X11.5063Y-4.5961G85X11.4744Y-4.6535
G05
X11.5394Y-2.4351G85X11.5378Y-2.4578
G05
X11.6855Y-3.85G85X11.6535Y-3.9075
G05
X11.7205Y-3.2008G85X11.7189Y-3.2236
G05
X11.7878Y-2.3579G85X11.7559Y-2.4154
G05
X11.8169Y-5.439G85X11.8154Y-5.4618
G05
X11.8996Y-1.5217G85X11.898Y-1.5445
G05
X11.9689Y-3.1236G85X11.937Y-3.1811
G05
X12.0654Y-5.3618G85X12.0334Y-5.4193
G05
X12.148Y-1.4445G85X12.1161Y-1.502
G05
X12.8622Y-5.439G85X12.8606Y-5.4618
G05
X12.8661Y-3.2008G85X12.8646Y-3.2236
G05
X12.8701Y-1.5079G85X12.8685Y-1.5307
G05
X12.8701Y-2.4587G85X12.8685Y-2.4815
G05
X13.1106Y-5.3618G85X13.0787Y-5.4193
G05
X13.1146Y-3.1236G85X13.0827Y-3.1811
G05
X13.1185Y-1.4307G85X13.0866Y-1.4882
G05
X13.1185Y-2.3815G85X13.0866Y-2.439
G05
X13.6102Y-4.6949G85X13.6087Y-4.7177
G05
X13.6102Y-5.439G85X13.6087Y-5.4618
G05
X13.6122Y-2.4587G85X13.6106Y-2.4815
G05
X13.6122Y-3.2008G85X13.6106Y-3.2236
G05
X13.6181Y-1.5079G85X13.6165Y-1.5307
G05
X13.8587Y-4.6177G85X13.8268Y-4.6752
G05
X13.8587Y-5.3618G85X13.8268Y-5.4193
G05
X13.8606Y-2.3815G85X13.8287Y-2.439
G05
X13.8606Y-3.1236G85X13.8287Y-3.1811
G05
X13.8666Y-1.4307G85X13.8346Y-1.4882
G05
X14.3642Y-1.5079G85X14.3626Y-1.5307
G05
X14.3642Y-2.4587G85X14.3626Y-2.4815
G05
X14.3642Y-3.2048G85X14.3626Y-3.2275
G05
X14.3642Y-5.439G85X14.3626Y-5.4618
G05
X14.6126Y-1.4307G85X14.5807Y-1.4882
G05
X14.6126Y-2.3815G85X14.5807Y-2.439
G05
X14.6126Y-3.1276G85X14.5807Y-3.185
G05
X14.6126Y-5.3618G85X14.5807Y-5.4193
G05
T0
M30
